<?xml version="1.0" encoding="utf-8" ?>
<svg baseProfile="full" height="200mm" version="1.1" viewBox="0,0,200,200" width="200mm" xmlns="http://www.w3.org/2000/svg" xmlns:ev="http://www.w3.org/2001/xml-events" xmlns:xlink="http://www.w3.org/1999/xlink"><defs /><rect fill="#1a1a1a" height="200" width="200" x="0" y="0" /><text alignment-baseline="middle" fill="#e1ed5e" style="dominant-baseline: central; font-size:9.0px; font-family:Arial;" text-anchor="middle" x="100.0" y="100.0">2024</text><line stroke="#e1ed5e" stroke-width="0.3" x1="100.0" x2="100.0" y1="15.0" y2="10.0" /><path d="M 100.0 14.0 a86.0,86.0 0 0,1 42.35913384403234,11.155469271406648" fill="none" id="id49" stroke="none" /><text fill="#e1ed5e" style="font-size:6.75px; font-family:Arial;" text-anchor="middle"><textPath startOffset="22.145653131862478" xlink:href="#id49">January</textPath></text><path d="M 100.0 79.0 l 0.0 -15.904902223412805 a36.904902223412805,36.904902223412805 0 0,0 0.6335217211323374,0.005438022038377405 l -0.27302879628348264 15.902558599568861" fill="#ff5407" stroke="none" /><path d="M 100.72087961077811 79.0123766808444 l 0.8965379795228439 -26.101725065066262 a47.117117599785686,47.117117599785686 0 0,0 0.8081129521039886,0.03470384725936965 l -1.3444766922276687 26.08248864938106" fill="#fff316" stroke="none" /><path d="M 101.08105385017728 79.02784411241856 l 1.3499127825385377 -26.187947349148715 a47.22271631395661,47.22271631395661 0 0,0 0.8092076749154188,0.0486799242829916 l -1.7992648095864188 26.16091544704103" fill="#fff517" stroke="none" /><path d="M 101.80034050326958 79.07731436759882 l 4.140128638566262 -48.114570452149756 a69.29236538976693,69.29236538976693 0 0,0 1.1842409615463128,0.11214885030912121 l -4.965469163497588 48.03640984633545" fill="#37ff7a" stroke="none" /><path d="M 102.51750503828377 79.15144685158666 l 4.42636173437392 -36.65662490038505 a57.92290383069916,57.92290383069916 0 0,0 0.9861296542838938,0.1276742267505225 l -5.054969210548605 36.57523907743413" fill="#78ff26" stroke="none" /><path d="M 102.87502721639298 79.19773525538626 l 3.445279639283984 -24.92832720572633 a46.16528261451916,46.16528261451916 0 0,0 0.7840951095773874,0.11523497930985037 l -3.8726998544690536 24.865511153117595" fill="#ffe515" stroke="none" /><path d="M 103.23170211078529 79.25015418208739 l 4.011757902510344 -25.75836357505555 a47.06889900884007,47.06889900884007 0 0,0 0.797307918284164,0.13119671454241325 l -4.453343323847578 25.68570086201747" fill="#fff216" stroke="none" /><path d="M 103.58742460773223 79.30868818359171 l 2.9786428664851337 -17.180020510347248 a38.436324671845696,38.436324671845696 0 0,0 0.649144253859922,0.1182957071861085 l -3.2731218538961095 17.126356629229775" fill="#ff6e0a" stroke="none" /><path d="M 103.94208987418118 79.37332000966035 l 2.060851148184692 -10.783244040106847 a31.978408786498797,31.978408786498797 0 0,0 0.5383085663407168,0.10767678947881221 l -2.2456562000563656 10.746277853965175" fill="#ff0100" stroke="none" /><path d="M 104.29559338865022 79.4440306129975 l 5.01169548652776 -23.982777157224103 a45.500830431288506,45.500830431288506 0 0,0 0.7631953596637917,0.16633487647213976 l -5.422653262810686 23.893210822618244" fill="#ffdb14" stroke="none" /><path d="M 104.9986988182912 79.60360301121754 l 6.216398760800649 -25.365028295345304 a47.11567104205733,47.11567104205733 0 0,0 0.7839031461061141,0.19926511431076735 l -6.650907200132157 25.25457794919927" fill="#fff316" stroke="none" /><path d="M 105.3480935250658 79.69241777938227 l 4.441387928848799 -16.86467338613835 a38.439699973211894,38.439699973211894 0 0,0 0.6366686949130137,0.17352688393847254 l -4.730238024696506 16.785946008055735" fill="#ff6e0a" stroke="none" /><path d="M 105.69591212413111 79.78721728523813 l 7.076523972580141 -25.112087110259885 a47.090115188856146,47.090115188856146 0 0,0 0.7761796137342613,0.2259345733951489 l -7.506563598696006 24.986908842562222" fill="#fff316" stroke="none" /><path d="M 106.38641147887787 79.99465700312896 l 7.938936842561769 -24.868606586221745 a47.10506295204929,47.10506295204929 0 0,0 0.7682101429880283,0.2525259325924514 l -8.36466972319754 24.72865973222727" fill="#fff316" stroke="none" /><path d="M 106.72888874123014 80.10723608172694 l 15.820549344770598 -46.770643010420294 a70.37390838467721,70.37390838467721 0 0,0 1.1410433144578704,0.3969140959693135 l -16.621098431273488 46.49217048188239" fill="#39ff88" stroke="none" /><path d="M 107.40779381753099 80.34994680014964 l 9.222222792684077 -24.463041623573993 a47.14363782480578,47.14363782480578 0 0,0 0.754809461126623,0.29197651471781194 l -9.640804516304225 24.301125220718145" fill="#fff417" stroke="none" /><path d="M 108.07796709384702 80.6158196554323 l 10.06711741576613 -24.15741699242486 a47.171122421644796,47.171122421644796 0 0,0 0.7447756980885286,0.31790045841345416 l -10.480328189025089 23.981041884352003" fill="#fff417" stroke="none" /><path d="M 109.71004243097381 81.37971332152246 l 12.083913888860346 -23.17249820565927 a47.133994106616655,47.133994106616655 0 0,0 0.7142173372083719,0.3802805036119549 l -12.479920041855278 22.96164723432474" fill="#fff316" stroke="none" /><path d="M 110.34350942703115 81.72400993836675 l 12.870110807488839 -22.740252606633646 a47.129654433431554,47.129654433431554 0 0,0 0.7006777667263784,0.40453649723466045 l -13.258581042075615 22.515969212122812" fill="#fff316" stroke="none" /><line stroke="#e1ed5e" stroke-width="0.3" x1="143.13028292997686" x2="145.6673583964461" y1="26.7553504044142" y2="22.446841604673864" /><path d="M 143.63769802327073 25.89364864446614 a86.0,86.0 0 0,1 29.32050498858742,28.57503671076993" fill="none" id="id50" stroke="none" /><text fill="#e1ed5e" style="font-size:6.75px; font-family:Arial;" text-anchor="middle"><textPath startOffset="20.669276256404974" xlink:href="#id50">February</textPath></text><path d="M 114.65682725009322 84.96080404539774 l 7.620248886545346 -7.819046664882148 a31.91813554781677,31.91813554781677 0 0,0 0.3891095521251504,0.3857838494412912 l -7.753350358800458 7.687082805212198" fill="#ff0000" stroke="none" /><path d="M 114.91283532996326 85.21462403516908 l 10.85667652149129 -10.763884972046897 a36.28818644521832,36.28818644521832 0 0,0 0.4347898415198635,0.44613268029382486 l -11.039853164161965 10.57592959968533" fill="#ff4a06" stroke="none" /><path d="M 115.16444852881244 85.47280134310134 l 10.987972191429355 -10.526228801402572 a36.21634074470935,36.21634074470935 0 0,0 0.42622177802260525,0.4526327580004344 l -11.16704980318822 10.336054583457644" fill="#ff4906" stroke="none" /><path d="M 115.6541949942343 86.00192230759917 l 19.49025454901903 -17.42830580060638 a47.14604875435306,47.14604875435306 0 0,0 0.5342970467430914,0.6079319596375602 l -19.786562659720715 17.091161563157524" fill="#fff417" stroke="none" /><path d="M 116.7966241395341 87.39550010848427 l 39.59069276536836 -29.709593935103655 a70.4983123493169,70.4983123493169 0 0,0 0.7180688873460725,0.9741983548078057 l -40.09486367229825 29.025589271026977" fill="#39ff8a" stroke="none" /><line stroke="#e1ed5e" stroke-width="0.3" x1="172.87174338648825" x2="177.1583165268699" y1="56.24261187166439" y2="53.66864786411523" /><path d="M 173.72905801456457 55.72781907015455 a86.0,86.0 0 0,1 12.242430191666344,42.057860355516425" fill="none" id="id51" stroke="none" /><text fill="#e1ed5e" style="font-size:6.75px; font-family:Arial;" text-anchor="middle"><textPath startOffset="22.145653131862474" xlink:href="#id51">March</textPath></text><path d="M 118.53625476483649 90.13048839642627 l 13.490301887250945 -7.182825910685532 a36.28336458612376,36.28336458612376 0 0,0 0.28800686223557526,0.5522911334649363 l -13.611616818461465 6.950188534116097" fill="#ff4a06" stroke="none" /><path d="M 118.70294669586156 90.45014215332178 l 23.296409299845333 -11.895312581989213 a47.15762121618002,47.15762121618002 0 0,0 0.3619461657310442,0.7241347895864053 l -23.497175378788114 11.493645936239059" fill="#fff417" stroke="none" /><path d="M 119.71291397450082 92.76114493625339 l 24.538130780734885 -9.010741511212686 a47.14026252343959,47.14026252343959 0 0,0 0.2724254401870716,0.7620224416064025 l -24.6891963909659 8.588184113225367" fill="#fff417" stroke="none" /><path d="M 120.16314734710363 94.1308016681162 l 47.57533621833952 -13.84848700277933 a70.54990624162872,70.54990624162872 0 0,0 0.3284988674430149,1.1657265921538342 l -47.80605357785712 13.029752486722483" fill="#39ff8b" stroke="none" /><path d="M 120.35273937422433 94.82641323984039 l 23.53303501590787 -5.9820054758262025 a45.281435842485934,45.281435842485934 0 0,0 0.18503390535893263,0.7550014768394615 l -23.632256447783092 5.577148174378646" fill="#ffd814" stroke="none" /><path d="M 120.43855184770803 95.1765574152323 l 23.660414109813537 -5.583793305948492 a45.31036699705331,45.31036699705331 0 0,0 0.1721559592952776,0.758550921561248 l -23.752780930666482 5.176808050448218" fill="#ffd914" stroke="none" /><path d="M 120.51834098615036 95.52812308129327 l 41.87607221814646 -9.126695034692462 a63.85909456201446,63.85909456201446 0 0,0 0.22424361036600834,1.0730868527021236 l -42.02657353933684 8.406491730704934" fill="#30ff2f" stroke="none" /><path d="M 120.7213421655516 96.59031103205396 l 48.68829481807572 -8.011640384245256 a70.34304848647201,70.34304848647201 0 0,0 0.18583463659405383,1.1931916757071894 l -48.818650946808035 7.174660526606624" fill="#39ff88" stroke="none" /><path d="M 120.86939407059847 97.66154086499901 l 24.14144288263176 -2.705099029230023 a45.29252611840343,45.29252611840343 0 0,0 0.07994693246051748,0.7734140495448422 l -24.184322207573942 2.2902804574022495" fill="#ffd814" stroke="none" /><path d="M 120.9064616781168 98.02013634271609 l 31.9748614117565 -3.0280526198314095 a53.117921242968116,53.117921242968116 0 0,0 0.07817535787842199,0.9085161579824458 l -32.02213039233266 2.4787154144733017" fill="#b7ff1f" stroke="none" /><path d="M 120.98066250479742 99.09900007780936 l 54.83427139279553 -2.3548195509551832 a75.88481114385213,75.88481114385213 0 0,0 0.04471896619477319,1.3019439080887991 l -54.86661504598715 1.413169378302264" fill="#41ffcf" stroke="none" /><line stroke="#e1ed5e" stroke-width="0.3" x1="184.99686870605535" x2="189.99668451229388" y1="99.2704041080226" y2="99.22748670261217" /><path d="M 185.99683186730306 99.26182062694052 a86.0,86.0 0 0,1 -10.086455211305974,41.156179273409016" fill="none" id="id52" stroke="none" /><text fill="#e1ed5e" style="font-size:6.75px; font-family:Arial;" text-anchor="middle"><textPath startOffset="21.40746469413373" xlink:href="#id52">April</textPath></text><path d="M 120.99922638620191 99.81974689727618 l 24.220270326394566 -0.20790189099590523 a45.221162603803904,45.221162603803904 0 0,0 0.0,0.7763099874394612 l -24.220270326394566 -0.20790189099590228" fill="#ffd714" stroke="none" /><path d="M 120.99922638620191 100.18025310272382 l 24.24678957444266 0.20812952684565494 a45.247682828824,45.247682828824 0 0,0 -0.013334208580377925,0.7766508009953771 l -24.23964393426361 -0.6243272438101031" fill="#ffd814" stroke="none" /><path d="M 120.99303781780057 100.54070618675476 l 32.13041035906317 0.82756539643745 a53.14106616662202,53.14106616662202 0 0,0 -0.031316063196822626,0.9117330111532381 l -32.111469608869506 -1.3790046721547988" fill="#b6ff1f" stroke="none" /><path d="M 120.98066250479742 100.90099992219065 l 24.74563600820319 1.0626840841108294 a45.7684436110367,45.7684436110367 0 0,0 -0.04044712221272965,0.7846633653914178 l -24.723747296533887 -1.4873192428789779" fill="#ffdf14" stroke="none" /><path d="M 120.93736805541906 101.62068470465957 l 24.40900818823142 1.8894116071259504 a45.48202518081972,45.48202518081972 0 0,0 -0.066937363367108,0.7779136270324193 l -24.37297720216657 -2.308146281534027" fill="#ffdb14" stroke="none" /><path d="M 120.86939407059847 102.33845913500097 l 25.118984436434232 2.8146345992901476 a46.27618537369408,46.27618537369408 0 0,0 -0.0952361994148631,0.7886923501480755 l -25.066966150759704 -3.2454206263616316" fill="#ffe715" stroke="none" /><path d="M 120.82617615685814 102.69636545807757 l 24.06419186578941 3.115591418931637 a45.26504152156443,45.26504152156443 0 0,0 -0.10638466702120455,0.7697464551028224 l -24.007162682212996 -3.5282261822345444" fill="#ffd814" stroke="none" /><path d="M 120.51834098615036 104.47187691870673 l 47.73688493563245 10.404031888285003 a69.85748727564962,69.85748727564962 0 0,0 -0.26542232016526324,1.1694997163528764 l -47.55125175390953 -11.221965938576895" fill="#38ff82" stroke="none" /><path d="M 120.43855184770803 104.8234425847677 l 23.630848564681564 5.576815917800156 a45.27998928475756,45.27998928475756 0 0,0 -0.18502799427812694,0.754977357612644 l -23.531633043887144 -5.981649100020899" fill="#ffd814" stroke="none" /><path d="M 120.35273937422433 105.17358676015961 l 23.567616992419136 5.990796079023596 a45.3171175997857,45.3171175997857 0 0,0 -0.19812324263187717,0.7523062229007454 l -23.461304268982527 -6.394482806297145" fill="#ffd914" stroke="none" /><path d="M 120.16314734710363 105.8691983318838 l 24.114293966275465 7.019319528096886 a46.115135279935714,46.115135279935714 0 0,0 -0.22777293022692285,0.7581820055946942 l -23.990244716044913 -7.432239137282303" fill="#ffe415" stroke="none" /><path d="M 120.05942366710727 106.21446072829308 l 18.915473831711633 5.8600621451044335 a40.80241092954728,40.80241092954728 0 0,0 -0.2130182818682933,0.667276733964556 l -18.812090834066083 -6.183907912760373" fill="#ff930d" stroke="none" /><path d="M 119.94978838288452 106.5578916946017 l 46.86165667932768 15.404357341268428 a70.32858290918833,70.32858290918833 0 0,0 -0.38685602886513654,1.1436711095282377 l -46.59031522889018 -16.206530125270827" fill="#39ff88" stroke="none" /><path d="M 119.71291397450082 107.23885506374661 l 22.819031306352255 8.379464372210512 a45.308920439324936,45.308920439324936 0 0,0 -0.27437640139880315,0.727816002587786 l -22.671824221139012 -8.769948654992456" fill="#ffd914" stroke="none" /><path d="M 119.58574465831526 107.57618678355244 l 22.64933857804271 8.761250725196176 a45.284811143852124,45.284811143852124 0 0,0 -0.28667727606535787,0.7226140071419381 l -22.495602627011227 -9.148765749551679" fill="#ffd814" stroke="none" /><path d="M 119.0197475246899 108.90220220490707 l 18.590163697470434 8.70113528280933 a41.52568979373159,41.52568979373159 0 0,0 -0.3077266028298581,0.6430302459068686 l -18.438057836680667 -9.018978030781303" fill="#ff9f0e" stroke="none" /><path d="M 118.5362547648365 109.86951160357373 l 13.307287317225773 7.085380960483777 a36.07602464505759,36.07602464505759 0 0,0 -0.2957454957161098,0.544138401608242 l -13.183696471894326 -7.312774195566623" fill="#ff4706" stroke="none" /><line stroke="#e1ed5e" stroke-width="0.3" x1="174.33088141563837" x2="178.70328620479359" y1="141.23008692659167" y2="143.65538615756765" /><path d="M 175.20536237346943 141.71514677278685 a86.0,86.0 0 0,1 -30.301960400862466,31.631185727798858" fill="none" id="id53" stroke="none" /><text fill="#e1ed5e" style="font-size:6.75px; font-family:Arial;" text-anchor="middle"><textPath startOffset="22.145653131862474" xlink:href="#id53">May</textPath></text><path d="M 118.18653347947321 110.5 l 21.121044204774613 12.194240557192602 a45.388481114385215,45.388481114385215 0 0,0 -0.3953688787190333,0.6714227919578124 l -20.908601615925814 -12.555014517443963" fill="#ffda14" stroke="none" /><path d="M 117.81537515405839 111.11811171558189 l 20.841759536931793 13.006799400916089 a45.56737208679346,45.56737208679346 0 0,0 -0.41983239704260894,0.6600462604586361 l -20.615409448263296 -13.362659336053397" fill="#ffdc14" stroke="none" /><path d="M 117.62189284568427 111.42229804090321 l 28.83527290148153 18.690675516856633 a55.3629788373962,55.3629788373962 0 0,0 -0.5237748039780773,0.7930618109227388 l -28.510173658582726 -19.182917206118432" fill="#99ff23" stroke="none" /><path d="M 117.21940702142032 112.02048342749411 l 19.92472077082673 13.909002529833643 a45.29927672113581,45.29927672113581 0 0,0 -0.4505873787885001,0.6338075768694157 l -19.68301829350827 -14.248987333412561" fill="#ffd814" stroke="none" /><path d="M 116.79662413953412 112.60449989151573 l 19.552759189302368 14.672755015117627 a45.4458612376105,45.4458612376105 0 0,0 -0.4736065175848439,0.6199661344920224 l -19.298000694363218 -15.006242062850527" fill="#ffdb14" stroke="none" /><path d="M 116.57777611688842 112.89097897827486 l 19.16858098873216 14.905604516963724 a45.281918028395395,45.281918028395395 0 0,0 -0.4824326260899582,0.6095378632341687 l -18.90988193200064 -15.232462324112577" fill="#ffd814" stroke="none" /><path d="M 116.35404254752997 113.17365903436017 l 19.42658230807659 15.64867957177886 a45.94540583980712,45.94540583980712 0 0,0 -0.5000461260028597,0.6099749673607127 l -19.155089362835103 -15.979856820838066" fill="#ffe215" stroke="none" /><path d="M 116.1254893667686 113.45245675266167 l 26.223004096804246 21.876162671013542 a55.14985266541656,55.14985266541656 0 0,0 -0.6127028785058731,0.721762450260444 l -25.84360665479126 -22.323091903723544" fill="#9bff22" stroke="none" /><path d="M 115.6541949942343 113.99807769240083 l 25.50979004865798 22.811011562681397 a55.22121618001608,55.22121618001608 0 0,0 -0.6379425717894993,0.7012106374865243 l -25.114449776026603 -23.245559775725592" fill="#9bff22" stroke="none" /><path d="M 115.16444852881244 114.52719865689866 l 25.040751913009274 23.988473887938248 a55.676881864452184,55.676881864452184 0 0,0 -0.6670970641839727,0.6845003558965183 l -24.625268047674496 -24.414796935902505" fill="#95ff23" stroke="none" /><path d="M 114.91283532996324 114.78537596483092 l 24.736211187552218 24.524791849513278 a55.83311009911599,55.83311009911599 0 0,0 -0.6806536814117596,0.6748361635361725 l -24.311565586010495 -24.94580802327811" fill="#93ff23" stroke="none" /><path d="M 114.65682725009322 115.03919595460226 l 23.889209345555855 24.512433313017674 a55.22796678274846,55.22796678274846 0 0,0 -0.6846361572983821,0.65586595159542 l -23.464900702392164 -24.918911394918673" fill="#9aff22" stroke="none" /><path d="M 114.39649973595853 115.28858382429668 l 26.837288065437942 28.50026990799834 a60.147227431020625,60.147227431020625 0 0,0 -0.7577697960121881,0.7013804103426997 l -26.344088498111788 -28.956768064473422" fill="#5cff2a" stroke="none" /><path d="M 113.86319453409587 115.77377054828091 l 25.90265030846544 29.472461167099862 a60.23739619608893,60.23739619608893 0 0,0 -0.7825713222832366,0.6759664694598025 l -25.392899506419347 -29.91277176902438" fill="#5bff2a" stroke="none" /><path d="M 113.31354834802062 116.24036423190432 l 15.548895714064999 18.967124556080858 a45.52590409858023,45.52590409858023 0 0,0 -0.608636309740812,0.490274328023419 l -15.221008633968935 -19.23124717789768" fill="#ffdc14" stroke="none" /><path d="M 113.03279911837588 116.46651593811092 l 15.107293957952338 19.087572399516095 a45.34267345298687,45.34267345298687 0 0,0 -0.6144797118272471,0.4778231405641797 l -14.777404301489861 -19.344096591701067" fill="#ffd914" stroke="none" /><path d="M 112.7482090630111 116.68781488649013 l 24.260479476899242 31.757746407114656 a60.96405036163944,60.96405036163944 0 0,0 -0.8370857955082022,0.6281647866274822 l -23.711740692480273 -32.169530221006156" fill="#52ff2b" stroke="none" /><path d="M 112.45986205192187 116.90419585922612 l 20.227118141661514 27.44197048968227 a55.0910259844629,55.0910259844629 0 0,0 -0.7660774164497304,0.554580971303868 l -19.753059714837814 -27.785152232359213" fill="#9cff22" stroke="none" /><path d="M 111.8722381534696 117.32195027204791 l 22.003281346954626 32.10344506123653 a59.92011786766676,59.92011786766676 0 0,0 -0.8534442700897239,0.5742353929239835 l -21.4489407887679 -32.476430128217636" fill="#5fff29" stroke="none" /><path d="M 111.27062007382361 117.71928675628689 l 18.667366156791374 29.348200165581087 a55.78199839271363,55.78199839271363 0 0,0 -0.8123874322041094,0.5069898416100646 l -18.160814595797547 -29.6643258040327" fill="#93ff23" stroke="none" /><path d="M 110.96478420261333 117.91015095944535 l 20.72680320533492 33.8556753561815 a60.69643718189124,60.69643718189124 0 0,0 -0.8932990726948494,0.5364004265861823 l -20.142571376082635 -34.2064897833036" fill="#56ff2b" stroke="none" /><line stroke="#e1ed5e" stroke-width="0.3" x1="143.1302829299769" x2="145.66735839644613" y1="173.24464959558577" y2="177.55315839532614" /><path d="M 143.63769802327073 174.10635135553383 a86.0,86.0 0 0,1 -40.68552437913181,11.842963189579606" fill="none" id="id54" stroke="none" /><text fill="#e1ed5e" style="font-size:6.75px; font-family:Arial;" text-anchor="middle"><textPath startOffset="21.407464694133747" xlink:href="#id54">June</textPath></text><path d="M 110.65571695917076 118.09573695890943 l 17.278238320914163 29.342226052609348 a55.05148673988749,55.05148673988749 0 0,0 -0.8184518483655364,0.47253339497259106 l -16.771994004688228 -29.63450634485811" fill="#9dff22" stroke="none" /><path d="M 110.34350942703117 118.27599006163325 l 23.89342365153364 42.21739016862466 a69.50983123493168,69.50983123493168 0 0,0 -1.0434942036714883,0.5788086446088908 l -23.16518525970606 -42.621331728666696" fill="#38ff7d" stroke="none" /><path d="M 110.02825361518725 118.45085714620011 l 18.094836372795726 33.292460862048664 a58.89209750870613,58.89209750870613 0 0,0 -0.892386861383768,0.47514573979699853 l -17.520660695625402 -33.59817706956823" fill="#6cff28" stroke="none" /><path d="M 109.71004243097381 118.62028667847754 l 17.92554616624609 34.3745983456338 a59.7677471202786,59.7677471202786 0 0,0 -0.9137998390394233,0.4665927088951627 l -17.332819105493083 -34.6772490062018" fill="#61ff29" stroke="none" /><path d="M 109.06512990194946 118.94263497670748 l 17.245151219006118 36.035733430527536 a60.94958478435575,60.94958478435575 0 0,0 -0.9476536817589367,0.44354977290269115 l -16.624008823375675 -36.326459435000764" fill="#53ff2b" stroke="none" /><path d="M 108.73861861582097 119.09545874513695 l 14.11829830465755 30.85102974285113 a54.92804714706671,54.92804714706671 0 0,0 -0.8607659106387557,0.385009643328339 l -13.586618991163169 -31.088843137089317" fill="#9eff22" stroke="none" /><path d="M 108.4095320186766 119.2426549942271 l 25.228596056029783 57.7279649826813 a84.0,84.0 0 0,0 -1.3262596993182754,0.5661014013623844 l -24.233901281541076 -58.15254103370309" fill="#4dd2ff" stroke="none" /><path d="M 108.07796709384702 119.3841803445677 l 24.20645022808221 58.08666849860694 a83.92863648540049,83.92863648540049 0 0,0 -1.334647320603271,0.542789446316268 l -23.2057484462885 -58.493645201502495" fill="#4dd3ff" stroke="none" /><path d="M 107.74402155503746 119.51999308798841 l 13.032751747957699 32.851048028413224 a56.34181623359228,56.34181623359228 0 0,0 -0.9020800666298129,0.3489439486593797 l -12.466899418834355 -33.06993186521065" fill="#8cff24" stroke="none" /><path d="M 107.407793817531 119.65005319985036 l 13.925439053413859 36.93888153086562 a60.476560407179214,60.476560407179214 0 0,0 -0.9745678148778072,0.35787480079394784 l -13.289282086881926 -37.17248718066829" fill="#58ff2a" stroke="none" /><line stroke="#e1ed5e" stroke-width="0.3" x1="101.45913802915013" x2="101.54496967792366" y1="184.9874750549273" y2="189.98673829345242" /><path d="M 101.47630435890484 185.9873277026323 a86.0,86.0 0 0,1 -42.54439059252881,-10.42667462771756" fill="none" id="id55" stroke="none" /><text fill="#e1ed5e" style="font-size:6.75px; font-family:Arial;" text-anchor="middle"><textPath startOffset="22.145653131862474" xlink:href="#id55">July</textPath></text><line stroke="#e1ed5e" stroke-width="0.3" x1="58.13341422392154" x2="55.67067388415222" y1="173.97424548756322" y2="178.32567169271397" /><path d="M 57.64086615596768 174.84453072859336 a86.0,86.0 0 0,1 -31.369924170532247,-30.572349798747897" fill="none" id="id56" stroke="none" /><text fill="#e1ed5e" style="font-size:6.75px; font-family:Arial;" text-anchor="middle"><textPath startOffset="22.145653131862474" xlink:href="#id56">August</textPath></text><line stroke="#e1ed5e" stroke-width="0.3" x1="26.387840678322732" x2="22.057713659400548" y1="142.50000000000003" y2="145.00000000000006" /><path d="M 25.521815274538298 143.00000000000003 a86.0,86.0 0 0,1 -11.493303480769221,-40.785679425670985" fill="none" id="id57" stroke="none" /><text fill="#e1ed5e" style="font-size:6.75px; font-family:Arial;" text-anchor="middle"><textPath startOffset="21.40746469413373" xlink:href="#id57">September</textPath></text><line stroke="#e1ed5e" stroke-width="0.3" x1="15.003131293944662" x2="10.003315487706104" y1="100.72959589197737" y2="100.7725132973878" /><path d="M 14.003168132696942 100.73817937305945 a86.0,86.0 0 0,1 10.791469493833604,-42.45332614584628" fill="none" id="id58" stroke="none" /><text fill="#e1ed5e" style="font-size:6.75px; font-family:Arial;" text-anchor="middle"><textPath startOffset="22.145653131862435" xlink:href="#id58">October</textPath></text><line stroke="#e1ed5e" stroke-width="0.3" x1="26.387840678322718" x2="22.05771365940052" y1="57.49999999999999" y2="54.99999999999999" /><path d="M 25.521815274538284 56.99999999999999 a86.0,86.0 0 0,1 29.574782752854787,-30.34633250058573" fill="none" id="id59" stroke="none" /><text fill="#e1ed5e" style="font-size:6.75px; font-family:Arial;" text-anchor="middle"><textPath startOffset="21.40746469413373" xlink:href="#id59">November</textPath></text><line stroke="#e1ed5e" stroke-width="0.3" x1="56.869717070023135" x2="54.33264160355391" y1="26.7553504044142" y2="22.446841604673864" /><path d="M 56.362301976729285 25.89364864446614 a86.0,86.0 0 0,1 42.16139366436587,-11.88097634709845" fill="none" id="id60" stroke="none" /><text fill="#e1ed5e" style="font-size:6.75px; font-family:Arial;" text-anchor="middle"><textPath startOffset="22.145653131862474" xlink:href="#id60">December</textPath></text></svg>