<?xml version="1.0" encoding="utf-8" ?>
<svg baseProfile="full" height="200mm" version="1.1" viewBox="0,0,200,200" width="200mm" xmlns="http://www.w3.org/2000/svg" xmlns:ev="http://www.w3.org/2001/xml-events" xmlns:xlink="http://www.w3.org/1999/xlink"><defs /><rect fill="#1a1a1a" height="200" width="200" x="0" y="0" /><text alignment-baseline="middle" fill="#e1ed5e" style="dominant-baseline: central; font-size:9.0px; font-family:Arial;" text-anchor="middle" x="100.0" y="100.0">2024</text><line stroke="#e1ed5e" stroke-width="0.3" x1="100.0" x2="100.0" y1="15.0" y2="10.0" /><path d="M 100.0 14.0 a86.0,86.0 0 0,1 42.35913384403234,11.155469271406648" fill="none" id="id49" stroke="none" /><text fill="#e1ed5e" style="font-size:6.75px; font-family:Arial;" text-anchor="middle"><textPath startOffset="22.145653131862478" xlink:href="#id49">January</textPath></text><path d="M 100.0 79.0 l 0.0 -18.25657808038656 a39.25657808038656,39.25657808038656 0 0,0 0.673891364369333,0.0057845468729352985 l -0.3133984395204782 18.25388793170806" fill="#ff6409" stroke="none" /><path d="M 100.72087961077811 79.0123766808444 l 1.0290987894975372 -29.961088410948673 a50.97875686360641,50.97875686360641 0 0,0 0.8743445228030636,0.03754811588209687 l -1.5432690729014371 29.939007726640746" fill="#e3ff1b" stroke="none" /><path d="M 101.08105385017728 79.02784411241856 l 1.5495089356694276 -30.060059397347022 a51.09996925104327,51.09996925104327 0 0,0 0.8756482162307346,0.05267682226210261 l -2.065301504032625 30.029030597260228" fill="#e1ff1b" stroke="none" /><path d="M 101.80034050326958 79.07731436759882 l 4.752282075746761 -55.22872130398092 a76.43280474412475,76.43280474412475 0 0,0 1.3062746187797347,0.1237055645270413 l -5.699656257911509 55.13900398394869" fill="#41ffd2" stroke="none" /><path d="M 102.51750503828377 79.15144685158666 l 5.080837183436191 -42.07662048196625 a63.382271030090045,63.382271030090045 0 0,0 1.0790746472469508,0.1397078169131755 l -5.802389652573934 41.98320106885268" fill="#3dff2e" stroke="none" /><path d="M 102.87502721639298 79.19773525538626 l 3.954693707627049 -28.61419363992245 a49.8861849330112,49.8861849330112 0 0,0 0.8472928448865436,0.12452287006675765 l -4.445311658121275 28.54208969655681" fill="#f3ff19" stroke="none" /><path d="M 103.23170211078529 79.25015418208739 l 4.604930628179126 -29.56695798725134 a50.923408741489126,50.923408741489126 0 0,0 0.8626001005034099,0.14194051828000093 l -5.111808231735607 29.483551470475668" fill="#e3ff1b" stroke="none" /><path d="M 103.58742460773223 79.30868818359171 l 3.4190606959860776 -19.720233514424958 a41.01443443883154,41.01443443883154 0 0,0 0.6926854913571919,0.12623037109304544 l -3.757080920894323 19.658634969400545" fill="#ff810b" stroke="none" /><path d="M 103.94208987418118 79.37332000966035 l 2.3655656206112092 -12.377638919922335 a33.60166044366352,33.60166044366352 0 0,0 0.5656335742300228,0.11314255633815179 l -2.577695680372189 12.335206966921325" fill="#ff0100" stroke="none" /><path d="M 104.29559338865022 79.4440306129975 l 5.752717538258593 -27.52883592775853 a49.123487810235005,49.123487810235005 0 0,0 0.8239589825484096,0.17957802526560868 l -6.224438937426137 27.426026444359202" fill="#feff18" stroke="none" /><path d="M 104.9986988182912 79.60360301121754 l 7.135546497627136 -29.115464721531655 a50.977096419942896,50.977096419942896 0 0,0 0.8481489359936545,0.21559614286897308 l -7.634300726846185 28.988683346827415" fill="#e3ff1b" stroke="none" /><path d="M 105.3480935250658 79.69241777938227 l 5.098085129310257 -19.358259620170493 a41.01830880737975,41.01830880737975 0 0,0 0.679377652638618,0.18516740028488507 l -5.429644182883568 19.267891725741467" fill="#ff810b" stroke="none" /><path d="M 105.69591212413111 79.78721728523813 l 8.122848580166558 -28.82512401837036 a50.94776191522074,50.94776191522074 0 0,0 0.83976465135807,0.24444325114917223 l -8.616473243906233 28.681437072918673" fill="#e3ff1b" stroke="none" /><path d="M 106.38641147887787 79.99465700312896 l 9.112776570743755 -28.54564281592622 a50.96491983307709,50.96491983307709 0 0,0 0.8311583914492628,0.2732182721727455 l -9.60145769984076 28.385003622351455" fill="#e3ff1b" stroke="none" /><path d="M 106.72888874123014 80.10723608172694 l 18.159752907015175 -53.686082692962565 a77.67426312321547,77.67426312321547 0 0,0 1.259411345433874,0.4380886415901606 l -19.07867002449407 53.36643561880381" fill="#43ffe2" stroke="none" /><path d="M 107.40779381753099 80.34994680014964 l 10.585807326845053 -28.08011160402425 a51.009198330770914,51.009198330770914 0 0,0 0.8167003498463867,0.3159172400423361 l -11.066279939184964 27.894254475843876" fill="#e2ff1b" stroke="none" /><path d="M 108.07796709384702 80.6158196554323 l 11.555626847853489 -27.729297756602406 a51.04074676037777,51.04074676037777 0 0,0 0.8058724458499893,0.34397902699562993 l -12.029934368873908 27.526844079947377" fill="#e2ff1b" stroke="none" /><path d="M 109.71004243097381 81.37971332152246 l 13.870623932783209 -26.598750301431252 a50.99812870634746,50.99812870634746 0 0,0 0.7727702346817275,0.41145662351145074 l -14.325182983251496 26.356723210197227" fill="#e2ff1b" stroke="none" /><path d="M 110.34350942703115 81.72400993836675 l 14.773066791587567 -26.10259349281546 a50.99314737535691,50.99314737535691 0 0,0 0.7581164141948208,0.4376987158124536 l -15.218975673642785 25.845147879726834" fill="#e2ff1b" stroke="none" /><line stroke="#e1ed5e" stroke-width="0.3" x1="143.13028292997686" x2="145.6673583964461" y1="26.7553504044142" y2="22.446841604673864" /><path d="M 143.63769802327073 25.89364864446614 a86.0,86.0 0 0,1 29.32050498858742,28.57503671076993" fill="none" id="id50" stroke="none" /><text fill="#e1ed5e" style="font-size:6.75px; font-family:Arial;" text-anchor="middle"><textPath startOffset="20.669276256404974" xlink:href="#id50">February</textPath></text><path d="M 114.65682725009322 84.96080404539774 l 8.746967874118885 -8.975159604657827 a33.532475291016915,33.532475291016915 0 0,0 0.4087897434544151,0.40529583501779254 l -8.899749537703263 8.823683759411376" fill="#ff0000" stroke="none" /><path d="M 114.91283532996326 85.21462403516908 l 12.461929021879591 -12.355417448036786 a38.54867559850648,38.54867559850648 0 0,0 0.46187407517808854,0.47392349001792033 l -12.672189898208492 12.139671265951124" fill="#ff5808" stroke="none" /><path d="M 115.16444852881244 85.47280134310134 l 12.612637879826071 -12.082621779461922 a38.466206896551725,38.466206896551725 0 0,0 0.45269993489413346,0.4807516430258081 l -12.818193648456464 11.864328676491619" fill="#ff5608" stroke="none" /><path d="M 115.6541949942343 86.00192230759917 l 22.37205541930228 -20.00522990887966 a51.01196573687678,51.01196573687678 0 0,0 0.5781087357666741,0.6577816193455707 l -22.712175219027547 19.61823601172279" fill="#e2ff1b" stroke="none" /><path d="M 116.7966241395341 87.39550010848427 l 45.44451538114828 -34.10241155801422 a77.81706127827806,77.81706127827806 0 0,0 0.7926148690164453,1.0753342959139822 l -46.02323226974855 33.31727095283136" fill="#44ffe4" stroke="none" /><line stroke="#e1ed5e" stroke-width="0.3" x1="172.87174338648825" x2="177.1583165268699" y1="56.24261187166439" y2="53.66864786411523" /><path d="M 173.72905801456457 55.72781907015455 a86.0,86.0 0 0,1 12.242430191666344,42.057860355516425" fill="none" id="id51" stroke="none" /><text fill="#e1ed5e" style="font-size:6.75px; font-family:Arial;" text-anchor="middle"><textPath startOffset="22.145653131862474" xlink:href="#id51">March</textPath></text><path d="M 118.53625476483649 90.13048839642627 l 15.484958428102546 -8.244868169212547 a38.54314078629475,38.54314078629475 0 0,0 0.3059443126399069,0.5866885597567315 l -15.624210809717399 7.977833366351318" fill="#ff5808" stroke="none" /><path d="M 118.70294669586156 90.45014215332178 l 26.740982710927227 -13.654136309244898 a51.02524928618493,51.02524928618493 0 0,0 0.3916311480161925,0.7835246393379987 l -26.971433772155155 13.193079813743148" fill="#e2ff1b" stroke="none" /><path d="M 119.71291397450082 92.76114493625339 l 28.166303335444027 -10.343056728728254 a51.005323962222704,51.005323962222704 0 0,0 0.2947617829956636,0.8245011677924476 l -28.339705288483632 9.85802060455489" fill="#e2ff1b" stroke="none" /><path d="M 120.16314734710363 94.1308016681162 l 54.60975667566132 -15.89610427716348 a77.87628376894355,77.87628376894355 0 0,0 0.3626124027883358,1.2867834944620857 l -54.87458757052424 14.956312858798382" fill="#44ffe4" stroke="none" /><path d="M 120.35273937422433 94.82641323984039 l 27.012595563395063 -6.866496160281772 a48.87165385460136,48.87165385460136 0 0,0 0.19970464288109402,0.8148630923313339 l -27.126487732792448 6.401777243342342" fill="#fffc17" stroke="none" /><path d="M 120.43855184770803 95.1765574152323 l 27.158808746037227 -6.409404914462554 a48.90486272787173,48.90486272787173 0 0,0 0.18581318393797513,0.818727173264034 l -27.26483279153287 5.942243407259494" fill="#fffd17" stroke="none" /><path d="M 120.51834098615036 95.52812308129327 l 48.06780773698156 -10.476154972613605 a70.19617834394904,70.19617834394904 0 0,0 0.2464965182125624,1.1795750723912086 l -48.24056196601849 9.649463448936993" fill="#38ff80" stroke="none" /><path d="M 120.7213421655516 96.59031103205396 l 55.887275725505674 -9.196229953029334 a77.63884032506041,77.63884032506041 0 0,0 0.2051089053976113,1.3169463078535382 l -56.036906123041554 8.235495463244355" fill="#43ffe1" stroke="none" /><path d="M 120.86939407059847 97.66154086499901 l 27.710961738021105 -3.105071062280243 a48.884383922688336,48.884383922688336 0 0,0 0.08628700747722688,0.8347485240790958 l -27.76018113798 2.6289180159182157" fill="#fffd17" stroke="none" /><path d="M 120.9064616781168 98.02013634271609 l 36.70261820999821 -3.47577610405511 a57.86683066110257,57.86683066110257 0 0,0 0.08516448103323701,0.9897403632640357 l -36.75687631372919 2.845214693415412" fill="#83ff25" stroke="none" /><path d="M 120.98066250479742 99.09900007780936 l 62.94198751439227 -2.7029997665719256 a84.0,84.0 0 0,0 0.049501252012607466,1.4411749417435202 l -62.97911345340172 1.6221185602642854" fill="#4dd2ff" stroke="none" /><line stroke="#e1ed5e" stroke-width="0.3" x1="184.99686870605535" x2="189.99668451229388" y1="99.2704041080226" y2="99.22748670261217" /><path d="M 185.99683186730306 99.26182062694052 a86.0,86.0 0 0,1 -10.086455211305974,41.156179273409016" fill="none" id="id52" stroke="none" /><text fill="#e1ed5e" style="font-size:6.75px; font-family:Arial;" text-anchor="middle"><textPath startOffset="21.40746469413373" xlink:href="#id52">April</textPath></text><path d="M 120.99922638620191 99.81974689727618 l 27.801444493697186 -0.23864196413854605 a48.80246870195475,48.80246870195475 0 0,0 0.0,0.8377901337247424 l -27.801444493697186 -0.23864196413854266" fill="#fffb17" stroke="none" /><path d="M 120.99922638620191 100.18025310272382 l 27.831884839436025 0.23890325789606018 a48.83291016911926,48.83291016911926 0 0,0 -0.014390752610365617,0.8381891939363976 l -27.823682655226992 -0.7166393678015289" fill="#fffc17" stroke="none" /><path d="M 120.99303781780057 100.54070618675476 l 36.88116639985415 0.9499280199563807 a57.893397759718866,57.893397759718866 0 0,0 -0.03411661514726795,0.9932680255202312 l -36.85942509771004 -1.5829023100407227" fill="#83ff25" stroke="none" /><path d="M 120.98066250479742 100.90099992219065 l 28.40448998595904 1.2198110169953913 a49.43066988798594,49.43066988798594 0 0,0 -0.04368355548656543,0.8474493062837344 l -28.3793648410159 -1.7072321166558562" fill="#f9ff18" stroke="none" /><path d="M 120.93736805541906 101.62068470465957 l 28.01808886302109 2.1687772767761127 a49.10190204260927,49.10190204260927 0 0,0 -0.07226485289464066,0.8398271308346413 l -27.97673038742871 -2.649425454986411" fill="#feff18" stroke="none" /><path d="M 120.86939407059847 102.33845913500097 l 28.83304117322482 3.2308024034285463 a50.01348561388096,50.01348561388096 0 0,0 -0.1029275479578219,0.8523877495384826 l -28.773331539007334 -3.725283829890438" fill="#f1ff19" stroke="none" /><path d="M 120.82617615685814 102.69636545807757 l 27.622288497471693 3.5762582634791396 a48.852835493081486,48.852835493081486 0 0,0 -0.11481691968618203,0.8307580348646315 l -27.5568270612303 -4.049904606543856" fill="#fffc17" stroke="none" /><path d="M 120.51834098615036 104.47187691870673 l 54.79519175282282 11.94235700736988 a77.08148473533933,77.08148473533933 0 0,0 -0.2928697741375616,1.2904382629499558 l -54.58211111712759 -12.881229604258854" fill="#42ffdb" stroke="none" /><path d="M 120.43855184770803 104.8234425847677 l 27.1248716821302 6.401395859786334 a48.86999341093784,48.86999341093784 0 0,0 -0.19969785779642377,0.8148354068704969 l -27.01098629781748 -6.86608709126493" fill="#fffc17" stroke="none" /><path d="M 120.35273937422433 105.17358676015961 l 27.052290780975373 6.876586529363741 a48.91261146496816,48.91261146496816 0 0,0 -0.21384248827596328,0.8119947589869638 l -26.930258811894678 -7.339961792723508" fill="#fffd17" stroke="none" /><path d="M 120.16314734710363 105.8691983318838 l 27.679798622128008 8.057185969193924 a49.82862288600923,49.82862288600923 0 0,0 -0.24611467308991603,0.8192357022570318 l -27.537407629034462 -8.531159275041679" fill="#f3ff19" stroke="none" /><path d="M 120.05942366710727 106.21446072829308 l 21.712288455807453 6.726522464912099 a43.73036679112673,43.73036679112673 0 0,0 -0.22830434249095594,0.7151601011479468 l -21.593619397539243 -7.09825159975143" fill="#ffad10" stroke="none" /><path d="M 119.94978838288452 106.5578916946017 l 53.79055351142155 17.68202335535626 a77.62223588842522,77.62223588842522 0 0,0 -0.4269761835838991,1.2622792180699496 l -53.47909190626529 -18.602804247900373" fill="#43ffe1" stroke="none" /><path d="M 119.71291397450082 107.23885506374661 l 26.193020297223402 9.618439864275548 a48.903202284208206,48.903202284208206 0 0,0 -0.29614222827461156,0.7855524443116615 l -26.02404738513435 -10.066660588781367" fill="#fffd17" stroke="none" /><path d="M 119.58574465831526 107.57618678355244 l 25.99823704734611 10.05667659565567 a48.87552822314957,48.87552822314957 0 0,0 -0.30940845160552793,0.7799114186060552 l -25.821769920774457 -10.50148903147529" fill="#fffc17" stroke="none" /><path d="M 119.0197475246899 108.90220220490707 l 21.338878435255875 9.9876725708364 a44.560588622886016,44.560588622886016 0 0,0 -0.3302167555826965,0.690026015275358 l -21.164282421713267 -10.352511088176861" fill="#ffba11" stroke="none" /><path d="M 118.5362547648365 109.86951160357373 l 15.274883588246286 8.133015149501496 a38.30514386119042,38.30514386119042 0 0,0 -0.3140194594932087,0.5777604367186685 l -15.133018779137739 -8.394030419694769" fill="#ff5307" stroke="none" /><line stroke="#e1ed5e" stroke-width="0.3" x1="174.33088141563837" x2="178.70328620479359" y1="141.23008692659167" y2="143.65538615756765" /><path d="M 175.20536237346943 141.71514677278685 a86.0,86.0 0 0,1 -30.301960400862466,31.631185727798858" fill="none" id="id53" stroke="none" /><text fill="#e1ed5e" style="font-size:6.75px; font-family:Arial;" text-anchor="middle"><textPath startOffset="22.145653131862474" xlink:href="#id53">May</textPath></text><path d="M 118.18653347947321 110.5 l 24.243971276739085 13.997263342850859 a48.99452668570173,48.99452668570173 0 0,0 -0.4267803328839819,0.7247663083297027 l -24.000117233725337 -14.411380819474111" fill="#fffe18" stroke="none" /><path d="M 117.81537515405839 111.11811171558189 l 23.923391981531505 14.929965962896478 a49.19986821875686,49.19986821875686 0 0,0 -0.4533001940317663,0.7126631961789164 l -23.663574095873848 -15.338442833754065" fill="#fdff18" stroke="none" /><path d="M 117.62189284568427 111.42229804090321 l 33.09881467993033 21.454251786996736 a60.44383922688338,60.44383922688338 0 0,0 -0.5718435081993545,0.8658439557088234 l -32.72564673281025 -22.01927562104462" fill="#62ff29" stroke="none" /><path d="M 117.21940702142032 112.02048342749411 l 22.870761188775454 15.965567542590945 a48.89213265978475,48.89213265978475 0 0,0 -0.4863251577761538,0.6840772385802281 l -22.59332093246934 -16.355822007880676" fill="#fffd17" stroke="none" /><path d="M 116.79662413953412 112.60449989151573 l 22.44380190536614 16.84224736657319 a49.060390951021304,49.060390951021304 0 0,0 -0.5112747404693233,0.6692750474140052 l -22.15137518754251 -17.225043327228075" fill="#ffff18" stroke="none" /><path d="M 116.57777611688842 112.89097897827486 l 22.002819671274327 17.10952565924793 a48.87220733582254,48.87220733582254 0 0,0 -0.5206834947461538,0.6578665862239791 l -21.705869745886613 -17.484712189386588" fill="#fffc17" stroke="none" /><path d="M 116.35404254752997 113.17365903436017 l 22.298968692833267 17.96247071777524 a49.633797496156376,49.633797496156376 0 0,0 -0.5401886805243992,0.6589423567889264 l -21.987333193070242 -18.34261535626266" fill="#f6ff19" stroke="none" /><line stroke="#e1ed5e" stroke-width="0.3" x1="143.1302829299769" x2="145.66735839644613" y1="173.24464959558577" y2="177.55315839532614" /><path d="M 143.63769802327073 174.10635135553383 a86.0,86.0 0 0,1 -40.68552437913181,11.842963189579606" fill="none" id="id54" stroke="none" /><text fill="#e1ed5e" style="font-size:6.75px; font-family:Arial;" text-anchor="middle"><textPath startOffset="21.407464694133747" xlink:href="#id54">June</textPath></text><line stroke="#e1ed5e" stroke-width="0.3" x1="101.45913802915013" x2="101.54496967792366" y1="184.9874750549273" y2="189.98673829345242" /><path d="M 101.47630435890484 185.9873277026323 a86.0,86.0 0 0,1 -42.54439059252881,-10.42667462771756" fill="none" id="id55" stroke="none" /><text fill="#e1ed5e" style="font-size:6.75px; font-family:Arial;" text-anchor="middle"><textPath startOffset="22.145653131862474" xlink:href="#id55">July</textPath></text><line stroke="#e1ed5e" stroke-width="0.3" x1="58.13341422392154" x2="55.67067388415222" y1="173.97424548756322" y2="178.32567169271397" /><path d="M 57.64086615596768 174.84453072859336 a86.0,86.0 0 0,1 -31.369924170532247,-30.572349798747897" fill="none" id="id56" stroke="none" /><text fill="#e1ed5e" style="font-size:6.75px; font-family:Arial;" text-anchor="middle"><textPath startOffset="22.145653131862474" xlink:href="#id56">August</textPath></text><line stroke="#e1ed5e" stroke-width="0.3" x1="26.387840678322732" x2="22.057713659400548" y1="142.50000000000003" y2="145.00000000000006" /><path d="M 25.521815274538298 143.00000000000003 a86.0,86.0 0 0,1 -11.493303480769221,-40.785679425670985" fill="none" id="id57" stroke="none" /><text fill="#e1ed5e" style="font-size:6.75px; font-family:Arial;" text-anchor="middle"><textPath startOffset="21.40746469413373" xlink:href="#id57">September</textPath></text><line stroke="#e1ed5e" stroke-width="0.3" x1="15.003131293944662" x2="10.003315487706104" y1="100.72959589197737" y2="100.7725132973878" /><path d="M 14.003168132696942 100.73817937305945 a86.0,86.0 0 0,1 10.791469493833604,-42.45332614584628" fill="none" id="id58" stroke="none" /><text fill="#e1ed5e" style="font-size:6.75px; font-family:Arial;" text-anchor="middle"><textPath startOffset="22.145653131862435" xlink:href="#id58">October</textPath></text><line stroke="#e1ed5e" stroke-width="0.3" x1="26.387840678322718" x2="22.05771365940052" y1="57.49999999999999" y2="54.99999999999999" /><path d="M 25.521815274538284 56.99999999999999 a86.0,86.0 0 0,1 29.574782752854787,-30.34633250058573" fill="none" id="id59" stroke="none" /><text fill="#e1ed5e" style="font-size:6.75px; font-family:Arial;" text-anchor="middle"><textPath startOffset="21.40746469413373" xlink:href="#id59">November</textPath></text><line stroke="#e1ed5e" stroke-width="0.3" x1="56.869717070023135" x2="54.33264160355391" y1="26.7553504044142" y2="22.446841604673864" /><path d="M 56.362301976729285 25.89364864446614 a86.0,86.0 0 0,1 42.16139366436587,-11.88097634709845" fill="none" id="id60" stroke="none" /><text fill="#e1ed5e" style="font-size:6.75px; font-family:Arial;" text-anchor="middle"><textPath startOffset="22.145653131862474" xlink:href="#id60">December</textPath></text></svg>