<?xml version="1.0" encoding="utf-8" ?>
<svg baseProfile="full" height="200mm" version="1.1" viewBox="0,0,200,200" width="200mm" xmlns="http://www.w3.org/2000/svg" xmlns:ev="http://www.w3.org/2001/xml-events" xmlns:xlink="http://www.w3.org/1999/xlink"><defs /><rect fill="#1a1a1a" height="200" width="200" x="0" y="0" /><text alignment-baseline="middle" fill="#e1ed5e" style="dominant-baseline: central; font-size:9.0px; font-family:Arial;" text-anchor="middle" x="100.0" y="100.0">2024</text><line stroke="#e1ed5e" stroke-width="0.3" x1="100.0" x2="100.0" y1="15.0" y2="10.0" /><path d="M 100.0 14.0 a86.0,86.0 0 0,1 42.35913384403234,11.155469271406648" fill="none" id="id49" stroke="none" /><text fill="#e1ed5e" style="font-size:6.75px; font-family:Arial;" text-anchor="middle"><textPath startOffset="22.145653131862478" xlink:href="#id49">January</textPath></text><path d="M 100.0 79.0 l 0.0 -6.846111524751432 a27.846111524751432,27.846111524751432 0 0,0 0.47801553282024034,0.004103188439248761 l -0.11752260797138556 6.845102734506618" fill="#ff4506" stroke="none" /><path d="M 100.72087961077811 79.0123766808444 l 0.3859061129563916 -11.23523541822188 a32.24186098610388,32.24186098610388 0 0,0 0.5529851313087398,0.023747560886973013 l -0.5787170048659677 11.226955288909076" fill="#ff820c" stroke="none" /><path d="M 101.08105385017728 79.02784411241856 l 0.5810569174290289 -11.272348967519797 a32.28731493256198,32.28731493256198 0 0,0 0.5532748872838245,0.03328364331625063 l -0.7744761568453157 11.260713346378854" fill="#ff830c" stroke="none" /><path d="M 101.80034050326958 79.07731436759882 l 1.7820783798795374 -20.71045207659544 a41.786982190038806,41.786982190038806 0 0,0 0.7141602929917912,0.06763172225597967 l -2.137338236256342 20.676808598834278" fill="#fffe18" stroke="none" /><path d="M 102.51750503828377 79.15144685158666 l 1.9052846510309236 -15.778490094682738 a36.8931072880496,36.8931072880496 0 0,0 0.6281001940400095,0.08132014512244358 l -2.175862666961725 15.743458353359896" fill="#ffc011" stroke="none" /><path d="M 102.87502721639298 79.19773525538626 l 1.4829873402033649 -10.730157644394355 a31.83215281118015,31.83215281118015 0 0,0 0.5406537972479909,0.07945748975942983 l -1.6669662430590377 10.703119081336043" fill="#ff7c0b" stroke="none" /><path d="M 103.23170211078529 79.25015418208739 l 1.7268224365729794 -11.08743878163157 a32.22110575941068,32.22110575941068 0 0,0 0.5457986759585075,0.08981096442821779 l -1.9168986155845575 11.056161818707684" fill="#ff820b" stroke="none" /><path d="M 103.58742460773223 79.30868818359171 l 1.2821280489448281 -7.394973874043515 a28.505297524527407,28.505297524527407 0 0,0 0.48142090198776205,0.08773092531618666 l -1.4088836844836439 7.3718747747959625" fill="#ff4e07" stroke="none" /><path d="M 103.94208987418118 79.37332000966035 l 0.8870734694373386 -4.641543233664845 a25.72555001350737,25.72555001350737 0 0,0 0.43305106387733305,0.08662234107785229 l -0.9666210188456286 4.625631495924134" fill="#ff2603" stroke="none" /><path d="M 104.29559338865022 79.4440306129975 l 2.1572359104701366 -10.323154759789926 a31.546145787347875,31.546145787347875 0 0,0 0.5291303884340904,0.11532150540932509 l -2.334128715523361 10.284601796246882" fill="#ff780b" stroke="none" /><path d="M 104.9986988182912 79.60360301121754 l 2.675788797753193 -10.918131409999212 a32.24123832930309,32.24123832930309 0 0,0 0.5364246672436679,0.13635705274099694 l -2.8628187582222555 10.870589125422947" fill="#ff820c" stroke="none" /><path d="M 105.3480935250658 79.69241777938227 l 1.9117525312934134 -7.259235750600935 a28.506750390395933,28.506750390395933 0 0,0 0.4721513326043768,0.12868694526503904 l -2.036085264832483 7.225348311191754" fill="#ff4e07" stroke="none" /><path d="M 105.69591212413111 79.78721728523813 l 3.0460213865725505 -10.809255320226816 a32.230238059155695,32.230238059155695 0 0,0 0.5312463906063853,0.15463808183766556 l -3.2311277895605404 10.755373544086634" fill="#ff820c" stroke="none" /><path d="M 106.38641147887787 79.99465700312896 l 3.4172386757668174 -10.70445148061463 a32.236672179430585,32.236672179430585 0 0,0 0.5257298683504082,0.17281785004882766 l -3.600491281764968 10.64421270916378" fill="#ff820c" stroke="none" /><path d="M 106.72888874123014 80.10723608172694 l 6.809802642967282 -20.131971491300806 a42.25252192476725,42.25252192476725 0 0,0 0.6850828491392649,0.23830737736663954 l -7.154391264151565 20.01210568136558" fill="#faff18" stroke="none" /><path d="M 107.40779381753099 80.34994680014964 l 3.969616716780561 -10.52987996009745 a32.25327636078514,32.25327636078514 0 0,0 0.5164021970456111,0.1997554633999277 l -4.149791176319698 10.460184608559484" fill="#ff820c" stroke="none" /><path d="M 108.07796709384702 80.6158196554323 l 4.333293445818723 -10.39832678987563 a32.265106840000264,32.265106840000264 0 0,0 0.5094275106677492,0.21744431187180363 l -4.511156031656902 10.322407828344426" fill="#ff820c" stroke="none" /><path d="M 109.71004243097381 81.37971332152246 l 5.201404005920342 -9.974378012177757 a32.2491253154465,32.2491253154465 0 0,0 0.488668207451232,0.26018829612153455 l -5.371861029158133 9.88361924833365" fill="#ff820c" stroke="none" /><path d="M 110.34350942703115 81.72400993836675 l 5.539814875081388 -9.788322069459898 a32.24725734504411,32.24725734504411 0 0,0 0.47942079209366173,0.2767937233703792 l -5.707028135035447 9.691781448813348" fill="#ff820c" stroke="none" /><line stroke="#e1ed5e" stroke-width="0.3" x1="143.13028292997686" x2="145.6673583964461" y1="26.7553504044142" y2="22.446841604673864" /><path d="M 143.63769802327073 25.89364864446614 a86.0,86.0 0 0,1 29.32050498858742,28.57503671076993" fill="none" id="id50" stroke="none" /><text fill="#e1ed5e" style="font-size:6.75px; font-family:Arial;" text-anchor="middle"><textPath startOffset="20.669276256404974" xlink:href="#id50">February</textPath></text><path d="M 114.65682725009322 84.96080404539774 l 3.2800625235442755 -3.365633106893296 a25.699605980140873,25.699605980140873 0 0,0 0.3133003228758285,0.31062255842889713 l -3.3373547665500665 3.308830538235739" fill="#ff2603" stroke="none" /><path d="M 114.91283532996326 85.21462403516908 l 4.6731515359376585 -4.633210309822124 a27.580652175345428,27.580652175345428 0 0,0 0.3304598152469278,0.3390808823641266 l -4.751998152335398 4.552306735390255" fill="#ff4106" stroke="none" /><path d="M 115.16444852881244 85.47280134310134 l 4.7296664887796664 -4.530913506866531 a27.54972688757256,27.54972688757256 0 0,0 0.3242263944010887,0.34431719513524717 l -4.806748716917015 4.449054851786789" fill="#ff4006" stroke="none" /><path d="M 115.6541949942343 86.00192230759917 l 8.389391799715629 -7.501845878862705 a32.2543141221198,32.2543141221198 0 0,0 0.3655319000318433,0.4159082024708433 l -8.516934763706063 7.356725398580563" fill="#ff820c" stroke="none" /><path d="M 116.7966241395341 87.39550010848427 l 17.041431264814296 -12.788207722232366 a42.306070409635694,42.306070409635694 0 0,0 0.4309134771412164,0.5846168910715723 l -17.25844676153934 12.493784521891918" fill="#f9ff18" stroke="none" /><line stroke="#e1ed5e" stroke-width="0.3" x1="172.87174338648825" x2="177.1583165268699" y1="56.24261187166439" y2="53.66864786411523" /><path d="M 173.72905801456457 55.72781907015455 a86.0,86.0 0 0,1 12.242430191666344,42.057860355516425" fill="none" id="id51" stroke="none" /><text fill="#e1ed5e" style="font-size:6.75px; font-family:Arial;" text-anchor="middle"><textPath startOffset="22.145653131862474" xlink:href="#id51">March</textPath></text><path d="M 118.53625476483649 90.13048839642627 l 5.806770134476646 -3.091778028980286 a27.578576652676105,27.578576652676105 0 0,0 0.21891077129319472,0.4197902684218328 l -5.858988974744785 2.991641517453955" fill="#ff4106" stroke="none" /><path d="M 118.70294669586156 90.45014215332178 l 10.027714345720444 -5.120222395218393 a32.25929537652617,32.25929537652617 0 0,0 0.24759790611984284,0.4953616715016048 l -10.114132165052023 4.947328867553038" fill="#ff820c" stroke="none" /><path d="M 119.71291397450082 92.76114493625339 l 10.562201362455166 -3.878586642026677 a32.251823494916614,32.251823494916614 0 0,0 0.18638456262456365,0.5213507937855638 l -10.627226095123673 3.6967008918601962" fill="#ff820c" stroke="none" /><path d="M 120.16314734710363 94.1308016681162 l 20.478343909517594 -5.960947457478581 a42.32827850219742,42.32827850219742 0 0,0 0.19709156665866265,0.69940843976614 l -20.57765396825084 5.608531093809428" fill="#f9ff18" stroke="none" /><path d="M 120.35273937422433 94.82641323984039 l 10.129567599455234 -2.574896472415554 a31.451709505893824,31.451709505893824 0 0,0 0.12852138038056313,0.5244110899812826 l -10.172276506352087 2.4006295578261767" fill="#ff770b" stroke="none" /><path d="M 120.43855184770803 95.1765574152323 l 10.184396699977228 -2.4034898905201336 a31.464162641909745,31.464162641909745 0 0,0 0.1195475442384494,0.526748537916848 l -10.224155105773344 2.2283070186642595" fill="#ff770b" stroke="none" /><path d="M 120.51834098615036 95.52812308129327 l 18.025150774077467 -3.9284977161269548 a39.44828324624923,39.44828324624923 0 0,0 0.13852412907748557,0.6628881039349979 l -18.089932613979318 3.6184931609065525" fill="#ffe115" stroke="none" /><path d="M 120.7213421655516 96.59031103205396 l 20.957406187876582 -3.4485332129867228 a42.2392385796836,42.2392385796836 0 0,0 0.11158904426746041,0.716481712776224 l -21.01351672428231 3.0882633182790573" fill="#faff18" stroke="none" /><path d="M 120.86939407059847 97.66154086499901 l 10.391450888621039 -1.16438374656237 a31.456483208033262,31.456483208033262 0 0,0 0.055524598736306614,0.5371501249182683 l -10.409907879839011 0.9858290993611705" fill="#ff770b" stroke="none" /><path d="M 120.9064616781168 98.02013634271609 l 13.763270225649 -1.3033959999870623 a34.8248489480724,34.8248489480724 0 0,0 0.05125285338491953,0.5956358462128297 l -13.783616701731662 1.0669391063985707" fill="#ffa50f" stroke="none" /><path d="M 120.98066250479742 99.09900007780936 l 23.60288243589172 -1.0136093287497758 a44.62463678353287,44.62463678353287 0 0,0 0.026297326088008735,0.7656179561527825 l -23.616804448976573 0.6082851080328734" fill="#ddff1b" stroke="none" /><line stroke="#e1ed5e" stroke-width="0.3" x1="184.99686870605535" x2="189.99668451229388" y1="99.2704041080226" y2="99.22748670261217" /><path d="M 185.99683186730306 99.26182062694052 a86.0,86.0 0 0,1 -10.086455211305974,41.156179273409016" fill="none" id="id52" stroke="none" /><text fill="#e1ed5e" style="font-size:6.75px; font-family:Arial;" text-anchor="middle"><textPath startOffset="21.40746469413373" xlink:href="#id52">April</textPath></text><path d="M 120.99922638620191 99.81974689727618 l 10.42538140033565 -0.08948936069971472 a31.425765472527328,31.425765472527328 0 0,0 0.0,0.5394849268470819 l -10.42538140033565 -0.08948936069971346" fill="#ff770a" stroke="none" /><path d="M 120.99922638620191 100.18025310272382 l 10.43679635448875 0.08958734435233498 a31.437180847208587,31.437180847208587 0 0,0 -0.009264340191332538,0.5396013709340185 l -10.433720582698749 -0.2687356312554245" fill="#ff770a" stroke="none" /><path d="M 120.99303781780057 100.54070618675476 l 13.830224767453824 0.3562175308249215 a34.834811456885134,34.834811456885134 0 0,0 -0.02052817596118169,0.5976554449050504 l -13.822071904495797 -0.5935792402940826" fill="#ffa50f" stroke="none" /><path d="M 120.98066250479742 100.90099992219065 l 10.651519983171093 0.45742209874711043 a31.661337295495127,31.661337295495127 0 0,0 -0.027980195042082174,0.5428083088472163 l -10.64209819867244 -0.6402022009710574" fill="#ff7a0b" stroke="none" /><path d="M 120.93736805541906 101.62068470465957 l 10.506621789803505 0.813278975051035 a31.53805124893753,31.53805124893753 0 0,0 -0.04641556720369764,0.5394192483526773 l -10.491112599902067 -0.9935192707793696" fill="#ff780b" stroke="none" /><path d="M 120.86939407059847 102.33845913500097 l 10.81222420765214 1.2115322746089594 a31.879889832574506,31.879889832574506 0 0,0 -0.06560868232550622,0.5433340071458834 l -10.789833439066971 -1.3969599586782515" fill="#ff7d0b" stroke="none" /><path d="M 120.82617615685814 102.69636545807757 l 10.358198934646456 1.3410762304571855 a31.44465272881814,31.44465272881814 0 0,0 -0.0739031446278261,0.5347263397166219 l -10.33365127346342 -1.5186908783738924" fill="#ff770b" stroke="none" /><path d="M 120.51834098615036 104.47187691870673 l 20.547880994356742 4.4783150260062214 a42.03023344688309,42.03023344688309 0 0,0 -0.15969314834557394,0.7036374769739077 l -20.467976984453504 -4.830386836919146" fill="#fdff18" stroke="none" /><path d="M 120.43855184770803 104.8234425847677 l 10.171670496670831 2.4004865411914804 a31.45108684909303,31.45108684909303 0 0,0 -0.1285188360129272,0.524400708093082 l -10.128964134141608 -2.574743073892662" fill="#ff770b" stroke="none" /><path d="M 120.35273937422433 105.17358676015961 l 10.144453077191397 2.5786803026468776 a31.467068373646796,31.467068373646796 0 0,0 -0.13757180404464592,0.522382547870822 l -10.098691792342022 -2.752443354890503" fill="#ff770b" stroke="none" /><path d="M 120.16314734710363 105.8691983318838 l 10.379764899827109 3.0213982860251387 a31.810567375419225,31.810567375419225 0 0,0 -0.15711948147385532,0.522999653484571 l -10.326369098349623 -3.199135543100433" fill="#ff7c0b" stroke="none" /><path d="M 120.05942366710727 106.21446072829308 l 8.141982992186428 2.522407143647978 a29.523756498362644,29.523756498362644 0 0,0 -0.15413549690576703,0.482827248728237 l -8.097482779503405 -2.6618034260675985" fill="#ff5c08" stroke="none" /><path d="M 119.94978838288452 106.5578916946017 l 20.171147445913057 6.630656815368838 a42.23301201167564,42.23301201167564 0 0,0 -0.23231088467895036,0.6867858516142809 l -20.05435113966174 -6.9759443414572795" fill="#faff18" stroke="none" /><path d="M 119.71291397450082 107.23885506374661 l 9.82223159977154 3.6068594955200473 a31.463539985108945,31.463539985108945 0 0,0 -0.19053318403253855,0.5054119073503166 l -9.75886773192456 -3.7749396830645225" fill="#ff770b" stroke="none" /><path d="M 119.58574465831526 107.57618678355244 l 9.74918900405936 3.7711957432035077 a31.453162371762346,31.453162371762346 0 0,0 -0.19911548010512964,0.5019010817235315 l -9.683014848988105 -3.937997842140603" fill="#ff770b" stroke="none" /><path d="M 119.0197475246899 108.90220220490707 l 8.001956387315593 3.745319631727999 a29.83508489876062,29.83508489876062 0 0,0 -0.22109324051305487,0.46199983851919907 l -7.936483888842625 -3.8821319723123016" fill="#ff6108" stroke="none" /><path d="M 118.5362547648365 109.86951160357373 l 5.727993280683583 3.0498337914594145 a27.489329177895353,27.489329177895353 0 0,0 -0.22535313590140174,0.41462438800590046 l -5.674794795166842 -3.1477130129399185" fill="#ff4006" stroke="none" /><line stroke="#e1ed5e" stroke-width="0.3" x1="174.33088141563837" x2="178.70328620479359" y1="141.23008692659167" y2="143.65538615756765" /><path d="M 175.20536237346943 141.71514677278685 a86.0,86.0 0 0,1 -30.301960400862466,31.631185727798858" fill="none" id="id53" stroke="none" /><text fill="#e1ed5e" style="font-size:6.75px; font-family:Arial;" text-anchor="middle"><textPath startOffset="22.145653131862474" xlink:href="#id53">May</textPath></text><path d="M 118.18653347947321 110.5 l 9.091349454021659 5.248893054576359 a31.497786109152724,31.497786109152724 0 0,0 -0.2743701500987391,0.4659404979118076 l -8.999905593793155 -5.404184720781717" fill="#ff780b" stroke="none" /><path d="M 117.81537515405839 111.11811171558189 l 8.971134066567691 5.598651159745046 a31.57478800018449,31.57478800018449 0 0,0 -0.2909125175570879,0.4573627968845755 l -8.873703857384713 -5.751827631308293" fill="#ff790b" stroke="none" /><path d="M 117.62189284568427 111.42229804090321 l 12.411864679028884 8.045220729051728 a35.79121230290771,35.79121230290771 0 0,0 -0.33861138980893235,0.5127008018739616 l -12.271928850299226 -8.25710140926475" fill="#ffb210" stroke="none" /><path d="M 117.21940702142032 112.02048342749411 l 8.576403588059375 5.9869957815344845 a31.459388939770307,31.459388939770307 0 0,0 -0.3129233980472174,0.4401659478241747 l -8.472365091482196 -6.1333389560681635" fill="#ff770b" stroke="none" /><path d="M 116.79662413953412 112.60449989151573 l 8.416296318346635 6.315745661169916 a31.522484828917634,31.522484828917634 0 0,0 -0.3285063558898839,0.4300253650555535 l -8.306637985102448 -6.459291939466347" fill="#ff780b" stroke="none" /><path d="M 116.57777611688842 112.89097897827486 l 8.25093052297505 6.41597347997251 a31.45191705816076,31.45191705816076 0 0,0 -0.33508807936132673,0.423372841809125 l -8.139576012972162 -6.556666265696317" fill="#ff770b" stroke="none" /><path d="M 116.35404254752997 113.17365903436017 l 8.361984698659631 6.73582295940135 a31.737508977459164,31.737508977459164 0 0,0 -0.34541469648766215,0.42134976607091496 l -8.245123182933341 -6.878375007170758" fill="#ff7b0b" stroke="none" /><path d="M 116.1254893667686 113.45245675266167 l 11.287438805908844 9.416382903561578 a35.699474200923774,35.699474200923774 0 0,0 -0.3966134005244298,0.4672095885475677 l -11.1241308418773 -9.608759274558702" fill="#ffb010" stroke="none" /><path d="M 115.6541949942343 113.99807769240083 l 10.980442708350875 9.818779578577105 a35.730191936429705,35.730191936429705 0 0,0 -0.4127727006256558,0.45370950512181296 l -10.81027230688334 -10.00582665925659" fill="#ffb110" stroke="none" /><path d="M 115.16444852881244 114.52719865689866 l 10.778549773650177 10.325606862496862 a35.92632882868043,35.92632882868043 0 0,0 -0.43045421521391714,0.44168394575609304 l -10.599708757285454 -10.509113500320693" fill="#ffb310" stroke="none" /><path d="M 114.91283532996324 114.78537596483092 l 10.647463160163259 10.556459748361513 a35.99357576316639,35.99357576316639 0 0,0 -0.4387926770849935,0.43504233485908483 l -10.4646785629483 -10.73768209344926" fill="#ffb410" stroke="none" /><path d="M 114.65682725009322 115.03919595460226 l 10.28287939909863 10.551140135707303 a35.73309766816675,35.73309766816675 0 0,0 -0.4429670708707554,0.4243524335736546 l -10.10023984236256 -10.726104699586537" fill="#ffb110" stroke="none" /><path d="M 114.39649973595853 115.28858382429668 l 11.551851406380075 12.267665876527895 a37.85054589540684,37.85054589540684 0 0,0 -0.47686321825899836,0.4413774756660493 l -11.33955841680711 -12.464161098326324" fill="#ffcc13" stroke="none" /><path d="M 113.86319453409587 115.77377054828091 l 11.149545612254652 12.686136212887458 a37.88935816932312,37.88935816932312 0 0,0 -0.4922378289145824,0.4251833128450893 l -10.930128303577213 -12.875663658197265" fill="#ffcd13" stroke="none" /><path d="M 113.31354834802062 116.24036423190432 l 6.692871961735144 8.164215547558276 a31.556938505228338,31.556938505228338 0 0,0 -0.4218850559661678,0.33984073741019183 l -6.551736135413724 -8.277904578761872" fill="#ff790b" stroke="none" /><path d="M 113.03279911837588 116.46651593811092 l 6.502788751577276 8.216061158269394 a31.478068643794188,31.478068643794188 0 0,0 -0.4265878713387332,0.3317173089466733 l -6.360790935603312 -8.32647951883686" fill="#ff770b" stroke="none" /><path d="M 112.7482090630111 116.68781488649013 l 10.442689040760204 13.669815169176728 a38.202139435589615,38.202139435589615 0 0,0 -0.5245463201650671,0.3936293376985056 l -10.20648973168437 -13.847063534139247" fill="#ffd113" stroke="none" /><path d="M 112.45986205192187 116.90419585922612 l 8.706567615253396 11.812131114817378 a35.674152824358075,35.674152824358075 0 0,0 -0.4960728601682717,0.35911849471372675 l -8.502513744711157 -11.959850380904182" fill="#ffb010" stroke="none" /><path d="M 111.8722381534696 117.32195027204791 l 9.471099909686286 13.818617815482273 a37.75278877768187,37.75278877768187 0 0,0 -0.5377142503854497,0.3617981450838636 l -9.232489371203833 -13.979165634623259" fill="#ffcb12" stroke="none" /><path d="M 111.27062007382361 117.71928675628689 l 8.035187440174136 12.63264926511342 a35.9715752228716,35.9715752228716 0 0,0 -0.5238760974806306,0.3269374305365578 l -7.81714721390379 -12.768722492491525" fill="#ffb410" stroke="none" /><path d="M 110.96478420261333 117.91015095944535 l 8.92165222408079 14.57284841984165 a38.08694792744237,38.08694792744237 0 0,0 -0.5605441908130984,0.3365906808405063 l -8.670175276710253 -14.72385310121808" fill="#ffd013" stroke="none" /><line stroke="#e1ed5e" stroke-width="0.3" x1="143.1302829299769" x2="145.66735839644613" y1="173.24464959558577" y2="177.55315839532614" /><path d="M 143.63769802327073 174.10635135553383 a86.0,86.0 0 0,1 -40.68552437913181,11.842963189579606" fill="none" id="id54" stroke="none" /><text fill="#e1ed5e" style="font-size:6.75px; font-family:Arial;" text-anchor="middle"><textPath startOffset="21.407464694133747" xlink:href="#id54">June</textPath></text><path d="M 110.65571695917076 118.09573695890943 l 7.437250781842934 12.630077765893152 a35.65713353846965,35.65713353846965 0 0,0 -0.5301155078675155,0.3060623311689064 l -7.21934280611502 -12.75588699433823" fill="#ffb010" stroke="none" /><path d="M 110.34350942703117 118.27599006163325 l 10.284693406397647 18.172067788816086 a41.880588262425135,41.880588262425135 0 0,0 -0.6287189930081514,0.34873982711405643 l -9.971230225233402 -18.345940531363286" fill="#ffff18" stroke="none" /><path d="M 110.02825361518725 118.45085714620011 l 7.788747525145538 14.330418181351163 a37.31028734458289,37.31028734458289 0 0,0 -0.5653595580601752,0.3010221206632977 l -7.541599151298809 -14.46201076973703" fill="#ffc512" stroke="none" /><path d="M 109.71004243097381 118.62028667847754 l 7.71587819103665 14.796213807987083 a37.687202261331365,37.687202261331365 0 0,0 -0.5762064159946583,0.2942151016401324 l -7.460744553328409 -14.926486861300052" fill="#ffca12" stroke="none" /><path d="M 109.06512990194946 118.94263497670748 l 7.423008758439617 15.5112333591365 a38.195912867581654,38.195912867581654 0 0,0 -0.5938760302498082,0.2779639687155893 l -7.155644014318303 -15.636373559422625" fill="#ffd113" stroke="none" /><path d="M 108.73861861582097 119.09545874513695 l 6.077085126063401 13.27952773969722 a35.604000158135065,35.604000158135065 0 0,0 -0.5579428217508756,0.24956072742297997 l -5.848228901456898 -13.381892218030051" fill="#ffaf10" stroke="none" /><path d="M 108.4095320186766 119.2426549942271 l 10.85940547048663 24.848444889312788 a48.11774143599813,48.11774143599813 0 0,0 -0.7597216820093023,0.3242800102060882 l -10.431248713306896 -25.03119954917828" fill="#b4ff20" stroke="none" /><path d="M 108.07796709384702 119.3841803445677 l 10.419432672515734 25.002845352758104 a48.087023700492196,48.087023700492196 0 0,0 -0.764687954257567,0.3109919338904993 l -9.988690257067727 -25.178024543227895" fill="#b5ff20" stroke="none" /><path d="M 107.74402155503746 119.51999308798841 l 5.609822096836024 14.140416291048666 a36.21254340477963,36.21254340477963 0 0,0 -0.5797934065878056,0.22427654504912856 l -5.3662564277546885 -14.234632724235835" fill="#ffb711" stroke="none" /><path d="M 107.407793817531 119.65005319985036 l 5.994070724336946 15.899984734745725 a37.99230409372138,37.99230409372138 0 0,0 -0.6122384694747921,0.2248224463775817 l -5.720243103208026 -16.00053803013203" fill="#ffce13" stroke="none" /><path d="M 106.72888874123015 119.89276391827305 l 5.356079099346233 15.834296144330764 a37.71563692190105,37.71563692190105 0 0,0 -0.6150832419468909,0.20219007873350497 l -5.083473119751607 -15.92390714446629" fill="#ffcb12" stroke="none" /><path d="M 106.38641147887787 120.00534299687104 l 4.47891241422519 14.03012934507348 a35.72770130922652,35.72770130922652 0 0,0 -0.5858651719903277,0.18150252788063356 l -4.237406609363238 -14.104948460760756" fill="#ffb110" stroke="none" /><path d="M 106.0420521117495 120.11202640906438 l 5.994856355182093 19.954927085039415 a41.835964525034754,41.835964525034754 0 0,0 -0.689576202033289,0.20072558242063823 l -5.651420140767198 -20.05489636176257" fill="#ffff18" stroke="none" /><path d="M 105.69591212413111 120.21278271476187 l 8.460326090061645 30.0227126450855 a52.19199243587294,52.19199243587294 0 0,0 -0.864445032927253,0.23560833774063955 l -7.943699656199696 -30.163521476970285" fill="#86ff25" stroke="none" /><path d="M 105.3480935250658 120.30758222061773 l 5.446602413240079 20.681636514299157 a42.38680824147224,42.38680824147224 0 0,0 -0.7052250684114526,0.17926545462901064 l -5.0907720516032295 -20.772087200763437" fill="#f8ff18" stroke="none" /><path d="M 104.9986988182912 120.39639698878246 l 4.963160625215302 20.251389033594663 a41.850700735986926,41.850700735986926 0 0,0 -0.6992412015101233,0.1650190196213086 l -4.6147872699653 -20.333604196862197" fill="#ffff18" stroke="none" /><path d="M 104.29559338865022 120.5559693870025 l 4.265775654890735 20.413280736822266 a41.85422912452478,41.85422912452478 0 0,0 -0.7045531948053341,0.1409303711240944 l -3.9147259745544423 -20.48350050460922" fill="#ffff18" stroke="none" /><path d="M 103.94208987418118 120.62667999033965 l 3.121315743896414 16.332042914555156 a37.62763476072189,37.62763476072189 0 0,0 -0.6354864337264253,0.11580679739186445 l -2.8404945766189313 -16.383217885878384" fill="#ffca12" stroke="none" /><path d="M 103.58742460773223 120.69131181640829 l 3.582058917861737 20.660363943111864 a41.96859042360429,41.96859042360429 0 0,0 -0.7109129418489256,0.11698045404713495 l -3.226868472959739 -20.718810395654668" fill="#feff18" stroke="none" /><path d="M 103.2317021107853 120.74984581791261 l 4.83761972104304 31.06098888333002 a52.43545124498415,52.43545124498415 0 0,0 -0.8905909064389561,0.13088619406432614 l -4.303703708996398 -31.139456150693228" fill="#84ff25" stroke="none" /><path d="M 102.875027216393 120.80226474461374 l 2.3251559316758263 16.823670046474444 a37.98358689851024,37.98358689851024 0 0,0 -0.6466654628741138,0.0837237908626495 l -2.036012646910937 -16.861105433537485" fill="#ffce13" stroke="none" /><path d="M 102.51750503828377 120.84855314841334 l 2.0351915536745375 16.854305603658872 a37.97673767370148,37.97673767370148 0 0,0 -0.6478905563243629,0.07259748820652451 l -1.7455650957493756 -16.88675885237237" fill="#ffce13" stroke="none" /><path d="M 101.80034050326958 120.92268563240118 l 1.445317469895811 16.796779835108467 a37.858847986084115,37.858847986084115 0 0,0 -0.6479830375376072,0.050157985236556006 l -1.1567654375829677 -16.819115587340075" fill="#ffcd13" stroke="none" /><path d="M 101.44090949804482 120.95050786540614 l 1.4290418776970772 20.777955270134655 a41.827039777556685,41.827039777556685 0 0,0 -0.7167474522635149,0.04311774688724036 l -1.0721500733010974 -20.799424994846586" fill="#ffff18" stroke="none" /><path d="M 101.08105385017728 120.97215588758144 l 0.8661629760259506 16.803330337604166 a37.825639623375,37.825639623375 0 0,0 -0.6487533800541054,0.027860261553511016 l -0.5775838353710157 -16.81572316758351" fill="#ffcc13" stroke="none" /><path d="M 100.72087961077811 120.9876233191556 l 1.7923573428494988 52.1825284036597 a73.21330113527796,73.21330113527796 0 0,0 -1.2564332839087367,0.032361264517805424 l -0.8963107448700182 -52.20560738552756" fill="#3fffc1" stroke="none" /><line stroke="#e1ed5e" stroke-width="0.3" x1="101.45913802915013" x2="101.54496967792366" y1="184.9874750549273" y2="189.98673829345242" /><path d="M 101.47630435890484 185.9873277026323 a86.0,86.0 0 0,1 -42.54439059252881,-10.42667462771756" fill="none" id="id55" stroke="none" /><text fill="#e1ed5e" style="font-size:6.75px; font-family:Arial;" text-anchor="middle"><textPath startOffset="22.145653131862474" xlink:href="#id55">July</textPath></text><path d="M 100.36049292484886 120.99690560180557 l 0.4395420359253584 25.60112002259037 a46.60489296233091,46.60489296233091 0 0,0 -0.8000349607742075,0.006867337934974716 l -3.1356950208829138e-15 -25.604892962330908" fill="#c6ff1e" stroke="none" /><path d="M 100.0 121.0 l 2.0860406462385165e-15 17.03381454710778 a38.03381454710778,38.03381454710778 0 0,0 -0.6529010023450336,-0.005604369860097265 l 0.29240807749617936 -17.031304575442118" fill="#ffcf13" stroke="none" /><path d="M 99.27912038922189 120.98762331915562 l -0.7147713068460733 20.80978671491869 a41.82205852315032,41.82205852315032 0 0,0 -0.7172965770801369,-0.030803801357039032 l 1.071893644527049 -20.79445034513582" fill="#ffff18" stroke="none" /><path d="M 98.91894614982273 120.97215588758144 l -0.8783326582603075 17.039418921794173 a38.062041655410525,38.062041655410525 0 0,0 -0.6522305075747414,-0.03923656770446827 l 1.1707075179674953 -17.02183037626501" fill="#ffcf13" stroke="none" /><path d="M 98.55909050195518 120.95050786540614 l -1.8666580044958936 27.140797710251523 a48.20491338810956,48.20491338810956 0 0,0 -0.8250638321838523,-0.06386515867939248 l 2.332290831454982 -27.104754784577075" fill="#b3ff20" stroke="none" /><path d="M 98.19965949673042 120.92268563240118 l -2.6963648555053377 31.335846813165528 a52.451640321804845,52.451640321804845 0 0,0 -0.8964246006032333,-0.08489234168626991 l 3.2338890194935863 -31.284942715974072" fill="#84ff25" stroke="none" /><path d="M 97.84075906011543 120.88869738790638 l -1.7471869913087286 16.902449220644034 a37.992511645988316,37.992511645988316 0 0,0 -0.6481596633700542,-0.0726276422122978 l 2.037082556279582 -16.869965817924765" fill="#ffce13" stroke="none" /><path d="M 94.30408787586889 120.21278271476187 l -1.2755932320238672 4.5266303744551495 a25.702926816411782,25.702926816411782 0 0,0 -0.4236576557137734,-0.12332056912544982 l 1.3531109001192474 -4.504066111027184" fill="#ff2603" stroke="none" /><path d="M 90.6110303473126 118.78422872680471 l -4.670945744233073 9.345020430975119 a31.447350908288257,31.447350908288257 0 0,0 -0.4808042059939053,-0.24550205344608905 l 4.830677171940561 -9.263460425856193" fill="#ff770b" stroke="none" /><path d="M 90.28995756902619 118.62028667847754 l -9.850604490556794 18.88983296153018 a42.30399488696638,42.30399488696638 0 0,0 -0.6410287766638478,-0.34131171748406525 l 10.173422083007205 -18.717950776323537" fill="#f9ff18" stroke="none" /><path d="M 89.97174638481275 118.45085714620012 l -7.077408817673664 13.021635079351302 a35.820684724812054,35.820684724812054 0 0,0 -0.537746621129758,-0.2982789859531543 l 7.299899626959524 -12.898223177965" fill="#ffb210" stroke="none" /><line stroke="#e1ed5e" stroke-width="0.3" x1="58.13341422392154" x2="55.67067388415222" y1="173.97424548756322" y2="178.32567169271397" /><path d="M 57.64086615596768 174.84453072859336 a86.0,86.0 0 0,1 -31.369924170532247,-30.572349798747897" fill="none" id="id56" stroke="none" /><text fill="#e1ed5e" style="font-size:6.75px; font-family:Arial;" text-anchor="middle"><textPath startOffset="22.145653131862474" xlink:href="#id56">August</textPath></text><path d="M 89.03521579738668 117.91015095944536 l -10.878160608473982 17.768657828434574 a41.83409655463237,41.83409655463237 0 0,0 -0.609255588861013,-0.38022054779779346 l 11.181580326124706 -17.57930148379523" fill="#ffff18" stroke="none" /><path d="M 88.4268655584334 117.5232005979908 l -6.882045542361129 10.42029410201667 a33.48779724449657,33.48779724449657 0 0,0 -0.4769678313944662,-0.32092524336018924 l 7.059909661852601 -10.30061918459936" fill="#ff930d" stroke="none" /><path d="M 87.2517909369889 116.68781488649013 l -13.115697908893162 17.168869582300168 a42.60536077855161,42.60536077855161 0 0,0 -0.5773839039430512,-0.448977215981437 l 13.408491757471442 -16.94119131469794" fill="#f6ff19" stroke="none" /><path d="M 85.60350026404147 115.28858382429668 l -9.478730401897119 10.066083211556764 a34.82650936620786,34.82650936620786 0 0,0 -0.4317285052044398,-0.4135861418919646 l 9.650131392966873 -9.901884939359217" fill="#ffa50f" stroke="none" /><path d="M 84.83555147118756 114.52719865689866 l -13.123524323938437 12.572039436202658 a39.17369159709823,39.17369159709823 0 0,0 -0.4610261594875235,-0.48959380500758065 l 13.337406317162213 -12.344904171250588" fill="#ffdd14" stroke="none" /><path d="M 84.58840730492382 114.26474011684316 l -10.301220299026554 9.534655720489548 a35.03655226034302,35.03655226034302 0 0,0 -0.40475943490156424,-0.4449015223734916 l 10.463377434769997 -9.356416622558383" fill="#ffa80f" stroke="none" /><path d="M 84.3458050057657 113.99807769240083 l -7.756597972981398 6.935997736996582 a31.40542535036799,31.40542535036799 0 0,0 -0.3559116078600917,-0.4049620759520666 l 7.874520644800082 -6.801823383233216" fill="#ff760a" stroke="none" /><path d="M 84.1078160697243 113.72728997021213 l -16.55904852950191 14.303311728115887 a42.88119774130422,42.88119774130422 0 0,0 -0.47640078839870553,-0.5611989308409305 l 16.80214388140773 -14.016946014825402" fill="#f2ff19" stroke="none" /><path d="M 83.8745106332314 113.45245675266167 l -8.0063789426265 6.6792060706736445 a31.426595681595057,31.426595681595057 0 0,0 -0.3420308763585756,-0.4172220557148869 l 8.119856638223705 -6.540781733260262" fill="#ff770a" stroke="none" /><path d="M 83.4222238831116 112.89097897827486 l -16.53676013251814 12.859084700745571 a41.94804274917803,41.94804274917803 0 0,0 -0.43715458140548147,-0.572249379910355 l 16.755066691277914 -12.573314407594346" fill="#feff18" stroke="none" /><path d="M 83.20337586046588 112.60449989151573 l -17.304720664019353 12.985784995864758 a42.635248304989815,42.635248304989815 0 0,0 -0.43426635747520187,-0.5891657171839398 l 17.525089041078388 -12.686812969411939" fill="#f5ff19" stroke="none" /><path d="M 82.98947788004972 112.3143062007846 l -8.421592097522053 6.096583223942662 a31.39670815515685,31.39670815515685 0 0,0 -0.3122999185463581,-0.43928894582573896 l 8.525007114598372 -5.951117051407419" fill="#ff760a" stroke="none" /><path d="M 82.37810715431573 111.42229804090323 l -17.649004521846518 11.439871501837612 a42.03230896955242,42.03230896955242 0 0,0 -0.38726229360584824,-0.6088406481056594 l 17.842784507078257 -11.13521717905328" fill="#fdff18" stroke="none" /><path d="M 82.18462484594161 111.11811171558189 l -10.596854985834023 6.613221251166562 a33.491118080767485,33.491118080767485 0 0,0 -0.3001953013812983,-0.4903464642536077 l 10.708818251670724 -6.430337670788397" fill="#ff930d" stroke="none" /><path d="M 81.99639281039703 110.81064883170644 l -16.040362396608828 9.631776742118053 a39.71000665485047,39.71000665485047 0 0,0 -0.34590496133780657,-0.5874222463992526 l 16.203341068076405 -9.355003327425242" fill="#ffe415" stroke="none" /><line stroke="#e1ed5e" stroke-width="0.3" x1="26.387840678322732" x2="22.057713659400548" y1="142.50000000000003" y2="145.00000000000006" /><path d="M 25.521815274538298 143.00000000000003 a86.0,86.0 0 0,1 -11.493303480769221,-40.785679425670985" fill="none" id="id57" stroke="none" /><text fill="#e1ed5e" style="font-size:6.75px; font-family:Arial;" text-anchor="middle"><textPath startOffset="21.40746469413373" xlink:href="#id57">September</textPath></text><path d="M 81.81346652052679 110.50000000000001 l -18.002773626731397 10.39390619955328 a41.78781239910654,41.78781239910654 0 0,0 -0.35333910622987014,-0.6243163444089364 l 18.178546097982647 -10.083333085045222" fill="#fffe18" stroke="none" /><path d="M 81.63589988554817 110.18625677009913 l -22.815884005502404 12.655586250804035 a47.090772819218685,47.090772819218685 0 0,0 -0.3860426443350729,-0.7102749846873245 l 23.029771999452805 -12.262056432642122" fill="#c0ff1e" stroke="none" /><path d="M 81.4637452351635 109.86951160357371 l -11.02106504763523 5.868096373908252 a33.48592927409418,33.48592927409418 0 0,0 -0.2658016291841445,-0.5097096712191006 l 11.120174745794323 -5.678040459584649" fill="#ff930d" stroke="none" /><path d="M 81.29705330413844 109.54985784667822 l -9.261513269864905 4.728994666487743 a31.398991230093102,31.398991230093102 0 0,0 -0.2409948634062055,-0.482151162871368 l 9.341328046482849 -4.569311647452623" fill="#ff760a" stroke="none" /><path d="M 81.1358732173502 109.22738970284198 l -11.438433167270807 5.595110849307743 a33.73353912854404,33.73353912854404 0 0,0 -0.24998278051535083,-0.5223678659857203 l 11.53279520574607 -5.397930481256918" fill="#ff960d" stroke="none" /><path d="M 80.9802524753101 108.90220220490708 l -19.148827507759105 8.962618154613896 a42.14251922329329,42.14251922329329 0 0,0 -0.30104917017325855,-0.6578467675535625 l 19.29986114278742 -8.632582404845644" fill="#fbff18" stroke="none" /><path d="M 80.68587082218212 108.24405325689762 l -12.005648647423055 5.124497507587799 a34.053584724153154,34.053584724153154 0 0,0 -0.22487390962510362,-0.5396155206278649 l 12.091848401584643 -4.917649477518653" fill="#ff9b0e" stroke="none" /><path d="M 80.41425534168474 107.57618678355246 l -9.687245145722075 3.747234528093017 a31.386745646344114,31.386745646344114 0 0,0 -0.1900681419588481,-0.5041783279995331 l 9.750143971495358 -3.5803879198993394" fill="#ff760a" stroke="none" /><path d="M 80.28708602549918 107.23885506374661 l -23.67357712589837 8.693265433840798 a46.219260850371285,46.219260850371285 0 0,0 -0.2671029351188424,-0.7471344476482313 l 23.819320231061155 -8.285596029811645" fill="#caff1d" stroke="none" /><path d="M 80.16572619554312 106.89939002012753 l -16.004549178856752 5.567212995538666 a37.94518972912782,37.94518972912782 0 0,0 -0.2087248854722256,-0.6170580359170186 l 16.097759485901346 -5.291653285147485" fill="#ffce13" stroke="none" /><path d="M 80.05021161711548 106.5578916946017 l -14.27903977327498 4.693803991243532 a36.03072761894721,36.03072761894721 0 0,0 -0.18810662205979006,-0.5892413144274906 l 14.357511111112023 -4.447993643124649" fill="#ffb510" stroke="none" /><path d="M 79.83685265289637 105.86919833188381 l -42.27453494268754 12.305501006142606 a65.02910014561604,65.02910014561604 0 0,0 -0.30279254625103846,-1.0745039269641579 l 42.47954598101315 -11.577989155275452" fill="#35ff65" stroke="none" /><path d="M 79.73907114497094 105.5222062557868 l -10.034812775829216 2.735032844882567 a31.40085920049549,31.40085920049549 0 0,0 -0.13728234220833238,-0.5212834141303513 l 10.080284598842281 -2.562368926379413" fill="#ff760a" stroke="none" /><path d="M 79.64726062577567 105.17358676015961 l -12.092439109582608 3.0738507345405974 a33.477004526616106,33.477004526616106 0 0,0 -0.13679736015496027,-0.558179911645853 l 12.143423996253862 -2.8658149982866448" fill="#ff930d" stroke="none" /><path d="M 79.17382384314188 102.69636545807758 l -14.540340022303125 1.8825381236358398 a35.66169968834215,35.66169968834215 0 0,0 -0.07339163147450638,-0.6077879909579285 l 14.570513740037292 -1.632656455754512" fill="#ffb010" stroke="none" /><path d="M 79.13060592940153 102.33845913500099 l -16.988516494449843 1.9035987078575418 a38.09483491358578,38.09483491358578 0 0,0 -0.06724211376440582,-0.6505064535423883 l 17.018691000695917 -1.611687732032222" fill="#ffd013" stroke="none" /><path d="M 79.0935383218832 101.97986365728391 l -20.825601337697776 1.9722060989760521 a41.91877787954061,41.91877787954061 0 0,0 -0.061693217390222814,-0.7169687016221745 l 20.85638817778574 -1.6144163499782156" fill="#feff18" stroke="none" /><path d="M 79.06263194458094 101.62068470465958 l -20.92033055135141 1.6193658940920321 a41.982911530022605,41.982911530022605 0 0,0 -0.04945194904810638,-0.7190204859485271 l 20.94504646156458 -1.2600019839891619" fill="#fdff18" stroke="none" /><path d="M 79.01933749520258 100.90099992219065 l -31.484472231681817 1.3520787069746953 a52.51349089735058,52.51349089735058 0 0,0 -0.030946232702041894,-0.9009657998183108 l 31.503043151380705 -0.8114066425922646" fill="#83ff25" stroke="none" /><path d="M 79.00696218219943 100.54070618675478 l -4.313581062984606 0.11110254685704898 a25.315011629515908,25.315011629515908 0 0,0 -0.007460175288086865,-0.43451781019706254 l 4.314852669871359 -0.037037820690934045" fill="#ff2003" stroke="none" /><line stroke="#e1ed5e" stroke-width="0.3" x1="15.003131293944662" x2="10.003315487706104" y1="100.72959589197737" y2="100.7725132973878" /><path d="M 14.003168132696942 100.73817937305945 a86.0,86.0 0 0,1 10.791469493833604,-42.45332614584628" fill="none" id="id58" stroke="none" /><text fill="#e1ed5e" style="font-size:6.75px; font-family:Arial;" text-anchor="middle"><textPath startOffset="22.145653131862435" xlink:href="#id58">October</textPath></text><path d="M 79.00077361379809 100.18025310272382 l -20.956818101984638 0.17988907860832448 a41.9575901534569,41.9575901534569 0 0,0 0.0,-0.7202843626642764 l 20.956818101984638 0.1798890786083168" fill="#feff18" stroke="none" /><path d="M 79.00077361379809 99.81974689727619 l -16.778737337329495 -0.14402528022788572 a37.779355467849165,37.779355467849165 0 0,0 0.011133339308147387,-0.6484611995756036 l 16.773792566422685 0.4320333957725417" fill="#ffcc13" stroke="none" /><path d="M 79.03789590574601 98.7389718711861 l -20.91956360139293 -1.2584689984007518 a41.95738260118996,41.95738260118996 0 0,0 0.04942187835406254,-0.7185832646567087 l 20.894877761873804 1.6173956872117856" fill="#feff18" stroke="none" /><path d="M 79.06263194458094 98.37931529534042 l -24.964220079571913 -1.9323885189211343 a46.038897930407394,46.038897930407394 0 0,0 0.06775693095320304,-0.7874382446962701 l 24.927369525920966 2.3606478109930853" fill="#ccff1d" stroke="none" /><path d="M 79.0935383218832 98.0201363427161 l -20.858455155738557 -1.9753173897024923 a41.9517786899828,41.9517786899828 0 0,0 0.07405009843697075,-0.7163675295436145 l 20.82147266481992 2.3330894415290193" fill="#feff18" stroke="none" /><path d="M 79.13060592940154 97.66154086499901 l -20.802084090315546 -2.3309169113151076 a41.93226877689119,41.93226877689119 0 0,0 0.08629643690171843,-0.7146582921997774 l 20.75900556715416 2.6876688804383213" fill="#feff18" stroke="none" /><path d="M 79.22317932658666 96.9465228501225 l -44.261408575376514 -6.504902835266195 a65.7368533758541,65.7368533758541 0 0,0 0.17366583508656555,-1.1150592407199376 l 44.14322124815168 7.263750257917582" fill="#36ff6e" stroke="none" /><path d="M 79.2786578344484 96.59031103205396 l -20.62890992546253 -3.3944792780139736 a41.90632474352469,41.90632474352469 0 0,0 0.12289565035998404,-0.7088294530281966 l 20.56759945761031 3.748101763962763" fill="#feff18" stroke="none" /><path d="M 79.34024301695615 96.23510406497455 l -24.607284427721538 -4.484266934503621 a46.01253879250704,46.01253879250704 0 0,0 0.14827805245713957,-0.775853426796755 l 24.52668008298224 4.90602292633369" fill="#cdff1d" stroke="none" /><path d="M 79.48165901384962 95.52812308129327 l -21.20127623308182 -4.620719477166271 a42.69896685093794,42.69896685093794 0 0,0 0.16223398940068093,-0.7148328914793431 l 21.118831382123478 4.983986702584622" fill="#f5ff19" stroke="none" /><path d="M 79.56144815229197 95.17655741523228 l -25.225152982320576 -5.953067419297108 a46.91808933313128,46.91808933313128 0 0,0 0.19172177603834667,-0.7822902714529486 l 25.11924367976593 6.385213515358174" fill="#c2ff1e" stroke="none" /><path d="M 79.64726062577567 94.8264132398404 l -20.27985417467837 -5.1550596274503695 a41.924796895281645,41.924796895281645 0 0,0 0.18329225571963026,-0.6959905499003112 l 20.188372438154012 5.502430681723466" fill="#feff18" stroke="none" /><path d="M 79.73907114497095 94.47779374421319 l -20.195781603078693 -5.50445008257078 a41.93247632915813,41.93247632915813 0 0,0 0.19524860792914173,-0.6928684293972541 l 20.09831450307497 5.850326435871048" fill="#feff18" stroke="none" /><path d="M 79.94057633289273 93.78553927170692 l -44.07907973567686 -13.655811577769304 a67.14592571605533,67.14592571605533 0 0,0 0.35055060239423347,-1.0980947691595673 l 43.838164417505375 14.410475380620262" fill="#38ff7e" stroke="none" /><path d="M 80.05021161711548 93.44210830539832 l -29.88406502653829 -9.823485747177436 a52.457244233012005,52.457244233012005 0 0,0 0.2885512596691367,-0.8530505270130258 l 29.71102834529679 10.335037948664624" fill="#83ff25" stroke="none" /><path d="M 80.16572619554312 93.10060997987247 l -19.76148100415457 -6.874068905530925 a41.92292892487926,41.92292892487926 0 0,0 0.24227426312300954,-0.677684233148746 l 19.64056657098762 7.212288095060592" fill="#feff18" stroke="none" /><path d="M 80.28708602549916 92.7611449362534 l -19.64524252525419 -7.214005170235992 a41.92791017928563,41.92791017928563 0 0,0 0.25390207936140496,-0.6735054308878019 l 19.51850976207835 7.550178881317939" fill="#feff18" stroke="none" /><path d="M 80.68587082218212 91.75594674310238 l -12.016720270998821 -5.129223325332856 a34.06562275563521,34.06562275563521 0 0,0 0.23418674828119881,-0.5358651101377461 l 11.926899640700645 5.334750505246469" fill="#ff9b0e" stroke="none" /><path d="M 80.83023694016515 91.42560881287825 l -3.999189808198586 -1.7887867335664636 a25.38101325040028,25.38101325040028 0 0,0 0.18131172787047367,-0.3961988469541251 l 3.9678936154730655 1.85717456273526" fill="#ff2103" stroke="none" /><path d="M 80.9802524753101 91.09779779509293 l -20.843284256379267 -9.755709471105062 a44.01339535741818,44.01339535741818 0 0,0 0.32616177358216625,-0.6815526624713775 l 20.672743224837195 10.112074635641527" fill="#e5ff1a" stroke="none" /><path d="M 81.1358732173502 90.77261029715801 l -28.208002876487807 -13.7979477279403 a52.401827777741175,52.401827777741175 0 0,0 0.40219672138474133,-0.8046628636720943 l 27.966986241891323 14.280142447776164" fill="#84ff25" stroke="none" /><path d="M 81.29705330413844 90.45014215332179 l -18.679778894935 -9.538028202448 a41.97398678254453,41.97398678254453 0 0,0 0.33317737664774744,-0.6389115508058564 l 18.513293449312314 9.857285996358343" fill="#fdff18" stroke="none" /><line stroke="#e1ed5e" stroke-width="0.3" x1="26.387840678322718" x2="22.05771365940052" y1="57.49999999999999" y2="54.99999999999999" /><path d="M 25.521815274538284 56.99999999999999 a86.0,86.0 0 0,1 29.574782752854787,-30.34633250058573" fill="none" id="id59" stroke="none" /><text fill="#e1ed5e" style="font-size:6.75px; font-family:Arial;" text-anchor="middle"><textPath startOffset="21.40746469413373" xlink:href="#id59">November</textPath></text><path d="M 81.99639281039701 89.18935116829357 l -36.81688974685442 -22.10748445782287 a63.944431998629504,63.944431998629504 0 0,0 0.573161456992654,-0.9362161652417466 l 36.43196032540637 22.73623773918916" fill="#34ff58" stroke="none" /><path d="M 82.18462484594161 88.88188828441811 l -9.0618138319118 -5.655242039966216 a31.681677417654463,31.681677417654463 0 0,0 0.29189733713960475,-0.45891109684247683 l 8.963398803146307 5.8099668114873655" fill="#ff7a0b" stroke="none" /><path d="M 82.37810715431573 88.57770195909679 l -17.574984420975298 -11.391892566738367 a41.94409925610632,41.94409925610632 0 0,0 0.3968222596986455,-0.6008394781514478 l 17.376837722355923 11.691911923228876" fill="#feff18" stroke="none" /><path d="M 82.576782715395 88.27688183743585 l -17.393541252819393 -11.703150803979577 a41.96423182599872,41.96423182599872 0 0,0 0.4072733872761906,-0.5942240435485996 l 17.190078128727887 12.00000958259821" fill="#feff18" stroke="none" /><path d="M 82.98947788004972 87.6856937992154 l -51.03156635985086 -36.94291860235379 a84.0,84.0 0 0,0 0.855591921664725,-1.1607747629245466 l 50.389872418602316 37.8134996745472" fill="#4dd2ff" stroke="none" /><path d="M 83.42222388311158 87.10902102172516 l -18.72213110268061 -14.558442385242042 a44.716374885516814,44.716374885516814 0 0,0 0.4764073410431765,-0.6019251124080932 l 18.469457330995873 14.877687441564817" fill="#dcff1b" stroke="none" /><path d="M 83.64595745247003 86.82634096563983 l -16.321500191387717 -13.147445215804488 a41.95821281025769,41.95821281025769 0 0,0 0.45665157127842193,-0.5570406664528054 l 16.093401800870666 13.425688163955787" fill="#feff18" stroke="none" /><path d="M 83.8745106332314 86.54754324733833 l -13.046783044057857 -10.88409044027163 a37.99064367558592,37.99064367558592 0 0,0 0.42206779549420254,-0.49719480181779424 l 12.858020685056541 11.10645202453898" fill="#ffce13" stroke="none" /><path d="M 84.10781606972428 86.27271002978789 l -12.917078804545206 -11.157465021548905 a38.06868332795234,38.06868332795234 0 0,0 0.43142502103412594,-0.4908824783380547 l 12.723642719552487 11.37755977769826" fill="#ffcf13" stroke="none" /><path d="M 84.58840730492382 85.73525988315684 l -1.5699578231537752 -1.4531295230017574 a23.13924121526794,23.13924121526794 0 0,0 0.2723204037201284,-0.28919483177862 l 1.544781585697375 1.4798658147248887" fill="#ff0000" stroke="none" /><line stroke="#e1ed5e" stroke-width="0.3" x1="56.869717070023135" x2="54.33264160355391" y1="26.7553504044142" y2="22.446841604673864" /><path d="M 56.362301976729285 25.89364864446614 a86.0,86.0 0 0,1 42.16139366436587,-11.88097634709845" fill="none" id="id60" stroke="none" /><text fill="#e1ed5e" style="font-size:6.75px; font-family:Arial;" text-anchor="middle"><textPath startOffset="22.145653131862474" xlink:href="#id60">December</textPath></text></svg>