<?xml version="1.0" encoding="utf-8" ?>
<svg baseProfile="full" height="200mm" version="1.1" viewBox="0,0,200,200" width="200mm" xmlns="http://www.w3.org/2000/svg" xmlns:ev="http://www.w3.org/2001/xml-events" xmlns:xlink="http://www.w3.org/1999/xlink"><defs /><rect fill="#1a1a1a" height="200" width="200" x="0" y="0" /><text alignment-baseline="middle" fill="#e1ed5e" style="dominant-baseline: central; font-size:9.0px; font-family:Arial;" text-anchor="middle" x="100.0" y="100.0">2024</text><line stroke="#e1ed5e" stroke-width="0.3" x1="100.0" x2="100.0" y1="15.0" y2="10.0" /><path d="M 100.0 14.0 a86.0,86.0 0 0,1 42.35913384403234,11.155469271406648" fill="none" id="id49" stroke="none" /><text fill="#e1ed5e" style="font-size:6.75px; font-family:Arial;" text-anchor="middle"><textPath startOffset="22.145653131862478" xlink:href="#id49">January</textPath></text><path d="M 100.0 79.0 l 0.0 -4.920639618861795 a25.920639618861795,25.920639618861795 0 0,0 0.44496224715031396,0.003819465735009712 l -0.08446932230145916 4.91991455132122" fill="#ff3104" stroke="none" /><path d="M 100.72087961077811 79.0123766808444 l 0.277369847351869 -8.075320468599745 a29.080082592573298,29.080082592573298 0 0,0 0.49875698235452137,0.021418770841514896 l -0.41595259030722664 8.0693691293324" fill="#ff5e08" stroke="none" /><path d="M 101.08105385017728 79.02784411241856 l 0.41763440142304686 -8.101995815679862 a29.112752596409308,29.112752596409308 0 0,0 0.4988756403232481,0.03001111970434913 l -0.5566543938787574 8.09363271815082" fill="#ff5e08" stroke="none" /><path d="M 101.80034050326958 79.07731436759882 l 1.280868044326911 -14.885628234975936 a35.94063422003533,35.94063422003533 0 0,0 0.6142433006566773,0.05816947919853915 l -1.5362109083686013 14.861447000272214" fill="#ffba11" stroke="none" /><path d="M 102.51750503828377 79.15144685158666 l 1.369422497015549 -11.340782750180695 a32.423163807025105,32.423163807025105 0 0,0 0.5520000069275841,0.07146745232191669 l -1.563900325833925 11.31560370165838" fill="#ff8b0c" stroke="none" /><path d="M 102.87502721639298 79.19773525538626 l 1.0658964923508312 -7.712296042906873 a28.7856050237501,28.7856050237501 0 0,0 0.48890964913643076,0.07185288189463232 l -1.198131247094944 7.692862087713358" fill="#ff5a08" stroke="none" /><path d="M 103.23170211078529 79.25015418208739 l 1.2411528596079904 -7.969091701669569 a29.065164782602515,29.065164782602515 0 0,0 0.4923396662210155,0.08101430471945249 l -1.3777700288820764 7.946611398454448" fill="#ff5d08" stroke="none" /><path d="M 103.58742460773223 79.30868818359171 l 0.9215289659367557 -5.315134188730232 a26.394429263533766,26.394429263533766 0 0,0 0.4457708232151938,0.08123429339721805 l -1.0126345227030031 5.298531721401648" fill="#ff3805" stroke="none" /><path d="M 103.94208987418118 79.37332000966035 l 0.637583662313044 -3.3361071384329186 a24.396486974147198,24.396486974147198 0 0,0 0.4106782802885364,0.08214715777374505 l -0.6947584281325373 3.324670583996314" fill="#ff1b02" stroke="none" /><path d="M 104.29559338865022 79.4440306129975 l 1.5505123528755482 -7.419762900299574 a28.58003760235275,28.58003760235275 0 0,0 0.47937920847557186,0.1044784672960052 l -1.6776539779702542 7.39205297486985" fill="#ff5708" stroke="none" /><path d="M 104.9986988182912 79.60360301121754 l 1.9232220103818698 -7.847402103478316 a29.079635058274178,29.079635058274178 0 0,0 0.48382240782372604,0.12298576409598302 l -2.05764971143099 7.8132311075470655" fill="#ff5e08" stroke="none" /><path d="M 105.3480935250658 79.69241777938227 l 1.3740712830825879 -5.217572472771224 a26.395473510231724,26.395473510231724 0 0,0 0.43718269609496313,0.11915608788577885 l -1.463435380112244 5.193215890741302" fill="#ff3805" stroke="none" /><path d="M 105.69591212413111 79.78721728523813 l 2.189326519219013 -7.769147462293471 a29.07172861898966,29.07172861898966 0 0,0 0.4791851325820208,0.13948380837567706 l -2.322371664182638 7.730419959615278" fill="#ff5e08" stroke="none" /><path d="M 106.38641147887787 79.99465700312896 l 2.456138781013435 -7.6938197491032785 a29.076353140080602,29.076353140080602 0 0,0 0.47418999155248925,0.1558756688333196 l -2.5878515102136666 7.650523158867937" fill="#ff5e08" stroke="none" /><path d="M 106.72888874123014 80.10723608172694 l 4.894542626199942 -14.469845571130636 a36.275240697679926,36.275240697679926 0 0,0 0.5881671464398884,0.20459506510404138 l -5.142215544684849 14.383692073458004" fill="#ffbe11" stroke="none" /><path d="M 107.40779381753099 80.34994680014964 l 2.853160252745914 -7.568346546238249 a29.088287388057225,29.088287388057225 0 0,0 0.4657280503059327,0.18015361483636258 l -2.9826605655453724 7.518253043263848" fill="#ff5e08" stroke="none" /><path d="M 108.07796709384702 80.6158196554323 l 3.114552740276012 -7.473792763548616 a29.096790539740574,29.096790539740574 0 0,0 0.45940357943289656,0.19609207023446643 l -3.2423913948793386 7.4192260436547475" fill="#ff5e08" stroke="none" /><path d="M 109.71004243097381 81.37971332152246 l 3.738506819923205 -7.169079767804078 a29.08530382606307,29.08530382606307 0 0,0 0.4407270939856781,0.23466235349508188 l -3.8610227296954425 7.103846946586423" fill="#ff5e08" stroke="none" /><path d="M 110.34350942703115 81.72400993836675 l 3.9817394818842247 -7.035352141581191 a29.0839612231657,29.0839612231657 0 0,0 0.4323919884918315,0.2496416309511965 l -4.101923938236454 6.965963613353823" fill="#ff5e08" stroke="none" /><line stroke="#e1ed5e" stroke-width="0.3" x1="143.13028292997686" x2="145.6673583964461" y1="26.7553504044142" y2="22.446841604673864" /><path d="M 143.63769802327073 25.89364864446614 a86.0,86.0 0 0,1 29.32050498858742,28.57503671076993" fill="none" id="id50" stroke="none" /><text fill="#e1ed5e" style="font-size:6.75px; font-family:Arial;" text-anchor="middle"><textPath startOffset="20.669276256404974" xlink:href="#id50">February</textPath></text><path d="M 114.65682725009322 84.96080404539774 l 2.357543482507286 -2.419047301297558 a24.377839711683723,24.377839711683723 0 0,0 0.29718685409369994,0.2946468107746163 l -2.3987222567309483 2.378220480294282" fill="#ff1b02" stroke="none" /><path d="M 114.91283532996326 85.21462403516908 l 3.358825591657972 -3.330117853120634 a25.72984082933552,25.72984082933552 0 0,0 0.30828416937855047,0.3163267161353972 l -3.415496562187334 3.271968444917495" fill="#ff2e04" stroke="none" /><path d="M 115.16444852881244 85.47280134310134 l 3.3994456889215194 -3.2565920714142873 a25.707613292479056,25.707613292479056 0 0,0 0.30254698351430365,0.3212944120502644 l -3.454848506172083 3.197756199419528" fill="#ff2e04" stroke="none" /><path d="M 115.6541949942343 86.00192230759917 l 6.029871631302971 -5.391948394744734 a29.089033278555767,29.089033278555767 0 0,0 0.3296603847826976,0.37509300296054626 l -6.121543080044258 5.28764311397289" fill="#ff5e08" stroke="none" /><path d="M 116.7966241395341 87.39550010848427 l 12.24852115548905 -9.19151862261485 a36.31372864740454,36.31372864740454 0 0,0 0.36987777233622865,0.5018102352570908 l -12.404500947409105 8.979902078088886" fill="#ffbf11" stroke="none" /><line stroke="#e1ed5e" stroke-width="0.3" x1="172.87174338648825" x2="177.1583165268699" y1="56.24261187166439" y2="53.66864786411523" /><path d="M 173.72905801456457 55.72781907015455 a86.0,86.0 0 0,1 12.242430191666344,42.057860355516425" fill="none" id="id51" stroke="none" /><text fill="#e1ed5e" style="font-size:6.75px; font-family:Arial;" text-anchor="middle"><textPath startOffset="22.145653131862474" xlink:href="#id51">March</textPath></text><path d="M 118.53625476483649 90.13048839642627 l 4.17361345605112 -2.222214085634429 a25.72834904833844,25.72834904833844 0 0,0 0.20422419928353244,0.3916268300961996 l -4.211145724309596 2.1502410124337312" fill="#ff2e04" stroke="none" /><path d="M 118.70294669586156 90.45014215332178 l 7.207415233857491 -3.68015757327439 a29.092613552948755,29.092613552948755 0 0,0 0.22329285606484175,0.44673529008403345 l -7.26952800313407 3.5558904270266063" fill="#ff5e08" stroke="none" /><path d="M 119.71291397450082 92.76114493625339 l 7.591577539832724 -2.7877324269323154 a29.087243141359274,29.087243141359274 0 0,0 0.16809632769170665,0.4701953457971621 l -7.6383140375683745 2.6570021247542366" fill="#ff5e08" stroke="none" /><path d="M 120.16314734710363 94.1308016681162 l 14.71880059294068 -4.284428338506735 a36.32969070407327,36.32969070407327 0 0,0 0.16916056854801542,0.6002911810175138 l -14.790179653563277 4.031129233586208" fill="#ffbf11" stroke="none" /><path d="M 120.35273937422433 94.82641323984039 l 7.280622214758316 -1.8507056963398625 a28.512161566985704,28.512161566985704 0 0,0 0.11650948135381818,0.47539844288157035 l -7.311319222628425 1.7254514288501972" fill="#ff5607" stroke="none" /><path d="M 120.43855184770803 95.1765574152323 l 7.320030606415338 -1.7275072917040406 a28.52111225296817,28.52111225296817 0 0,0 0.10836547495625783,0.47747827742926446 l -7.348606942929263 1.60159468033575" fill="#ff5607" stroke="none" /><path d="M 120.51834098615036 95.52812308129327 l 12.955569116017761 -2.8236059892822483 a34.25969539252783,34.25969539252783 0 0,0 0.12030420784309026,0.5756991851426809 l -13.002131034685219 2.6007903528541627" fill="#ffa40f" stroke="none" /><path d="M 120.7213421655516 96.59031103205396 l 15.063126392815965 -2.4786317157460176 a36.265693299298626,36.265693299298626 0 0,0 0.09580793099125724,0.6151556449361864 l -15.103455815945487 2.21968788887839" fill="#ffbe11" stroke="none" /><path d="M 120.86939407059847 97.66154086499901 l 7.468850712574652 -0.8369003008757668 a28.51559266327898,28.51559266327898 0 0,0 0.0503335617616718,0.48693155111780295 l -7.48211666681799 0.7085642274750324" fill="#ff5607" stroke="none" /><path d="M 120.9064616781168 98.02013634271609 l 9.892344364034926 -0.936815296305765 a30.936604043436873,30.936604043436873 0 0,0 0.04553039795319322,0.5291322399083579 l -9.90696838468586 0.7668620090217451" fill="#ff770b" stroke="none" /><path d="M 120.98066250479742 99.09900007780936 l 16.96456127153185 -0.7285312550141588 a37.98019719924038,37.98019719924038 0 0,0 0.022381753726763407,0.6516203391193174 l -16.97456771225546 0.4372046513307215" fill="#ffd413" stroke="none" /><line stroke="#e1ed5e" stroke-width="0.3" x1="184.99686870605535" x2="189.99668451229388" y1="99.2704041080226" y2="99.22748670261217" /><path d="M 185.99683186730306 99.26182062694052 a86.0,86.0 0 0,1 -10.086455211305974,41.156179273409016" fill="none" id="id52" stroke="none" /><text fill="#e1ed5e" style="font-size:6.75px; font-family:Arial;" text-anchor="middle"><textPath startOffset="21.40746469413373" xlink:href="#id52">April</textPath></text><path d="M 120.99922638620191 99.81974689727618 l 7.493238252804979 -0.06432043827121525 a28.493514304522225,28.493514304522225 0 0,0 0.0,0.48914708199008333 l -7.493238252804979 -0.06432043827121435" fill="#ff5507" stroke="none" /><path d="M 120.99922638620191 100.18025310272382 l 7.50144274603448 0.06439086397803305 a28.501719100006156,28.501719100006156 0 0,0 -0.008399278009806123,0.48921583570383104 l -7.499232036426006 -0.19315361565093514" fill="#ff5607" stroke="none" /><path d="M 120.99303781780057 100.54070618675476 l 9.940467911230504 0.256031192126084 a30.94376459222285,30.94376459222285 0 0,0 -0.01823517963450847,0.530897358732418 l -9.93460804459915 -0.42663481542261267" fill="#ff770b" stroke="none" /><path d="M 120.98066250479742 100.90099992219065 l 7.655775258816393 0.3287719303871062 a28.66283144769058,28.66283144769058 0 0,0 -0.02533031396872863,0.49140132394557556 l -7.649003355391092 -0.4601450477094124" fill="#ff5808" stroke="none" /><path d="M 120.93736805541906 101.62068470465957 l 7.551629746665695 0.5845439022363479 a28.574219656464148,28.574219656464148 0 0,0 -0.04205360065811011,0.488726585155557 l -7.540482523309843 -0.7140915347675623" fill="#ff5708" stroke="none" /><path d="M 120.86939407059847 102.33845913500097 l 7.771281348812293 0.8707882844761344 a28.819915986682894,28.819915986682894 0 0,0 -0.05931126871981913,0.4911823886747595 l -7.75518799383281 -1.0040643500743025" fill="#ff5a08" stroke="none" /><path d="M 120.82617615685814 102.69636545807757 l 7.444950885418706 0.9638979452268053 a28.507089511595638,28.507089511595638 0 0,0 -0.06699910402136663,0.4847721411322633 l -7.4273072648421286 -1.0915583945591536" fill="#ff5607" stroke="none" /><path d="M 120.51834098615036 104.47187691870673 l 14.768780341795578 3.218786936648742 a36.11547095289287,36.11547095289287 0 0,0 -0.137220110084311,0.6046171238409461 l -14.711349370153602 -3.471838394428705" fill="#ffbc11" stroke="none" /><path d="M 120.43855184770803 104.8234425847677 l 7.310883653439075 1.725348635707505 a28.511714032686577,28.511714032686577 0 0,0 -0.11650765259070818,0.47539098090403414 l -7.280188474332071 -1.8505954412196388" fill="#ff5607" stroke="none" /><path d="M 120.35273937422433 105.17358676015961 l 7.291321145272291 1.8534253226386717 a28.523200746364083,28.523200746364083 0 0,0 -0.12470142236355197,0.4735116122795585 l -7.258430242104009 -1.9783174392910334" fill="#ff5607" stroke="none" /><path d="M 120.16314734710363 105.8691983318838 l 7.460451413317391 2.1716286766327864 a28.77009050138049,28.77009050138049 0 0,0 -0.14210188860151446,0.47301097101992345 l -7.422073204712246 -2.299377251243433" fill="#ff5908" stroke="none" /><path d="M 120.05942366710727 106.21446072829308 l 5.852046660736524 1.812979014592507 a27.126446198799947,27.126446198799947 0 0,0 -0.14161979233135416,0.4436219824082172 l -5.820062152627915 -1.9131700306921078" fill="#ff4206" stroke="none" /><path d="M 119.94978838288452 106.5578916946017 l 14.498003271114754 4.765781642151163 a36.26121795630739,36.26121795630739 0 0,0 -0.19946187169025892,0.5896735816003085 l -14.414055977852131 -5.013956898225632" fill="#ffbe11" stroke="none" /><path d="M 119.71291397450082 107.23885506374661 l 7.0597246014374475 2.5924286610227565 a28.520664718669046,28.520664718669046 0 0,0 -0.17271206806813105,0.4581392799787812 l -7.014181849554875 -2.713236221195696" fill="#ff5607" stroke="none" /><path d="M 119.58574465831526 107.57618678355244 l 7.007225268198947 2.7105452660828346 a28.513205813683655,28.513205813683655 0 0,0 -0.18050396961117662,0.45498791734027055 l -6.959662623621646 -2.8304342006366694" fill="#ff5607" stroke="none" /><path d="M 119.0197475246899 108.90220220490707 l 5.751402600654961 2.691946822448351 a27.350213348361645,27.350213348361645 0 0,0 -0.2026790712488933,0.42352130698758716 l -5.704344271446156 -2.7902806315010418" fill="#ff4506" stroke="none" /><path d="M 118.5362547648365 109.86951160357373 l 4.116992627362896 2.1920666835388074 a25.664202465464086,25.664202465464086 0 0,0 -0.21039103823062505,0.38709581350785327 l -4.078756239516931 -2.2624173305212643" fill="#ff2d04" stroke="none" /><line stroke="#e1ed5e" stroke-width="0.3" x1="174.33088141563837" x2="178.70328620479359" y1="141.23008692659167" y2="143.65538615756765" /><path d="M 175.20536237346943 141.71514677278685 a86.0,86.0 0 0,1 -30.301960400862466,31.631185727798858" fill="none" id="id53" stroke="none" /><text fill="#e1ed5e" style="font-size:6.75px; font-family:Arial;" text-anchor="middle"><textPath startOffset="22.145653131862474" xlink:href="#id53">May</textPath></text><path d="M 118.18653347947321 110.5 l 6.534403383678558 3.772639552560415 a28.545279105120834,28.545279105120834 0 0,0 -0.24865152381000405,0.42226464784477813 l -6.468678149738789 -3.8842553686987427" fill="#ff5608" stroke="none" /><path d="M 117.81537515405839 111.11811171558189 l 6.447998627319538 4.02402803536395 a28.600624180112426,28.600624180112426 0 0,0 -0.2635102279670734,0.41428184624974856 l -6.377970707726574 -4.134123556292371" fill="#ff5708" stroke="none" /><path d="M 117.62189284568427 111.42229804090321 l 8.92102222740205 5.782498827069203 a31.631177275676393,31.631177275676393 0 0,0 -0.2992543758496651,0.45310926649274763 l -8.820443412631658 -5.934787971901011" fill="#ff810b" stroke="none" /><path d="M 117.21940702142032 112.02048342749411 l 6.1642862711450865 4.303150559856918 a28.51768115667489,28.51768115667489 0 0,0 -0.2836625246936206,0.3990068650127779 l -6.089508647921505 -4.4083346515791995" fill="#ff5607" stroke="none" /><path d="M 116.79662413953412 112.60449989151573 l 6.049209242123871 4.539439389885708 a28.56303129898606,28.56303129898606 0 0,0 -0.29766490097858156,0.3896529105526555 l -5.970392363790984 -4.642613213679241" fill="#ff5608" stroke="none" /><path d="M 116.57777611688842 112.89097897827486 l 5.930352650120054 4.611478090150682 a28.51231074508541,28.51231074508541 0 0,0 -0.30376957398356735,0.3838029333591778 l -5.850316645494925 -4.712600967424543" fill="#ff5607" stroke="none" /><path d="M 116.35404254752997 113.17365903436017 l 6.010172789587243 4.841369761482611 a28.717579810283343,28.717579810283343 0 0,0 -0.3125473433051823,0.381256939345163 l -5.926178627043433 -4.9438289825262665" fill="#ff5908" stroke="none" /><path d="M 116.1254893667686 113.45245675266167 l 8.112841630322363 6.76802103122623 a31.565240555605545,31.565240555605545 0 0,0 -0.35068296313468966,0.41310364879289596 l -7.9954641036805585 -6.906291462468682" fill="#ff800b" stroke="none" /><path d="M 115.6541949942343 113.99807769240083 l 7.8921883215034505 7.057243462736583 a31.5873189143623,31.5873189143623 0 0,0 -0.3649121996602414,0.40110243063508866 l -7.769878421001329 -7.191683468929344" fill="#ff800b" stroke="none" /><path d="M 115.16444852881244 114.52719865689866 l 7.747077864324238 7.4215253480314916 a31.72829221858617,31.72829221858617 0 0,0 -0.38015509995906765,0.390072622394416 l -7.618535963214364 -7.553420662493645" fill="#ff820c" stroke="none" /><path d="M 114.91283532996324 114.78537596483092 l 7.652859419080673 7.5874507572520855 a31.776625922891498,31.776625922891498 0 0,0 -0.38738442796513506,0.38407346984361723 l -7.521483070985573 -7.717704237324364" fill="#ff830c" stroke="none" /><path d="M 114.65682725009322 115.03919595460226 l 7.39081500268426 7.583627288018689 a31.58940740775821,31.58940740775821 0 0,0 -0.3915996144499805,0.375143572301426 l -7.259542902368968 -7.709382990625694" fill="#ff800b" stroke="none" /><path d="M 114.39649973595853 115.28858382429668 l 8.302888069516506 8.817379402126198 a33.111322380977185,33.111322380977185 0 0,0 -0.4171557206872423,0.3861131072948132 l -8.150302577515298 -8.95861025555339" fill="#ff950d" stroke="none" /><path d="M 113.86319453409587 115.77377054828091 l 8.013730958605569 9.118154770591154 a33.139218685622545,33.139218685622545 0 0,0 -0.43052661343162096,0.37187863470484855 l -7.856024865411092 -9.25437753776072" fill="#ff950d" stroke="none" /><path d="M 113.31354834802062 116.24036423190432 l 4.810498750979514 5.868026300039176 a28.587794863537557,28.587794863537557 0 0,0 -0.3821905421514399,0.3078656469082472 l -4.709057438472822 -5.949740240740827" fill="#ff5708" stroke="none" /><path d="M 113.03279911837588 116.46651593811092 l 4.673876528072153 5.90529030971925 a28.531107185648594,28.531107185648594 0 0,0 -0.3866509225515191,0.30066209601326027 l -4.571815660885403 -5.9846534573533035" fill="#ff5608" stroke="none" /><path d="M 112.7482090630111 116.68781488649013 l 7.5056781116758415 9.825173583687887 a33.364030081882206,33.364030081882206 0 0,0 -0.4581151596191435,0.34377815635763526 l -7.335909963145932 -9.952570767309536" fill="#ff980e" stroke="none" /><path d="M 112.45986205192187 116.90419585922612 l 6.257841607900247 8.489963994396199 a31.547040827441194,31.547040827441194 0 0,0 -0.4386826184819315,0.317572385542053 l -6.1111779790443475 -8.59613715131133" fill="#ff7f0b" stroke="none" /><path d="M 111.8722381534696 117.32195027204791 l 6.807348855084973 9.932125419654232 a33.04105949601481,33.04105949601481 0 0,0 -0.47060493049837077,0.3166439996700492 l -6.635847636489599 -10.047519093381402" fill="#ff940d" stroke="none" /><path d="M 111.27062007382361 117.71928675628689 l 5.775287405143037 9.079711050625829 a31.760813044322468,31.760813044322468 0 0,0 -0.46255218703606427,0.28866677492234216 l -5.618571089317258 -9.17751362238972" fill="#ff820c" stroke="none" /><path d="M 110.96478420261333 117.91015095944535 l 6.412433575001146 10.474228331672391 a33.28123623654437,33.28123623654437 0 0,0 -0.4898161877137868,0.2941205471599586 l -6.231684630729923 -10.582762879368273" fill="#ff970d" stroke="none" /><line stroke="#e1ed5e" stroke-width="0.3" x1="143.1302829299769" x2="145.66735839644613" y1="173.24464959558577" y2="177.55315839532614" /><path d="M 143.63769802327073 174.10635135553383 a86.0,86.0 0 0,1 -40.68552437913181,11.842963189579606" fill="none" id="id54" stroke="none" /><text fill="#e1ed5e" style="font-size:6.75px; font-family:Arial;" text-anchor="middle"><textPath startOffset="21.407464694133747" xlink:href="#id54">June</textPath></text><path d="M 110.65571695917076 118.09573695890943 l 5.345520697440861 9.07786278670296 a31.534808223265152,31.534808223265152 0 0,0 -0.4688287929467249,0.27067842981164 l -5.188899436633738 -9.168288113790773" fill="#ff7f0b" stroke="none" /><path d="M 110.34350942703117 118.27599006163325 l 7.392118819625039 13.06116565513257 a36.007913543003546,36.007913543003546 0 0,0 -0.5405573341335592,0.299838041076212 l -7.166817297335385 -13.186136611641926" fill="#ffbb11" stroke="none" /><path d="M 110.02825361518725 118.45085714620011 l 5.598158825631227 10.299981705392122 a32.723011787437784,32.723011787437784 0 0,0 -0.49584896818624474,0.2640116467549744 l -5.420521041658429 -10.394563819869665" fill="#ff8f0d" stroke="none" /><path d="M 109.71004243097381 118.62028667847754 l 5.54578402409317 10.634772105231615 a32.99391921650715,32.99391921650715 0 0,0 -0.5044499671143607,0.257575747556912 l -5.362406835265228 -10.728405804461364" fill="#ff930d" stroke="none" /><path d="M 109.06512990194946 118.94263497670748 l 5.335284249442935 11.148692090164129 a33.359554738890964,33.359554738890964 0 0,0 -0.518679577260437,0.24276823182506582 l -5.143115958310991 -11.238636553559727" fill="#ff980e" stroke="none" /><path d="M 108.73861861582097 119.09545874513695 l 4.367902236238988 9.544654667030251 a31.496618629739956,31.496618629739956 0 0,0 -0.4935769069721518,0.2207706724438406 l -4.203411926411209 -9.618229090383942" fill="#ff7f0b" stroke="none" /><path d="M 108.4095320186766 119.2426549942271 l 7.805192860526933 17.859808731920385 a40.49086461732266,40.49086461732266 0 0,0 -0.6393024039584208,0.27288018097905886 l -7.4974553813980815 -17.99116356255885" fill="#fff316" stroke="none" /><path d="M 108.07796709384702 119.3841803445677 l 7.488962607325546 17.970783996470608 a40.4687862585659,40.4687862585659 0 0,0 -0.6435414586707463,0.2617227087943863 l -7.179366687464359 -18.096693961844284" fill="#fff316" stroke="none" /><path d="M 107.74402155503746 119.51999308798841 l 4.0320571414383926 10.163417931094708 a31.934008818083228,31.934008818083228 0 0,0 -0.5112904540198002,0.1977781313847954 l -3.856994424925063 -10.231135950617544" fill="#ff850c" stroke="none" /><path d="M 107.407793817531 119.65005319985036 l 4.308235671855037 11.428106968784482 a33.21321102307762,33.21321102307762 0 0,0 -0.5352243294576284,0.19654178740628644 l -4.111422190743282 -11.50037960519949" fill="#ff960d" stroke="none" /><path d="M 106.72888874123015 119.89276391827305 l 3.8496794746500393 11.380893323588305 a33.01435661616712,33.01435661616712 0 0,0 -0.5384126891536347,0.17698694515967833 l -3.6537440478486705 -11.445301190150003" fill="#ff930d" stroke="none" /><path d="M 106.38641147887787 120.00534299687104 l 3.219216309165896 10.084149237640512 a31.585528777165806,31.585528777165806 0 0,0 -0.5179415571485674,0.16045961837521314 l -3.045634119145704 -10.137925443822368" fill="#ff800b" stroke="none" /><path d="M 106.0420521117495 120.11202640906438 l 4.30880034367618 14.34259498273487 a35.97584025156637,35.97584025156637 0 0,0 -0.5929846142494511,0.1726091789576471 l -4.061955717045122 -14.414447855995034" fill="#ffba11" stroke="none" /><path d="M 105.69591212413111 120.21278271476187 l 6.080855620995589 21.578811384098 a43.419230714586774,43.419230714586774 0 0,0 -0.7191436190305156,0.196005791256396 l -5.709530601030378 -21.680017669498536" fill="#e7ff1a" stroke="none" /><path d="M 105.3480935250658 120.30758222061773 l 3.9147430663204794 14.864917062369084 a36.37175892819087,36.37175892819087 0 0,0 -0.6051476212186565,0.15382615890241527 l -3.658990151876426 -14.929928453106768" fill="#ffbf11" stroke="none" /><path d="M 104.9986988182912 120.39639698878246 l 3.5672694958173365 14.55567687663506 a35.98643189664563,35.98643189664563 0 0,0 -0.601261040674408,0.141895968450226 l -3.3168763014030493 -14.61476898873151" fill="#ffba11" stroke="none" /><path d="M 104.29559338865022 120.5559693870025 l 3.066024358023233 14.672036466452816 a35.988967924340656,35.988967924340656 0 0,0 -0.6058203163508582,0.12118103025766921 l -2.813707556141416 -14.722506893373348" fill="#ffba11" stroke="none" /><path d="M 103.94208987418118 120.62667999033965 l 2.2434443051161685 11.738648593696258 a32.95110510189101,32.95110510189101 0 0,0 -0.5565053557499664,0.10141381398641792 l -2.041604215815145 -11.775430581614039" fill="#ff920d" stroke="none" /><path d="M 103.58742460773223 120.69131181640829 l 2.5746032568418658 14.849627411272863 a36.07116505727965,36.07116505727965 0 0,0 -0.6110154715219184,0.10054236332027226 l -2.319310282266875 -14.891635773088806" fill="#ffbb11" stroke="none" /><path d="M 103.2317021107853 120.74984581791261 l 3.4770370266814785 22.325071969359826 a43.59421662554402,43.59421662554402 0 0,0 -0.7404267910015045,0.10881724028033493 l -3.0932851300722883 -22.381470282939045" fill="#e5ff1a" stroke="none" /><path d="M 102.875027216393 120.80226474461374 l 1.6712047935635963 12.092005376489428 a33.20694554288988,33.20694554288988 0 0,0 -0.5653437856594477,0.07319507163051384 l -1.4633831860133735 -12.118912044320338" fill="#ff960d" stroke="none" /><path d="M 102.51750503828377 120.84855314841334 l 1.462793025614263 12.114024669614095 a33.20202266559953,33.20202266559953 0 0,0 -0.5664329864438497,0.0634699975971814 l -1.2546241375696139 -12.137350427718248" fill="#ff960d" stroke="none" /><path d="M 101.80034050326958 120.92268563240118 l 1.0388212897920377 12.07267804900892 a33.1172895049655,33.1172895049655 0 0,0 -0.5668276503375849,0.04387604500473402 l -0.831424644679217 -12.088731861008707" fill="#ff950d" stroke="none" /><path d="M 101.44090949804482 120.95050786540614 l 1.027123215125275 14.934146125362009 a35.969425593278935,35.969425593278935 0 0,0 -0.6163714738234515,0.0370793772798287 l -0.7706073891693584 -14.949577480466528" fill="#ffba11" stroke="none" /><path d="M 101.08105385017728 120.97215588758144 l 0.6225542544575006 12.077386219769394 a33.093421009012246,33.093421009012246 0 0,0 -0.567590368620834,0.024374772619622204 l -0.41513812523583704 -12.086293560814847" fill="#ff940d" stroke="none" /><path d="M 100.72087961077811 120.9876233191556 l 1.2882560443978914 37.506169122004145 a58.52828700919221,58.52828700919221 0 0,0 -1.0044197803980532,0.025870290620809786 l -0.6442229499290943 -37.522757129975" fill="#41ff2d" stroke="none" /><line stroke="#e1ed5e" stroke-width="0.3" x1="101.45913802915013" x2="101.54496967792366" y1="184.9874750549273" y2="189.98673829345242" /><path d="M 101.47630435890484 185.9873277026323 a86.0,86.0 0 0,1 -42.54439059252881,-10.42667462771756" fill="none" id="id55" stroke="none" /><text fill="#e1ed5e" style="font-size:6.75px; font-family:Arial;" text-anchor="middle"><textPath startOffset="22.145653131862474" xlink:href="#id55">July</textPath></text><path d="M 100.36049292484886 120.99690560180557 l 0.31592064317240603 18.400793649789108 a39.4035054485525,39.4035054485525 0 0,0 -0.676413568021256,0.005806196957828906 l -2.2537794040660694e-15 -18.4035054485525" fill="#ffe615" stroke="none" /><path d="M 100.0 121.0 l 1.4993407883185184e-15 12.243046643019177 a33.24304664301918,33.24304664301918 0 0,0 -0.570661100725181,-0.004898439214746384 l 0.21016817587632727 -12.241242601998866" fill="#ff960d" stroke="none" /><path d="M 99.27912038922189 120.98762331915562 l -0.5137415594497065 14.957024962167932 a35.96584531888595,35.96584531888595 0 0,0 -0.6168557610513157,-0.02649044054652864 l 0.770423081101861 -14.946001953195575" fill="#ffba11" stroke="none" /><path d="M 98.91894614982273 120.97215588758144 l -0.6313012081603195 12.247074784836778 a33.263334864579434,33.263334864579434 0 0,0 -0.5699999484727913,-0.03428978146538666 l 0.8414455087655571 -12.2344330255467" fill="#ff970d" stroke="none" /><path d="M 98.55909050195518 120.95050786540614 l -1.3416596119680486 19.5074363042057 a40.55351941919993,40.55351941919993 0 0,0 -0.6941043928688102,-0.05372806983102843 l 1.676332999612095 -19.481530467379617" fill="#fff417" stroke="none" /><path d="M 98.19965949673042 120.92268563240118 l -1.9380110427558153 22.522625984397013 a43.60585251732124,43.60585251732124 0 0,0 -0.7452456908302487,-0.07057554175064834 l 2.3243562969710796 -22.486038687141182" fill="#e5ff1a" stroke="none" /><path d="M 97.84075906011543 120.88869738790638 l -1.2557898742828055 12.148627872947255 a33.21336020117732,33.21336020117732 0 0,0 -0.5666264070134615,-0.0634916707754431 l 1.4641521828970663 -12.125280441664842" fill="#ff960d" stroke="none" /><path d="M 94.30408787586889 120.21278271476187 l -0.9168320691761599 3.253513571895243 a24.38022656127905,24.38022656127905 0 0,0 -0.40185577714546433,-0.11697436001819773 l 0.972547858703231 -3.2372955175745295" fill="#ff1b02" stroke="none" /><path d="M 90.6110303473126 118.78422872680471 l -3.357240179849634 6.7167292857383964 a28.50902882689184,28.50902882689184 0 0,0 -0.4358796710332254,-0.22256326579518126 l 3.4720470725964416 -6.658108068270379" fill="#ff5607" stroke="none" /><path d="M 90.28995756902619 118.62028667847754 l -7.080117604092282 13.57705905434569 a36.31223686640746,36.31223686640746 0 0,0 -0.5502361854618278,-0.2929697765820263 l 7.3121426053406715 -13.453518810041091" fill="#ffbf11" stroke="none" /><path d="M 89.97174638481275 118.45085714620012 l -5.08688444545771 9.359294431906433 a31.652360565834897,31.652360565834897 0 0,0 -0.47517098223609733,-0.26356933389553955 l 5.24679961584991 -9.270592182577746" fill="#ff810b" stroke="none" /><line stroke="#e1ed5e" stroke-width="0.3" x1="58.13341422392154" x2="55.67067388415222" y1="173.97424548756322" y2="178.32567169271397" /><path d="M 57.64086615596768 174.84453072859336 a86.0,86.0 0 0,1 -31.369924170532247,-30.572349798747897" fill="none" id="id56" stroke="none" /><text fill="#e1ed5e" style="font-size:6.75px; font-family:Arial;" text-anchor="middle"><textPath startOffset="22.145653131862474" xlink:href="#id56">August</textPath></text><path d="M 89.03521579738668 117.91015095944536 l -7.818673107628389 12.771214925215299 a35.974497648669,35.974497648669 0 0,0 -0.52391865855872,-0.3269639917970869 l 8.036755894976823 -12.635115136576665" fill="#ffba11" stroke="none" /><path d="M 88.4268655584334 117.5232005979908 l -4.946467178064692 7.489581759396885 a29.975598725119223,29.975598725119223 0 0,0 -0.426943468818944,-0.28726661970300893 l 5.074306934980642 -7.403565465636755" fill="#ff6a09" stroke="none" /><path d="M 87.2517909369889 116.68781488649013 l -9.426902048877405 12.340117389601645 a36.52884346718319,36.52884346718319 0 0,0 -0.4950355040350829,-0.38494260213315706 l 9.637347497547717 -12.176473735847694" fill="#ffc112" stroke="none" /><path d="M 85.60350026404147 115.28858382429668 l -6.812833267973703 7.234992839142239 a30.937797468234535,30.937797468234535 0 0,0 -0.3835219003670412,-0.367405304935255 l 6.936027654206059 -7.116975403901402" fill="#ff770b" stroke="none" /><path d="M 84.83555147118756 114.52719865689866 l -9.432527281216405 9.036147763005921 a34.06233276661442,34.06233276661442 0 0,0 -0.40087175393348723,-0.4257119108957417 l 9.586254868886146 -8.872894392165689" fill="#ffa10e" stroke="none" /><path d="M 84.58840730492382 114.26474011684316 l -7.403997516364415 6.853029565882155 a31.08876570513883,31.08876570513883 0 0,0 -0.35915266847879984,-0.3947716969453217 l 7.520547885685095 -6.724920293379158" fill="#ff790b" stroke="none" /><path d="M 84.3458050057657 113.99807769240083 l -5.575051349287088 4.9852452940050975 a28.478894850750862,28.478894850750862 0 0,0 -0.3227458040554912,-0.3672254793850628 l 5.659808217301173 -4.888807536808734" fill="#ff5507" stroke="none" /><path d="M 84.1078160697243 113.72728997021213 l -11.901808778652736 10.28049895416406 a36.727101161694854,36.727101161694854 0 0,0 -0.4080301127451269,-0.48065844683663367 l 12.076533454904975 -10.07467372487787" fill="#ffc412" stroke="none" /><path d="M 83.8745106332314 113.45245675266167 l -5.754581310321142 4.800676397846477 a28.49411101692106,28.49411101692106 0 0,0 -0.31011522408975745,-0.3782901493593982 l 5.836143353649529 -4.701183966788583" fill="#ff5507" stroke="none" /><path d="M 83.4222238831116 112.89097897827486 l -11.885789003216303 9.242461419453079 a36.05639642540858,36.05639642540858 0 0,0 -0.3757557648300157,-0.49187635808458086 l 12.042696745400614 -9.037064148127628" fill="#ffbb11" stroke="none" /><path d="M 83.20337586046588 112.60449989151573 l -12.437760294271815 9.333527200317292 a36.550325113541106,36.550325113541106 0 0,0 -0.37228765358765936,-0.5050797020057547 l 12.596149967443305 -9.118641189042657" fill="#ffc212" stroke="none" /><path d="M 82.98947788004972 112.3143062007846 l -6.053015581054969 4.381916485432893 a28.472629370563133,28.472629370563133 0 0,0 -0.2832143990791918,-0.3983765202157757 l 6.1273450786641215 -4.277362738507613" fill="#ff5507" stroke="none" /><path d="M 82.37810715431573 111.42229804090323 l -12.685214164229096 8.222402562843723 a36.11696273388995,36.11696273388995 0 0,0 -0.3327615867245113,-0.5231564845613966 l 12.824493442579497 -8.003432403603654" fill="#ffbc11" stroke="none" /><path d="M 82.18462484594161 111.11811171558189 l -7.616484816250672 4.75324983812186 a29.97798557471455,29.97798557471455 0 0,0 -0.26870558315500165,-0.43891037607515065 l 7.696958363861079 -4.621802345922152" fill="#ff6a09" stroke="none" /><path d="M 81.99639281039703 110.81064883170644 l -11.529003350923366 6.922835257057615 a34.447808976259374,34.447808976259374 0 0,0 -0.30006713762788245,-0.5095796006343635 l 11.64614419868102 -6.723904488129693" fill="#ffa60f" stroke="none" /><line stroke="#e1ed5e" stroke-width="0.3" x1="26.387840678322732" x2="22.057713659400548" y1="142.50000000000003" y2="145.00000000000006" /><path d="M 25.521815274538298 143.00000000000003 a86.0,86.0 0 0,1 -11.493303480769221,-40.785679425670985" fill="none" id="id57" stroke="none" /><text fill="#e1ed5e" style="font-size:6.75px; font-family:Arial;" text-anchor="middle"><textPath startOffset="21.40746469413373" xlink:href="#id57">September</textPath></text><path d="M 81.81346652052679 110.50000000000001 l -12.939485551297839 7.470615466217089 a35.941230932434166,35.941230932434166 0 0,0 -0.3039030206505659,-0.536967518064536 l 13.065821936969783 -7.247391178053432" fill="#ffba11" stroke="none" /><path d="M 81.63589988554817 110.18625677009913 l -16.398906499103013 9.096196998907343 a39.752731379968466,39.752731379968466 0 0,0 -0.3258865510740089,-0.5995945486089582 l 16.552638399792354 -8.813347616823798" fill="#ffea16" stroke="none" /><path d="M 81.4637452351635 109.86951160357371 l -7.921385609828473 4.217691663414812 a29.974256122221853,29.974256122221853 0 0,0 -0.23792698257393383,-0.4562563609340986 l 7.992620661377356 -4.08108905937621" fill="#ff6a09" stroke="none" /><path d="M 81.29705330413844 109.54985784667822 l -6.656708550766146 3.3989628169474777 a28.474270329659923,28.474270329659923 0 0,0 -0.21854692204604995,-0.43724024287128394 l 6.714075386023933 -3.2841907179124408" fill="#ff5507" stroke="none" /><path d="M 81.1358732173502 109.22738970284198 l -8.221368760512428 4.021483438808976 a30.15222559517326,30.15222559517326 0 0,0 -0.22344341529909512,-0.46691079992680484 l 8.289191433771435 -3.879760136817066" fill="#ff6c0a" stroke="none" /><path d="M 80.9802524753101 108.90220220490708 l -13.763211269458708 6.4418778193836665 a36.19617630483479,36.19617630483479 0 0,0 -0.25857089326526334,-0.5650240664011645 l 13.871766627579028 -6.204664770767813" fill="#ffbd11" stroke="none" /><path d="M 80.68587082218212 108.24405325689762 l -8.629054635038143 3.683230308391825 a30.382258224922687,30.382258224922687 0 0,0 -0.20063019049597952,-0.4814394203340244 l 8.69101067007061 -3.534558378616519" fill="#ff700a" stroke="none" /><path d="M 80.41425534168474 107.57618678355246 l -6.962703147521006 2.6933231533605277 a28.465468821777158,28.465468821777158 0 0,0 -0.17237781928413784,-0.45725264536809695 l 7.0079116506195795 -2.5734022277982858" fill="#ff5507" stroke="none" /><path d="M 80.28708602549918 107.23885506374661 l -17.015373048586927 6.248280670915879 a39.126332539295404,39.126332539295404 0 0,0 -0.22611262208442956,-0.6324772467669756 l 17.1201258407153 -5.955268467767982" fill="#ffe215" stroke="none" /><path d="M 80.16572619554312 106.89939002012753 l -11.503262616564504 4.001431868798609 a33.179347594443946,33.179347594443946 0 0,0 -0.18250944523219434,-0.5395567450258267 l 11.570257483369065 -3.803373449298621" fill="#ff950d" stroke="none" /><path d="M 80.05021161711548 106.5578916946017 l -10.26305349739848 3.3736695347397427 a31.803328802739195,31.803328802739195 0 0,0 -0.1660365234532252,-0.520107044883577 l 10.31945473662896 -3.196993456164774" fill="#ff830c" stroke="none" /><path d="M 79.83685265289637 105.86919833188381 l -30.38480322090551 8.84457338473864 a52.64589618151423,52.64589618151423 0 0,0 -0.24513310070065872,-0.8698908959052846 l 30.532154813680744 -8.32167456493036" fill="#7eff26" stroke="none" /><path d="M 79.73907114497094 105.5222062557868 l -7.2125172273465905 1.9658036429527899 a28.47561293255729,28.47561293255729 0 0,0 -0.12449337179721692,-0.47272161039159144 l 7.24520007994854 -1.8417015281883957" fill="#ff5507" stroke="none" /><path d="M 79.64726062577567 105.17358676015961 l -8.691435241181885 2.209328850715307 a29.96784146393442,29.96784146393442 0 0,0 -0.12245783814227579,-0.49966976846021516 l 8.728080605840455 -2.059803257646992" fill="#ff6a09" stroke="none" /><path d="M 79.17382384314188 102.69636545807758 l -10.450862935374733 1.353073440549391 a31.538090141458724,31.538090141458724 0 0,0 -0.0649052599651709,-0.5375086609232325 l 10.472550281599565 -1.1734711027027591" fill="#ff7f0b" stroke="none" /><path d="M 79.13060592940153 102.33845913500099 l -12.21048868778282 1.3682107261082093 a33.28690500433326,33.28690500433326 0 0,0 -0.0587555204857472,-0.5684063619881699 l 12.232176600750234 -1.158399841837108" fill="#ff970d" stroke="none" /><path d="M 79.0935383218832 101.97986365728391 l -14.968391715268988 1.4175222580141624 a36.03536231334978,36.03536231334978 0 0,0 -0.05303440494666668,-0.6163401758641673 l 14.990519742913396 -1.160361034774333" fill="#ffbb11" stroke="none" /><path d="M 79.06263194458094 101.62068470465958 l -15.036478295524427 1.1639185174086277 a36.08145834615949,36.08145834615949 0 0,0 -0.042500588327221506,-0.6179492266808292 l 15.054242845016715 -0.9056258665734551" fill="#ffbc11" stroke="none" /><path d="M 79.01933749520258 100.90099992219065 l -22.62945043796851 0.9718059703388593 a43.65030759103416,43.65030759103416 0 0,0 -0.02572315329156684,-0.74890154166185 l 22.642798278256926 -0.5831981641128894" fill="#e4ff1a" stroke="none" /><path d="M 79.00696218219943 100.54070618675478 l -3.100384473865943 0.07985490622592419 a24.10141269292517,24.10141269292517 0 0,0 -0.007102535286616486,-0.41368707307940494 l 3.1012984407512256 -0.026620917177466865" fill="#ff1702" stroke="none" /><line stroke="#e1ed5e" stroke-width="0.3" x1="15.003131293944662" x2="10.003315487706104" y1="100.72959589197737" y2="100.7725132973878" /><path d="M 14.003168132696942 100.73817937305945 a86.0,86.0 0 0,1 10.791469493833604,-42.45332614584628" fill="none" id="id58" stroke="none" /><text fill="#e1ed5e" style="font-size:6.75px; font-family:Arial;" text-anchor="middle"><textPath startOffset="22.145653131862435" xlink:href="#id58">October</textPath></text><path d="M 79.00077361379809 100.18025310272382 l -15.062703706342228 0.12929519538214124 a36.06325861799514,36.06325861799514 0 0,0 0.0,-0.619096596211912 l 15.062703706342228 0.12929519538213569" fill="#ffbb11" stroke="none" /><path d="M 79.00077361379809 99.81974689727619 l -12.05971001174084 -0.10351810621909759 a33.06015429277741,33.06015429277741 0 0,0 0.009742620295214664,-0.5674587892081233 l 12.05615595984696 0.31052381139627333" fill="#ff940d" stroke="none" /><path d="M 79.03789590574601 98.7389718711861 l -15.035927050582282 -0.9045240338624041 a36.06310943989543,36.06310943989543 0 0,0 0.04247897502922901,-0.6176349740714585 l 15.01818411438799 1.1625024320881876" fill="#ffbb11" stroke="none" /><path d="M 79.06263194458094 98.37931529534042 l -17.943022098516973 -1.3889033900279961 a38.99669677064932,38.99669677064932 0 0,0 0.05739269637787572,-0.6669901286614286 l 17.916535779441354 1.6967145660651053" fill="#ffe115" stroke="none" /><path d="M 79.0935383218832 98.0201363427161 l -14.992005382399286 -1.419758496842433 a36.05908163120333,36.05908163120333 0 0,0 0.06364875644652826,-0.6157439811228954 l 14.965424233471094 1.6769070002482411" fill="#ffbb11" stroke="none" /><path d="M 79.13060592940154 97.66154086499901 l -14.951488704154253 -1.6753454951215565 a36.045058889830784,36.045058889830784 0 0,0 0.0741805831364706,-0.614321642492264 l 14.920526034758113 1.9317608145372567" fill="#ffbb11" stroke="none" /><path d="M 79.22317932658666 96.9465228501225 l -31.81286776226371 -4.6753960247849475 a53.15459350151783,53.15459350151783 0 0,0 0.14042559683148337,-0.9016330661843047 l 31.727920673293962 5.220817272900702" fill="#79ff26" stroke="none" /><path d="M 79.2786578344484 96.59031103205396 l -14.827019850052439 -2.4397804739833524 a36.02641162736731,36.02641162736731 0 0,0 0.10565205405577653,-0.6093729718529256 l 14.782952978504428 2.693946478756871" fill="#ffbb11" stroke="none" /><path d="M 79.34024301695615 96.23510406497455 l -17.686474757222683 -3.223064868238704 a38.97775115198644,38.97775115198644 0 0,0 0.12560804471229814,-0.6572343668422937 l 17.628540420228227 3.526201800114312" fill="#ffe115" stroke="none" /><path d="M 79.48165901384962 95.52812308129327 l -15.238407879533211 -3.3211400726949507 a36.596122790151405,36.596122790151405 0 0,0 0.13904633846458098,-0.6126638230461628 l 15.179150679510968 3.582238229680122" fill="#ffc212" stroke="none" /><path d="M 79.56144815229197 95.17655741523228 l -18.13056750651795 -4.278764564562399 a39.62861520101157,39.62861520101157 0 0,0 0.16193473767298225,-0.6607489900704957 l 18.05444524232867 4.589369379241012" fill="#ffe915" stroke="none" /><path d="M 79.64726062577567 94.8264132398404 l -14.576136184150947 -3.7051968184740036 a36.03968847824131,36.03968847824131 0 0,0 0.1575629767058706,-0.5982922866593549 l 14.51038372664035 3.9548696095061433" fill="#ffbb11" stroke="none" /><path d="M 79.73907114497095 94.47779374421319 l -14.515709060640425 -3.9563210529685717 a36.045208067930496,36.045208067930496 0 0,0 0.16783594277941358,-0.5955905514685268 l 14.445654625786428 4.2049195283401115" fill="#ffbb11" stroke="none" /><path d="M 79.94057633289273 93.78553927170692 l -31.681818989680387 -9.815108508581147 a54.16736362043409,54.16736362043409 0 0,0 0.282793062196331,-0.8858452395502588 l 31.508661211706798 10.357522781822798" fill="#6eff28" stroke="none" /><path d="M 80.05021161711548 93.44210830539832 l -21.4791584698243 -7.060626019328614 a43.60988032601334,43.60988032601334 0 0,0 0.23988461624471644,-0.7091762432245599 l 21.35478843200722 7.428303937027335" fill="#e5ff1a" stroke="none" /><path d="M 80.16572619554312 93.10060997987247 l -14.203555697985548 -4.940733973884469 a36.038345875343936,36.038345875343936 0 0,0 0.20826702511091902,-0.5825599359301461 l 14.116648502830687 5.183828866195536" fill="#ffbb11" stroke="none" /><path d="M 80.28708602549916 92.7611449362534 l -14.120009342883737 -5.185063013215502 a36.04192614973692,36.04192614973692 0 0,0 0.21825843345107826,-0.5789564253907798 l 14.028920225618224 5.4266877188004266" fill="#ffbb11" stroke="none" /><path d="M 80.68587082218212 91.75594674310238 l -8.63701235956762 -3.6866269877979048 a30.39091055470574,30.39091055470574 0 0,0 0.2089246561310542,-0.47806049953658364 l 8.572453821419588 3.834349557110355" fill="#ff700a" stroke="none" /><path d="M 80.83023694016515 91.42560881287825 l -2.874415899072687 -1.2856896705609981 a24.14885132863225,24.14885132863225 0 0,0 0.17250965977146107,-0.3769647396374059 l 2.851921774446179 1.3348433924130754" fill="#ff1802" stroke="none" /><path d="M 80.9802524753101 91.09779779509293 l -14.9811013052204 -7.011911850993071 a37.5408676956009,37.5408676956009 0 0,0 0.2781970327437354,-0.5813248017256216 l 14.85852501451676 7.26804915478378" fill="#ffce13" stroke="none" /><path d="M 81.1358732173502 90.77261029715801 l -20.274489543617676 -9.917268803410595 a43.57004977339136,43.57004977339136 0 0,0 0.33441068589732637,-0.6690453846322693 l 20.101258944508604 10.263846044206634" fill="#e5ff1a" stroke="none" /><path d="M 81.29705330413844 90.45014215332179 l -13.426082787240722 -6.855453535792467 a36.07504368787205,36.07504368787205 0 0,0 0.28635327114975223,-0.5491201545237181 l 13.30642144711603 7.084919933420672" fill="#ffbc11" stroke="none" /><line stroke="#e1ed5e" stroke-width="0.3" x1="26.387840678322718" x2="22.05771365940052" y1="57.49999999999999" y2="54.99999999999999" /><path d="M 25.521815274538284 56.99999999999999 a86.0,86.0 0 0,1 29.574782752854787,-30.34633250058573" fill="none" id="id59" stroke="none" /><text fill="#e1ed5e" style="font-size:6.75px; font-family:Arial;" text-anchor="middle"><textPath startOffset="21.40746469413373" xlink:href="#id59">November</textPath></text><path d="M 81.99639281039701 89.18935116829357 l -26.46212315949909 -15.889744638725306 a51.86629143244127,51.86629143244127 0 0,0 0.46489988630848716,-0.7593790257020618 l 26.185455308735207 16.341660780551912" fill="#86ff25" stroke="none" /><path d="M 82.18462484594161 88.88188828441811 l -6.513174668400394 -4.06470270539756 a28.677450901461945,28.677450901461945 0 0,0 0.2642180666047648,-0.4153946861570722 l 6.44243891016974 4.175911066233304" fill="#ff5808" stroke="none" /><path d="M 82.37810715431573 88.57770195909679 l -12.632012249591536 -8.187917724542947 a36.053562041514134,36.053562041514134 0 0,0 0.34109341273829175,-0.5164589009351663 l 12.489594397932516 8.403556503817175" fill="#ffbb11" stroke="none" /><path d="M 82.576782715395 88.27688183743585 l -12.501600053037063 -8.411634444366879 a36.068032317185796,36.068032317185796 0 0,0 0.350049293291401,-0.510732380262024 l 12.35536102293035 8.625001559698937" fill="#ffbb11" stroke="none" /><path d="M 82.98947788004972 87.6856937992154 l -36.67891566402348 -26.55270634343466 a66.2812220291063,66.2812220291063 0 0,0 0.6751152157877305,-0.9159234498474418 l 36.21769842865193 27.178436102550968" fill="#37ff76" stroke="none" /><path d="M 83.42222388311158 87.10902102172516 l -13.456523417754243 -10.463874000699947 a38.046133919311224,38.046133919311224 0 0,0 0.4053427305741263,-0.5121372985781134 l 13.274914256538555 10.693331243192743" fill="#ffd513" stroke="none" /><path d="M 83.64595745247003 86.82634096563983 l -11.731071016100445 -9.449720411624671 a36.06370615229426,36.06370615229426 0 0,0 0.3924987976738212,-0.4787847137502697 l 11.567125399187994 9.649707407073434" fill="#ffbb11" stroke="none" /><path d="M 83.8745106332314 86.54754324733833 l -9.37736952037402 -7.822935171600205 a33.21201759827995,33.21201759827995 0 0,0 0.36897829821790945,-0.4346555075179631 l 9.241696658648994 7.982757461567726" fill="#ff960d" stroke="none" /><path d="M 84.10781606972428 86.27271002978789 l -9.284144655810708 -8.019423030519738 a33.268108563770085,33.268108563770085 0 0,0 0.377021036247699,-0.4289807304528419 l 9.145112555604417 8.17761603878388" fill="#ff970d" stroke="none" /><path d="M 84.58840730492382 85.73525988315684 l -1.128406488358071 -1.044436199493522 a22.537578673688298,22.537578673688298 0 0,0 0.26523957575770857,-0.2816752378610453 l 1.1103110788640909 1.0636528972990784" fill="#ff0000" stroke="none" /><path d="M 85.34317274990677 84.96080404539775 l -23.064215529965747 -23.665916980233824 a54.04593264727193,54.04593264727193 0 0,0 0.6699830140550336,-0.6418285718358036 l 22.654560030045413 24.058357682375195" fill="#6fff27" stroke="none" /><path d="M 85.86807049272753 84.46653392183569 l -5.106399927425486 -5.612828029844425 a28.588093219736976,28.588093219736976 0 0,0 0.36583906974173275,-0.3271355520387063 l 5.009295830860362 5.6996591117665325" fill="#ff5708" stroke="none" /><path d="M 86.40962598614128 83.9905735841838 l -7.119021721623785 -8.386189687547324 a32.0003930724532,32.0003930724532 0 0,0 0.42183476758869004,-0.35190956619588987 l 6.974012619873186 8.507161437655094" fill="#ff860c" stroke="none" /><path d="M 86.68645165197937 83.75963576809568 l -9.572574740074373 -11.676984704010009 a36.09921054002472,36.09921054002472 0 0,0 0.48261074047122576,-0.38875705030180513 l 9.370713229247901 11.839590048105212" fill="#ffbc11" stroke="none" /><path d="M 86.96720088162412 83.53348406188908 l -11.130591981369832 -14.063139360708277 a38.9349370373703,38.9349370373703 0 0,0 0.5276426612899274,-0.4102981248371535 l 10.887539375444659 14.252138537166235" fill="#ffe015" stroke="none" /><path d="M 87.25179093698888 83.31218511350988 l -9.16880691708272 -12.002262577117346 a36.103685883015956,36.103685883015956 0 0,0 0.49573285303203407,-0.37200717479628337 l 8.961421075139935 12.15788877917763" fill="#ffbc11" stroke="none" /><path d="M 87.54013794807813 83.09580414077388 l -15.492762783016303 -21.01890818640652 a47.11168703855425,47.11168703855425 0 0,0 0.6551193927893546,-0.47425591901253633 l 15.12966237985298 21.28176487679214" fill="#bcff1f" stroke="none" /><path d="M 88.72937992617638 82.28071324371311 l -8.043241023762377 -12.645310836178796 a35.98658107474533,35.98658107474533 0 0,0 0.524094636898804,-0.32707381529660606 l 7.824982258073875 12.781520448316938" fill="#ffba11" stroke="none" /><line stroke="#e1ed5e" stroke-width="0.3" x1="56.869717070023135" x2="54.33264160355391" y1="26.7553504044142" y2="22.446841604673864" /><path d="M 56.362301976729285 25.89364864446614 a86.0,86.0 0 0,1 42.16139366436587,-11.88097634709845" fill="none" id="id60" stroke="none" /><text fill="#e1ed5e" style="font-size:6.75px; font-family:Arial;" text-anchor="middle"><textPath startOffset="22.145653131862474" xlink:href="#id60">December</textPath></text><path d="M 89.34428304082924 81.90426304109057 l -3.9378923978386235 -6.687402197038308 a28.760692281098898,28.760692281098898 0 0,0 0.4275859409384923,-0.2468668581025366 l 3.8225139890397317 6.754015952417019" fill="#ff5908" stroke="none" /><path d="M 89.65649057296885 81.72400993836675 l -3.6902546964139415 -6.520326455187898 a28.49217170162486,28.49217170162486 0 0,0 0.4277296533805459,-0.2372544284972075 l 3.577780854877293 6.582713799118252" fill="#ff5507" stroke="none" /><path d="M 90.28995756902619 81.37971332152246 l -3.5017073602874893 -6.714985580773481 a28.573175409766193,28.573175409766193 0 0,0 0.436860419679942,-0.2230640430423087 l 3.385919718893965 6.774107575488624" fill="#ff5708" stroke="none" /><path d="M 91.26138138417902 80.90454125486306 l -26.215855847462933 -57.286376235410835 a84.0,84.0 0 0,0 1.3163463885775248,-0.5887849963606175 l 25.22859605602979 57.7279649826813" fill="#4dd2ff" stroke="none" /><path d="M 95.35216902796891 79.52079915486377 l -1.6619379405477233 -7.322805214182651 a28.50902882689184,28.50902882689184 0 0,0 0.47818816278667964,-0.10421888443163799 l 1.5359873611419252 7.350255556748003" fill="#ff5607" stroke="none" /><path d="M 96.05791012581881 79.37332000966035 l -5.764380225264801 -30.161673133816056 a51.70756593435216,51.70756593435216 0 0,0 0.8732798880730597,-0.15914068609055795 l 5.245765603640703 30.256181993837977" fill="#88ff25" stroke="none" /></svg>