<?xml version="1.0" encoding="utf-8" ?>
<svg baseProfile="full" height="200mm" version="1.1" viewBox="0,0,200,200" width="200mm" xmlns="http://www.w3.org/2000/svg" xmlns:ev="http://www.w3.org/2001/xml-events" xmlns:xlink="http://www.w3.org/1999/xlink"><defs /><rect fill="#1a1a1a" height="200" width="200" x="0" y="0" /><text alignment-baseline="middle" fill="#e1ed5e" style="dominant-baseline: central; font-size:9.0px; font-family:Arial;" text-anchor="middle" x="100.0" y="100.0">2025</text><line stroke="#e1ed5e" stroke-width="0.3" x1="100.0" x2="100.0" y1="15.0" y2="10.0" /><path d="M 100.0 14.0 a86.0,86.0 0 0,1 42.46469731375804,11.215312516191453" fill="none" id="id61" stroke="none" /><text fill="#e1ed5e" style="font-size:6.75px; font-family:Arial;" text-anchor="middle"><textPath startOffset="22.20632615414155" xlink:href="#id61">January</textPath></text><path d="M 100.36148047927253 79.00311137660856 l 0.25737783084879073 -14.950001337106343 a35.95221666935354,35.95221666935354 0 0,0 0.6186749290479738,0.015978548148476147 l -0.5146793950916324 14.943355996815507" fill="#ff5d08" stroke="none" /><path d="M 100.72285384407766 79.0124445844662 l 0.6591935621920989 -19.13922368874259 a40.150572303724005,40.150572303724005 0 0,0 0.6905117748716629,0.02973488955607653 l -0.9885461694530934 19.125041072662317" fill="#ff9f0e" stroke="none" /><path d="M 101.44485096284872 79.0497635885617 l 4.261420223564946 -61.79029078275784 a82.93706271159117,82.93706271159117 0 0,0 1.423396717463248,0.1104829802007447 l -5.324407130390536 61.70778254036863" fill="#4bddff" stroke="none" /><path d="M 102.16513564639614 79.11191278185805 l 1.5145228809819897 -14.611318272127974 a35.689601805577944,35.689601805577944 0 0,0 0.6105187289068108,0.06859889275695605 l -1.7658083133985258 14.583083425900417" fill="#ff5908" stroke="none" /><path d="M 102.52436894288641 79.15227682838746 l 1.1110688317010362 -9.175859770095613 a30.242882476221183,30.242882476221183 0 0,0 0.5162679969139741,0.06702640299015616 l -1.2688515571228562 9.155375043941321" fill="#ff0000" stroke="none" /><path d="M 103.59715602781102 79.31037775812273 l 2.565636059024354 -14.75666900767008 a35.978042882476224,35.978042882476224 0 0,0 0.6092365515322665,0.11133408565048596 l -2.8192677316595214 14.710319440668854" fill="#ff5e08" stroke="none" /><path d="M 103.95276090670814 79.375362276772 l 2.7802144065638816 -14.506547772967403 a35.77056263098501,35.77056263098501 0 0,0 0.60372804517529,0.12110216628359433 l -3.029508861206297 14.456541650606601" fill="#ff5b08" stroke="none" /><path d="M 104.307194497241 79.44645832069477 l 3.0443882784142415 -14.527544880654178 a35.84310817346446,35.84310817346446 0 0,0 0.6027740209719583,0.13174305415623963 l -3.294005023539728 14.472988328402067" fill="#ff5c08" stroke="none" /><path d="M 105.36241919743992 79.69619591428918 l 6.1206492912793635 -23.174701475559754 a44.96933741737869,44.96933741737869 0 0,0 0.7467096608405289,0.20410395742856904 l -6.518656841343604 23.065910977304892" fill="#ffe615" stroke="none" /><path d="M 105.71112130821622 79.79150937346287 l 4.087527161867192 -14.463491471889043 a36.029985490891505,36.029985490891505 0 0,0 0.5953694009820162,0.17380465425057984 l -4.335886780572635 14.39098848871976" fill="#ff5f08" stroke="none" /><path d="M 106.0581310904928 79.89281104454417 l 11.902404754037619 -39.5045762197732 a62.25868128325004,62.25868128325004 0 0,0 1.0234574978437783,0.31799322651588285 l -12.580647624592116 39.293842858374795" fill="#3bff2e" stroke="none" /><path d="M 106.40334571778207 80.00007090966166 l 5.562730548612744 -17.374388550029586 a39.2431726583911,39.2431726583911 0 0,0 0.641564537301541,0.21151374102166942 l -5.860977908156702 17.276061084748683" fill="#ff910d" stroke="none" /><path d="M 106.74666289553966 80.11325718540242 l 4.804252951279495 -14.161214860984183 a35.953957762373044,35.953957762373044 0 0,0 0.5843682290212797,0.20387460073456526 l -5.047303184364048 14.076419407077411" fill="#ff5d08" stroke="none" /><path d="M 107.4271985657038 80.35727306442388 l 5.185508874472036 -13.714125715394657 a35.66174431726584,35.66174431726584 0 0,0 0.5723146762093354,0.22204920292725425 l -5.420806715681038 13.622833808576855" fill="#ff5908" stroke="none" /><path d="M 107.76421540070413 80.48803036053334 l 8.933291200197553 -22.449931858273988 a45.162018378204095,45.162018378204095 0 0,0 0.7198312396728859,0.2936372365486139 l -9.318406309458826 22.292833735541798" fill="#ffe815" stroke="none" /><path d="M 108.09893153111575 80.62456947434976 l 5.7946128852598235 -13.862707562107529 a36.025052394002905,36.025052394002905 0 0,0 0.5700814303324787,0.24407911713256789 l -6.032378073382618 13.76090891701217" fill="#ff5f08" stroke="none" /><path d="M 108.43124777332544 80.76684994638697 l 10.596913987034315 -24.173413271363824 a47.39409962921168,47.39409962921168 0 0,0 0.7443534065181406,0.33396967612368256 l -11.011449512019237 23.98742326472361" fill="#f6ff19" stroke="none" /><path d="M 109.08828744355905 81.06846463323043 l 7.593422080672461 -15.817626760577438 a38.54586490407867,38.54586490407867 0 0,0 0.5956781285384626,0.2922966706721147 l -7.864571476221355 15.684574929770491" fill="#ff860c" stroke="none" /><path d="M 109.41281617654863 81.2277094730956 l 6.575856117147492 -13.114447278994572 a35.67073996453329,35.67073996453329 0 0,0 0.5465088801684396,0.27994307494234266 l -6.800625484904687 12.99931167873973" fill="#ff5908" stroke="none" /><path d="M 109.73455568895987 81.39251694778311 l 9.47570586978313 -18.11269481767394 a41.441592777688214,41.441592777688214 0 0,0 0.6292312922344024,0.33611356465197934 l -9.786082208545844 17.94690252652021" fill="#ffb210" stroke="none" /><path d="M 110.05341064243156 81.56283822128135 l 7.332893495231565 -13.44794801349113 a36.31726583911011,36.31726583911011 0 0,0 0.5462737823496174,0.3040007684394871 l -7.5632913666532176 13.319731847491463" fill="#ff6309" stroke="none" /><path d="M 110.36928655335952 81.73862282372117 l 5.929414101256862 -10.442306399789556 a33.00831855553764,33.00831855553764 0 0,0 0.49167189999988137,0.28480809970515747 l -6.1082827337220715 10.338694142694349" fill="#ff2e04" stroke="none" /><line stroke="#e1ed5e" stroke-width="0.3" x1="143.23703022742887" x2="145.7803849466894" y1="26.81831364943548" y2="22.513508569990506" /><path d="M 143.74570117128098 25.957352633546492 a86.0,86.0 0 0,1 28.547481713284135,27.462654790039103" fill="none" id="id62" stroke="none" /><text fill="#e1ed5e" style="font-size:6.75px; font-family:Arial;" text-anchor="middle"><textPath startOffset="19.985693538727396" xlink:href="#id62">February</textPath></text><path d="M 112.77801427241765 83.33499621200491 l 18.11157938315433 -23.62100500062546 a50.76543607931646,50.76543607931646 0 0,0 0.6888807907495276,0.5376823840260487 l -18.515492729063286 23.305744227376188" fill="#c8ff1d" stroke="none" /><path d="M 115.68641384162765 86.03803664274999 l 10.904227006060495 -9.705495432852576 a35.59790423988393,35.59790423988393 0 0,0 0.40345670707947573,0.4612207607356927 l -11.069675576717819 9.516359115913936" fill="#ff5808" stroke="none" /><path d="M 115.9244219780498 86.31012108654704 l 11.236691116866682 -9.659938739994137 a35.818152506851526,35.818152506851526 0 0,0 0.39790451544515554,0.47099344074223 l -11.401306245798956 9.465086349622801" fill="#ff5b08" stroke="none" /><path d="M 117.65298651832404 88.62581576622439 l 52.95895955497212 -34.12255270132683 a84.0,84.0 0 0,0 0.7726896150161773,1.2222094091431752 l -53.538476766234254 33.20589564446945" fill="#4dd2ff" stroke="none" /><line stroke="#e1ed5e" stroke-width="0.3" x1="172.23445277983987" x2="176.4835382374775" y1="55.19839476539836" y2="52.563006222186495" /><path d="M 173.08426987136738 54.67131705675599 a86.0,86.0 0 0,1 12.851231095245387,41.99856678651699" fill="none" id="id63" stroke="none" /><text fill="#e1ed5e" style="font-size:6.75px; font-family:Arial;" text-anchor="middle"><textPath startOffset="22.20632615414155" xlink:href="#id63">March</textPath></text><line stroke="#e1ed5e" stroke-width="0.3" x1="184.98032266829074" x2="189.97916517819016" y1="98.17113171792111" y2="98.06355123074" /><path d="M 185.9800911702706 98.14961562048488 a86.0,86.0 0 0,1 -9.607161424134198,41.387399972396054" fill="none" id="id64" stroke="none" /><text fill="#e1ed5e" style="font-size:6.75px; font-family:Arial;" text-anchor="middle"><textPath startOffset="21.466115282336823" xlink:href="#id64">April</textPath></text><line stroke="#e1ed5e" stroke-width="0.3" x1="174.80103733775053" x2="179.2010983576182" y1="140.37084112569926" y2="142.7455964860345" /><path d="M 175.68104954172406 140.8457921977663 a86.0,86.0 0 0,1 -30.038265399797805,32.042727171017184" fill="none" id="id65" stroke="none" /><text fill="#e1ed5e" style="font-size:6.75px; font-family:Arial;" text-anchor="middle"><textPath startOffset="22.206326154141568" xlink:href="#id65">May</textPath></text><line stroke="#e1ed5e" stroke-width="0.3" x1="143.8653032363475" x2="146.44561519142675" y1="172.8068346515853" y2="177.08958963109032" /><path d="M 144.38136562736335 173.6633856474863 a86.0,86.0 0 0,1 -40.68145358897372,12.25698825130547" fill="none" id="id66" stroke="none" /><text fill="#e1ed5e" style="font-size:6.75px; font-family:Arial;" text-anchor="middle"><textPath startOffset="21.466115282336833" xlink:href="#id66">June</textPath></text><line stroke="#e1ed5e" stroke-width="0.3" x1="102.19456741930631" x2="102.32365962044197" y1="184.97166512339345" y2="189.96999836594603" /><path d="M 102.22038585953345 185.97133177190398 a86.0,86.0 0 0,1 -42.740103519485714,-10.115201625700543" fill="none" id="id67" stroke="none" /><text fill="#e1ed5e" style="font-size:6.75px; font-family:Arial;" text-anchor="middle"><textPath startOffset="22.20632615414155" xlink:href="#id67">July</textPath></text><line stroke="#e1ed5e" stroke-width="0.3" x1="58.666819895761336" x2="56.23545636021788" y1="174.27360380694188" y2="178.64263932499728" /><path d="M 58.180547188652646 175.14741091055294 a86.0,86.0 0 0,1 -31.652253787137756,-30.449443065178592" fill="none" id="id68" stroke="none" /><text fill="#e1ed5e" style="font-size:6.75px; font-family:Arial;" text-anchor="middle"><textPath startOffset="22.20632615414155" xlink:href="#id68">August</textPath></text><line stroke="#e1ed5e" stroke-width="0.3" x1="26.63291911575756" x2="22.317208475507996" y1="142.92168965132927" y2="145.44649492493687" /><path d="M 25.769776987707644 143.4266507060508 a86.0,86.0 0 0,1 -11.730757126820373,-40.83630448921669" fill="none" id="id69" stroke="none" /><text fill="#e1ed5e" style="font-size:6.75px; font-family:Arial;" text-anchor="middle"><textPath startOffset="21.46611528233685" xlink:href="#id69">September</textPath></text><line stroke="#e1ed5e" stroke-width="0.3" x1="15.007084014347285" x2="10.007500721073583" y1="101.09737516637583" y2="101.16192664675087" /><path d="M 14.007167355692545 101.11028546245083 a86.0,86.0 0 0,1 10.666146001902534,-42.60595125391555" fill="none" id="id70" stroke="none" /><text fill="#e1ed5e" style="font-size:6.75px; font-family:Arial;" text-anchor="middle"><textPath startOffset="22.20632615414155" xlink:href="#id70">October</textPath></text><line stroke="#e1ed5e" stroke-width="0.3" x1="26.266209847984243" x2="21.928928074336255" y1="57.711370442889674" y2="55.22380399835377" /><path d="M 25.398753493254645 57.213857153982495 a86.0,86.0 0 0,1 29.58750427330803,-30.492523968695096" fill="none" id="id71" stroke="none" /><text fill="#e1ed5e" style="font-size:6.75px; font-family:Arial;" text-anchor="middle"><textPath startOffset="21.46611528233685" xlink:href="#id71">November</textPath></text><line stroke="#e1ed5e" stroke-width="0.3" x1="56.762969772571076" x2="54.21961505331055" y1="26.818313649435495" y2="22.513508569990535" /><path d="M 56.25429882871897 25.957352633546506 a86.0,86.0 0 0,1 42.265352541879196,-11.944610805530505" fill="none" id="id72" stroke="none" /><text fill="#e1ed5e" style="font-size:6.75px; font-family:Arial;" text-anchor="middle"><textPath startOffset="22.20632615414155" xlink:href="#id72">December</textPath></text></svg>