<?xml version="1.0" encoding="utf-8" ?>
<svg baseProfile="full" height="200mm" version="1.1" viewBox="0,0,200,200" width="200mm" xmlns="http://www.w3.org/2000/svg" xmlns:ev="http://www.w3.org/2001/xml-events" xmlns:xlink="http://www.w3.org/1999/xlink"><defs /><rect fill="#1a1a1a" height="200" width="200" x="0" y="0" /><text alignment-baseline="middle" fill="#e1ed5e" style="dominant-baseline: central; font-size:9.0px; font-family:Arial;" text-anchor="middle" x="100.0" y="100.0">2020</text><line stroke="#e1ed5e" stroke-width="0.3" x1="100.0" x2="100.0" y1="15.0" y2="10.0" /><path d="M 100.0 14.0 a86.0,86.0 0 0,1 42.35913384403234,11.155469271406648" fill="none" id="id1" stroke="none" /><text fill="#e1ed5e" style="font-size:6.75px; font-family:Arial;" text-anchor="middle"><textPath startOffset="22.145653131862478" xlink:href="#id1">January</textPath></text><path d="M 104.29559338865022 79.4440306129975 l 2.4845842013083725 -11.889634832866113 a33.146463481700934,33.146463481700934 0 0,0 0.5559728664007838,0.12117169854829145 l -2.6883194843282907 11.845231676184103" fill="#ff0c01" stroke="none" /><line stroke="#e1ed5e" stroke-width="0.3" x1="143.13028292997686" x2="145.6673583964461" y1="26.7553504044142" y2="22.446841604673864" /><path d="M 143.63769802327073 25.89364864446614 a86.0,86.0 0 0,1 29.32050498858742,28.57503671076992" fill="none" id="id2" stroke="none" /><text fill="#e1ed5e" style="font-size:6.75px; font-family:Arial;" text-anchor="middle"><textPath startOffset="20.669276256404974" xlink:href="#id2">February</textPath></text><path d="M 116.1254893667686 86.54754324733833 l 48.3764681003058 -40.35737025798504 a84.0,84.0 0 0,0 0.9142127230454897,1.1151908732060285 l -49.062127642589914 39.52097710308052" fill="#4dd2ff" stroke="none" /><path d="M 117.01052211995028 87.68569379921539 l 37.19838972058953 -26.928765499691615 a66.92252834004506,66.92252834004506 0 0,0 0.6656717018302967,0.9363506129754217 l -37.65517652094979 26.286237660006687" fill="#33ff57" stroke="none" /><line stroke="#e1ed5e" stroke-width="0.3" x1="172.87174338648825" x2="177.1583165268699" y1="56.24261187166439" y2="53.66864786411523" /><path d="M 173.72905801456457 55.72781907015455 a86.0,86.0 0 0,1 12.242430191666344,42.057860355516425" fill="none" id="id3" stroke="none" /><text fill="#e1ed5e" style="font-size:6.75px; font-family:Arial;" text-anchor="middle"><textPath startOffset="22.145653131862474" xlink:href="#id3">March</textPath></text><line stroke="#e1ed5e" stroke-width="0.3" x1="184.99686870605535" x2="189.99668451229388" y1="99.2704041080226" y2="99.22748670261217" /><path d="M 185.99683186730306 99.26182062694052 a86.0,86.0 0 0,1 -10.086455211305974,41.156179273409016" fill="none" id="id4" stroke="none" /><text fill="#e1ed5e" style="font-size:6.75px; font-family:Arial;" text-anchor="middle"><textPath startOffset="21.40746469413373" xlink:href="#id4">April</textPath></text><line stroke="#e1ed5e" stroke-width="0.3" x1="174.33088141563837" x2="178.70328620479359" y1="141.23008692659167" y2="143.65538615756765" /><path d="M 175.20536237346943 141.71514677278685 a86.0,86.0 0 0,1 -30.301960400862466,31.63118572779886" fill="none" id="id5" stroke="none" /><text fill="#e1ed5e" style="font-size:6.75px; font-family:Arial;" text-anchor="middle"><textPath startOffset="22.145653131862474" xlink:href="#id5">May</textPath></text><line stroke="#e1ed5e" stroke-width="0.3" x1="143.1302829299769" x2="145.6673583964461" y1="173.24464959558577" y2="177.55315839532614" /><path d="M 143.63769802327073 174.10635135553383 a86.0,86.0 0 0,1 -40.685524379131806,11.842963189579606" fill="none" id="id6" stroke="none" /><text fill="#e1ed5e" style="font-size:6.75px; font-family:Arial;" text-anchor="middle"><textPath startOffset="21.407464694133747" xlink:href="#id6">June</textPath></text><path d="M 104.29559338865022 120.5559693870025 l 3.4017862454424534 16.27877864492526 a37.630417428018944,37.630417428018944 0 0,0 -0.6334516577019885,0.1267080723887425 l -3.121838102209506 -16.334776113976865" fill="#ff5808" stroke="none" /><line stroke="#e1ed5e" stroke-width="0.3" x1="101.45913802915013" x2="101.54496967792366" y1="184.9874750549273" y2="189.98673829345242" /><path d="M 101.47630435890484 185.9873277026323 a86.0,86.0 0 0,1 -42.54439059252881,-10.42667462771756" fill="none" id="id7" stroke="none" /><text fill="#e1ed5e" style="font-size:6.75px; font-family:Arial;" text-anchor="middle"><textPath startOffset="22.145653131862474" xlink:href="#id7">July</textPath></text><path d="M 98.55909050195518 120.95050786540614 l -0.8065095278045051 11.726471529766878 a32.754173393177105,32.754173393177105 0 0,0 -0.5606126413340887,-0.04339496400139941 l 1.00769116391383 -11.710898798770424" fill="#ff0500" stroke="none" /><path d="M 94.30408787586889 120.21278271476187 l -3.266946990105963 11.593242348648475 a33.044758643935495,33.044758643935495 0 0,0 -0.5446720165649821,-0.15854608588704494 l 3.4654790190525517 -11.535452568458915" fill="#ff0a01" stroke="none" /><line stroke="#e1ed5e" stroke-width="0.3" x1="58.13341422392154" x2="55.670673884152215" y1="173.97424548756322" y2="178.32567169271397" /><path d="M 57.64086615596767 174.84453072859336 a86.0,86.0 0 0,1 -31.369924170532244,-30.572349798747886" fill="none" id="id8" stroke="none" /><text fill="#e1ed5e" style="font-size:6.75px; font-family:Arial;" text-anchor="middle"><textPath startOffset="22.145653131862474" xlink:href="#id8">August</textPath></text><path d="M 83.4222238831116 112.89097897827486 l -9.045150388529512 7.033563651223574 a32.45799996451951,32.45799996451951 0 0,0 -0.3382556719652085,-0.4427875327554042 l 9.164558037849018 -6.877255205227302" fill="#ff0000" stroke="none" /><line stroke="#e1ed5e" stroke-width="0.3" x1="26.387840678322732" x2="22.057713659400548" y1="142.50000000000003" y2="145.00000000000006" /><path d="M 25.521815274538298 143.00000000000003 a86.0,86.0 0 0,1 -11.493303480769221,-40.785679425670985" fill="none" id="id9" stroke="none" /><text fill="#e1ed5e" style="font-size:6.75px; font-family:Arial;" text-anchor="middle"><textPath startOffset="21.40746469413373" xlink:href="#id9">September</textPath></text><path d="M 79.34024301695615 103.76489593502545 l -23.03290404020663 4.197362382528334 a44.41223012648797,44.41223012648797 0 0,0 -0.130244537996031,-0.7512158840220226 l 23.101563395694896 -3.8013534655857195" fill="#ffc512" stroke="none" /><path d="M 79.22317932658666 103.0534771498775 l -26.202037077677577 3.850797133716963 a47.48349269988823,47.48349269988823 0 0,0 -0.11159860656428666,-0.8074719243155237 l 26.264280200797074 -3.400436901201354" fill="#fff316" stroke="none" /><path d="M 79.01933749520258 100.90099992219065 l -13.423842429314412 0.5764775531538249 a34.43621494083628,34.43621494083628 0 0,0 -0.02029328278746018,-0.5908167864431793 l 13.431760399098719 -0.3459545021465257" fill="#ff2203" stroke="none" /><line stroke="#e1ed5e" stroke-width="0.3" x1="15.003131293944662" x2="10.003315487706104" y1="100.72959589197737" y2="100.7725132973878" /><path d="M 14.003168132696942 100.73817937305945 a86.0,86.0 0 0,1 10.791469493833604,-42.453326145846276" fill="none" id="id10" stroke="none" /><text fill="#e1ed5e" style="font-size:6.75px; font-family:Arial;" text-anchor="middle"><textPath startOffset="22.145653131862435" xlink:href="#id10">October</textPath></text><path d="M 79.01933749520258 99.09900007780938 l -17.4827067805503 -0.7507826526143048 a38.498820273554614,38.498820273554614 0 0,0 0.034022710098778074,-0.6600314866761976 l 17.46724248099495 1.0507859326672144" fill="#ff6709" stroke="none" /><path d="M 79.2786578344484 96.59031103205396 l -18.979277546300796 -3.123032897781653 a40.23450832904611,40.23450832904611 0 0,0 0.117992835169263,-0.6805513178805533 l 18.922869893639298 3.4483772485827986" fill="#ff830c" stroke="none" /><path d="M 79.407916724674 95.88100663000787 l -42.64686238407828 -8.530566871855479 a64.4916709538931,64.4916709538931 0 0,0 0.22646492613817948,-1.0837166527973097 l 42.49413974711574 9.261399975938199" fill="#30ff34" stroke="none" /><path d="M 80.68587082218212 91.75594674310238 l -15.77639773392195 -6.734006070013545 a38.15347087938406,38.15347087938406 0 0,0 0.2622889751635704,-0.6001685048172604 l 15.658474876741403 7.003836644606673" fill="#ff6109" stroke="none" /><line stroke="#e1ed5e" stroke-width="0.3" x1="26.387840678322718" x2="22.05771365940052" y1="57.5" y2="55.0" /><path d="M 25.521815274538284 57.0 a86.0,86.0 0 0,1 29.574782752854787,-30.346332500585742" fill="none" id="id11" stroke="none" /><text fill="#e1ed5e" style="font-size:6.75px; font-family:Arial;" text-anchor="middle"><textPath startOffset="21.40746469413373" xlink:href="#id11">November</textPath></text><path d="M 84.83555147118756 85.47280134310135 l -16.60855361676266 -15.910618664176269 a43.999822597527015,43.999822597527015 0 0,0 0.5271874339314704,-0.5409407498917604 l 16.332979381680385 16.19338210613576" fill="#ffbe11" stroke="none" /><line stroke="#e1ed5e" stroke-width="0.3" x1="56.869717070023135" x2="54.33264160355391" y1="26.7553504044142" y2="22.446841604673864" /><path d="M 56.362301976729285 25.89364864446614 a86.0,86.0 0 0,1 42.16139366436587,-11.88097634709845" fill="none" id="id12" stroke="none" /><text fill="#e1ed5e" style="font-size:6.75px; font-family:Arial;" text-anchor="middle"><textPath startOffset="22.145653131862474" xlink:href="#id12">December</textPath></text></svg>