<?xml version="1.0" encoding="utf-8" ?>
<svg baseProfile="full" height="200mm" version="1.1" viewBox="0,0,200,200" width="200mm" xmlns="http://www.w3.org/2000/svg" xmlns:ev="http://www.w3.org/2001/xml-events" xmlns:xlink="http://www.w3.org/1999/xlink"><defs /><rect fill="#1a1a1a" height="200" width="200" x="0" y="0" /><text alignment-baseline="middle" fill="#e1ed5e" style="dominant-baseline: central; font-size:9.0px; font-family:Arial;" text-anchor="middle" x="100.0" y="100.0">2025</text><line stroke="#e1ed5e" stroke-width="0.3" x1="100.0" x2="100.0" y1="15.0" y2="10.0" /><path d="M 100.0 14.0 a86.0,86.0 0 0,1 42.46469731375804,11.215312516191453" fill="none" id="id61" stroke="none" /><text fill="#e1ed5e" style="font-size:6.75px; font-family:Arial;" text-anchor="middle"><textPath startOffset="22.20632615414155" xlink:href="#id61">January</textPath></text><path d="M 100.36148047927253 79.00311137660856 l 0.2617948387216514 -15.206566843884861 a36.20882019471332,36.20882019471332 0 0,0 0.623090628066075,0.01609259262653263 l -0.5235121019825941 15.199807459115968" fill="#ff5f08" stroke="none" /><path d="M 100.72285384407766 79.0124445844662 l 0.670506359196951 -19.4676828316098 a40.479226206650985,40.479226206650985 0 0,0 0.696163982967525,0.029978285526419915 l -1.0055111745538077 19.453256819559186" fill="#ffa20e" stroke="none" /><path d="M 101.44485096284872 79.0497635885617 l 4.334552888546152 -62.8507092343149 a84.0,84.0 0 0,0 1.4416392425506352,0.11189895124614191 l -5.415782320459128 62.76678502088029" fill="#4dd2ff" stroke="none" /><path d="M 102.16513564639614 79.11191278185805 l 1.5405144726698345 -14.862071445499682 a35.941698447353374,35.941698447353374 0 0,0 0.614831181652483,0.06908344707021932 l -1.7961123578320428 14.833352044958863" fill="#ff5b08" stroke="none" /><path d="M 102.52436894288641 79.15227682838746 l 1.1301365181475689 -9.333331937419102 a30.40150485846272,30.40150485846272 0 0,0 0.5189757963312401,0.06737795306888095 l -1.2906270429866553 9.312495661186084" fill="#ff0000" stroke="none" /><path d="M 103.59715602781102 79.31037775812273 l 2.6096664039621174 -15.00991662798424 a36.235089626221644,36.235089626221644 0 0,0 0.6135892694456229,0.11212951702727911 l -2.8676507945106415 14.962771629606221" fill="#ff6008" stroke="none" /><path d="M 103.95276090670814 79.375362276772 l 2.8279272530104262 -14.755502919997411 a36.024048687699704,36.024048687699704 0 0,0 0.6080063296148809,0.1219603498941659 l -3.081499992092432 14.704638614026036" fill="#ff5c08" stroke="none" /><path d="M 104.307194497241 79.44645832069477 l 3.096634763472623 -14.776860371034864 a36.097839225644435,36.097839225644435 0 0,0 0.6070578364225006,0.13267933029167445 l -3.3505353240486513 14.72136754264732" fill="#ff5e08" stroke="none" /><path d="M 105.36241919743992 79.69619591428918 l 6.225689247585789 -23.572415756277582 a45.38068889909202,45.38068889909202 0 0,0 0.7535400955997857,0.20597097326944178 l -6.630527232409285 23.461758242181844" fill="#ffea16" stroke="none" /><path d="M 105.71112130821622 79.79150937346287 l 4.157675548754119 -14.711707705158641 a36.287923651390074,36.287923651390074 0 0,0 0.5996316421684652,0.17504891933125322 l -4.410297408646011 14.637960456908685" fill="#ff6108" stroke="none" /><path d="M 106.0581310904928 79.89281104454417 l 12.1066687162102 -40.182536802474964 a62.96674506423291,62.96674506423291 0 0,0 1.0350972109032566,0.3216097420226826 l -12.796551299824173 39.96818692556976" fill="#34ff2f" stroke="none" /><path d="M 106.40334571778207 80.00007090966166 l 5.65819574290238 -17.672560349669574 a39.55625415803825,39.55625415803825 0 0,0 0.6466829304856824,0.21320119478111674 l -5.961561495630479 17.572545430629223" fill="#ff940d" stroke="none" /><path d="M 106.74666289553966 80.11325718540242 l 4.886701478563425 -14.404243552787037 a36.21059116762399,36.21059116762399 0 0,0 0.5885393528103592,0.20532982392241259 l -5.133922835437058 14.317992875692417" fill="#ff5f08" stroke="none" /><path d="M 107.4271985657038 80.35727306442388 l 5.274500352284232 -13.949481655160445 a35.9133628807826,35.9133628807826 0 0,0 0.5763527567761806,0.22361591545184453 l -5.513836274060079 13.856623035818055" fill="#ff5b08" stroke="none" /><path d="M 107.76421540070413 80.48803036053334 l 9.08660050982885 -22.83520795387306 a45.576676567873236,45.576676567873236 0 0,0 0.7264404198961972,0.2963332871083351 l -9.478324799313434 22.675413780581145" fill="#ffed16" stroke="none" /><path d="M 108.09893153111575 80.62456947434976 l 5.894057544692861 -14.10061339975897 a36.28290589480983,36.28290589480983 0 0,0 0.5741618544481344,0.24582614179024675 l -6.13590315693131 13.997067730005933" fill="#ff6008" stroke="none" /><line stroke="#e1ed5e" stroke-width="0.3" x1="143.23703022742887" x2="145.7803849466894" y1="26.81831364943548" y2="22.513508569990506" /><path d="M 143.74570117128098 25.957352633546492 a86.0,86.0 0 0,1 28.547481713284135,27.462654790039103" fill="none" id="id62" stroke="none" /><text fill="#e1ed5e" style="font-size:6.75px; font-family:Arial;" text-anchor="middle"><textPath startOffset="19.985693538727396" xlink:href="#id62">February</textPath></text><line stroke="#e1ed5e" stroke-width="0.3" x1="172.23445277983987" x2="176.4835382374775" y1="55.19839476539836" y2="52.563006222186495" /><path d="M 173.08426987136738 54.67131705675599 a86.0,86.0 0 0,1 12.851231095245387,41.99856678651699" fill="none" id="id63" stroke="none" /><text fill="#e1ed5e" style="font-size:6.75px; font-family:Arial;" text-anchor="middle"><textPath startOffset="22.20632615414155" xlink:href="#id63">March</textPath></text><line stroke="#e1ed5e" stroke-width="0.3" x1="184.98032266829074" x2="189.97916517819016" y1="98.17113171792111" y2="98.06355123074" /><path d="M 185.9800911702706 98.14961562048488 a86.0,86.0 0 0,1 -9.607161424134198,41.387399972396054" fill="none" id="id64" stroke="none" /><text fill="#e1ed5e" style="font-size:6.75px; font-family:Arial;" text-anchor="middle"><textPath startOffset="21.466115282336823" xlink:href="#id64">April</textPath></text><line stroke="#e1ed5e" stroke-width="0.3" x1="174.80103733775053" x2="179.2010983576182" y1="140.37084112569926" y2="142.7455964860345" /><path d="M 175.68104954172406 140.8457921977663 a86.0,86.0 0 0,1 -30.038265399797805,32.042727171017184" fill="none" id="id65" stroke="none" /><text fill="#e1ed5e" style="font-size:6.75px; font-family:Arial;" text-anchor="middle"><textPath startOffset="22.206326154141568" xlink:href="#id65">May</textPath></text><line stroke="#e1ed5e" stroke-width="0.3" x1="143.8653032363475" x2="146.44561519142675" y1="172.8068346515853" y2="177.08958963109032" /><path d="M 144.38136562736335 173.6633856474863 a86.0,86.0 0 0,1 -40.68145358897372,12.25698825130547" fill="none" id="id66" stroke="none" /><text fill="#e1ed5e" style="font-size:6.75px; font-family:Arial;" text-anchor="middle"><textPath startOffset="21.466115282336833" xlink:href="#id66">June</textPath></text><line stroke="#e1ed5e" stroke-width="0.3" x1="102.19456741930631" x2="102.32365962044197" y1="184.97166512339345" y2="189.96999836594603" /><path d="M 102.22038585953345 185.97133177190398 a86.0,86.0 0 0,1 -42.740103519485714,-10.115201625700543" fill="none" id="id67" stroke="none" /><text fill="#e1ed5e" style="font-size:6.75px; font-family:Arial;" text-anchor="middle"><textPath startOffset="22.20632615414155" xlink:href="#id67">July</textPath></text><line stroke="#e1ed5e" stroke-width="0.3" x1="58.666819895761336" x2="56.23545636021788" y1="174.27360380694188" y2="178.64263932499728" /><path d="M 58.180547188652646 175.14741091055294 a86.0,86.0 0 0,1 -31.652253787137756,-30.449443065178592" fill="none" id="id68" stroke="none" /><text fill="#e1ed5e" style="font-size:6.75px; font-family:Arial;" text-anchor="middle"><textPath startOffset="22.20632615414155" xlink:href="#id68">August</textPath></text><line stroke="#e1ed5e" stroke-width="0.3" x1="26.63291911575756" x2="22.317208475507996" y1="142.92168965132927" y2="145.44649492493687" /><path d="M 25.769776987707644 143.4266507060508 a86.0,86.0 0 0,1 -11.730757126820373,-40.83630448921669" fill="none" id="id69" stroke="none" /><text fill="#e1ed5e" style="font-size:6.75px; font-family:Arial;" text-anchor="middle"><textPath startOffset="21.46611528233685" xlink:href="#id69">September</textPath></text><line stroke="#e1ed5e" stroke-width="0.3" x1="15.007084014347285" x2="10.007500721073583" y1="101.09737516637583" y2="101.16192664675087" /><path d="M 14.007167355692545 101.11028546245083 a86.0,86.0 0 0,1 10.666146001902534,-42.60595125391555" fill="none" id="id70" stroke="none" /><text fill="#e1ed5e" style="font-size:6.75px; font-family:Arial;" text-anchor="middle"><textPath startOffset="22.20632615414155" xlink:href="#id70">October</textPath></text><line stroke="#e1ed5e" stroke-width="0.3" x1="26.266209847984243" x2="21.928928074336255" y1="57.711370442889674" y2="55.22380399835377" /><path d="M 25.398753493254645 57.213857153982495 a86.0,86.0 0 0,1 29.58750427330803,-30.492523968695096" fill="none" id="id71" stroke="none" /><text fill="#e1ed5e" style="font-size:6.75px; font-family:Arial;" text-anchor="middle"><textPath startOffset="21.46611528233685" xlink:href="#id71">November</textPath></text><line stroke="#e1ed5e" stroke-width="0.3" x1="56.762969772571076" x2="54.21961505331055" y1="26.818313649435495" y2="22.513508569990535" /><path d="M 56.25429882871897 25.957352633546506 a86.0,86.0 0 0,1 42.265352541879196,-11.944610805530505" fill="none" id="id72" stroke="none" /><text fill="#e1ed5e" style="font-size:6.75px; font-family:Arial;" text-anchor="middle"><textPath startOffset="22.20632615414155" xlink:href="#id72">December</textPath></text></svg>