<?xml version="1.0" encoding="utf-8" ?>
<svg baseProfile="full" height="200mm" version="1.1" viewBox="0,0,200,200" width="200mm" xmlns="http://www.w3.org/2000/svg" xmlns:ev="http://www.w3.org/2001/xml-events" xmlns:xlink="http://www.w3.org/1999/xlink"><defs /><rect fill="#1a1a1a" height="200" width="200" x="0" y="0" /><text alignment-baseline="middle" fill="#e1ed5e" style="dominant-baseline: central; font-size:9.0px; font-family:Arial;" text-anchor="middle" x="100.0" y="100.0">2023</text><line stroke="#e1ed5e" stroke-width="0.3" x1="100.0" x2="100.0" y1="15.0" y2="10.0" /><path d="M 100.0 14.0 a86.0,86.0 0 0,1 42.46469731375804,11.215312516191453" fill="none" id="id37" stroke="none" /><text fill="#e1ed5e" style="font-size:6.75px; font-family:Arial;" text-anchor="middle"><textPath startOffset="22.20632615414155" xlink:href="#id37">January</textPath></text><line stroke="#e1ed5e" stroke-width="0.3" x1="143.23703022742887" x2="145.7803849466894" y1="26.81831364943548" y2="22.513508569990506" /><path d="M 143.74570117128098 25.957352633546492 a86.0,86.0 0 0,1 28.547481713284135,27.462654790039103" fill="none" id="id38" stroke="none" /><text fill="#e1ed5e" style="font-size:6.75px; font-family:Arial;" text-anchor="middle"><textPath startOffset="19.985693538727396" xlink:href="#id38">February</textPath></text><path d="M 111.60114157652 82.49532879139004 l 4.127241429892925 -6.227490954429031 a28.470994940978077,28.470994940978077 0 0,0 0.40617982999486324,0.27425443436022345 l -4.233825954294331 6.155524607770138" fill="#ff4306" stroke="none" /><path d="M 112.77801427241765 83.33499621200491 l 4.457221336002682 -5.813079314581426 a28.3252107925801,28.3252107925801 0 0,0 0.38436966400628947,0.30000661952749447 l -4.556623555168402 5.7354943058307075" fill="#ff4106" stroke="none" /><path d="M 117.65298651832404 88.62581576622439 l 5.665527067249641 -3.6504162384902674 a27.739713322091063,27.739713322091063 0 0,0 0.2551689096131627,0.40361593606183316 l -5.727523573108759 3.552352654714228" fill="#ff3805" stroke="none" /><line stroke="#e1ed5e" stroke-width="0.3" x1="172.23445277983987" x2="176.4835382374775" y1="55.19839476539836" y2="52.563006222186495" /><path d="M 173.08426987136738 54.67131705675599 a86.0,86.0 0 0,1 12.851231095245387,41.99856678651699" fill="none" id="id39" stroke="none" /><text fill="#e1ed5e" style="font-size:6.75px; font-family:Arial;" text-anchor="middle"><textPath startOffset="22.20632615414155" xlink:href="#id39">March</textPath></text><path d="M 117.84615892207809 88.93136811851018 l 10.644998055178842 -6.6022927043524 a33.52622259696459,33.52622259696459 0 0,0 0.29995464614805006,0.4930465705036018 l -10.757068499613116 6.418078360641717" fill="#ff8a0c" stroke="none" /><path d="M 118.03404312379186 89.2402003453031 l 5.342040402001246 -3.1872655553872398 a27.220615514333897,27.220615514333897 0 0,0 0.2366123817668842,0.4044472594700541 l -5.396112458238458 3.0948388835632903" fill="#ff3104" stroke="none" /><line stroke="#e1ed5e" stroke-width="0.3" x1="184.98032266829074" x2="189.97916517819016" y1="98.17113171792111" y2="98.06355123074" /><path d="M 185.9800911702706 98.14961562048488 a86.0,86.0 0 0,1 -9.607161424134198,41.387399972396054" fill="none" id="id40" stroke="none" /><text fill="#e1ed5e" style="font-size:6.75px; font-family:Arial;" text-anchor="middle"><textPath startOffset="21.466115282336823" xlink:href="#id40">April</textPath></text><path d="M 120.5718875245553 104.21870165774334 l 6.076743616725019 1.2461651046341335 a27.20320404721754,27.20320404721754 0 0,0 -0.09801698019084931,0.45790269991874005 l -6.054392597809726 -1.3505816239690427" fill="#ff3004" stroke="none" /><path d="M 120.32669344350535 105.2749913415812 l 6.276823520623759 1.628901907530993 a27.484738617200676,27.484738617200676 0 0,0 -0.12278077147252558,0.4569129262173762 l -6.2478546728094555 -1.7367057669239174" fill="#ff3405" stroke="none" /><path d="M 120.23288151984713 105.62410040840565 l 6.137819187309441 1.7061193861193498 a27.370531197301855,27.370531197301855 0 0,0 -0.1300847878966405,0.4528422121891025 l -6.107541762526702 -1.8115190738130342" fill="#ff3304" stroke="none" /><line stroke="#e1ed5e" stroke-width="0.3" x1="174.80103733775053" x2="179.2010983576182" y1="140.37084112569926" y2="142.7455964860345" /><path d="M 175.68104954172406 140.8457921977663 a86.0,86.0 0 0,1 -30.038265399797805,32.042727171017184" fill="none" id="id41" stroke="none" /><text fill="#e1ed5e" style="font-size:6.75px; font-family:Arial;" text-anchor="middle"><textPath startOffset="22.206326154141568" xlink:href="#id41">May</textPath></text><path d="M 112.92097659922987 116.55440617244103 l 4.027364544279353 5.1598753359294856 a27.545531197301855,27.545531197301855 0 0,0 -0.3762867408996247,0.2885206272320566 l -3.9379490748862347 -5.228435304988913" fill="#ff3505" stroke="none" /><path d="M 112.63410532772338 116.77436683061366 l 3.9979592997424813 5.308111190159619 a27.645278246205734,27.645278246205734 0 0,0 -0.38257777882419525,0.28302189463119615 l -3.905996550499722 -5.376143033530584" fill="#ff3705" stroke="none" /><path d="M 111.45004920935366 117.60387380957326 l 3.7235186727607252 5.724722369692731 a27.82913153456998,27.82913153456998 0 0,0 -0.4038115624672907,0.2577316448494379 l -3.6244253082465043 -5.787968443365978" fill="#ff3905" stroke="none" /><line stroke="#e1ed5e" stroke-width="0.3" x1="143.8653032363475" x2="146.44561519142675" y1="172.8068346515853" y2="177.08958963109032" /><path d="M 144.38136562736335 173.6633856474863 a86.0,86.0 0 0,1 -40.68145358897372,12.25698825130547" fill="none" id="id42" stroke="none" /><text fill="#e1ed5e" style="font-size:6.75px; font-family:Arial;" text-anchor="middle"><textPath startOffset="21.466115282336833" xlink:href="#id42">June</textPath></text><line stroke="#e1ed5e" stroke-width="0.3" x1="102.19456741930631" x2="102.32365962044197" y1="184.97166512339345" y2="189.96999836594603" /><path d="M 102.22038585953345 185.97133177190398 a86.0,86.0 0 0,1 -42.740103519485714,-10.115201625700543" fill="none" id="id43" stroke="none" /><text fill="#e1ed5e" style="font-size:6.75px; font-family:Arial;" text-anchor="middle"><textPath startOffset="22.20632615414155" xlink:href="#id43">July</textPath></text><path d="M 98.37488393609728 120.93702456842531 l -0.33966204635223624 4.376002900592886 a25.3891652613828,25.3891652613828 0 0,0 -0.43543105412790817,-0.03757082354847879 l 0.4149374182216861 -4.369507824765744" fill="#ff1602" stroke="none" /><path d="M 98.01472825383883 120.90594882070398 l -0.41795047820742803 4.401236920783674 a25.421037099494097,25.421037099494097 0 0,0 -0.4352655381646653,-0.0451170527241753 l 0.49364861297768664 -4.393390499603738" fill="#ff1602" stroke="none" /><path d="M 97.65516085044442 120.86867818915974 l -0.8906500474049728 7.926637194699251 a28.97651770657673,28.97651770657673 0 0,0 -0.4951846466836303,-0.0599599645866603 l 1.0269621171399923 -7.910131701387241" fill="#ff4a06" stroke="none" /><path d="M 97.2962882734958 120.8252237178851 l -0.37994824711975744 2.9265350924515303 a23.951096121416526,23.951096121416526 0 0,0 -0.40839060622929724,-0.05659921675969907 l 0.4302674445358857 -2.9195613101992266" fill="#ff0000" stroke="none" /><path d="M 96.93821686468263 120.77559828337769 l -1.1186953557933028 7.590859406517987 a28.672849915682967,28.672849915682967 0 0,0 -0.48766255609607184,-0.0761628619751996 l 1.2491937754978917 -7.570478237195682" fill="#ff4606" stroke="none" /><path d="M 96.58105272829116 120.7198165907248 l -1.6816070054779315 10.191028396224958 a31.328836424957842,31.328836424957842 0 0,0 -0.5313236816825068,-0.0923774326055366 l 1.8567796586324883 -10.160572385098416" fill="#ff6c09" stroke="none" /><path d="M 96.22490169976321 120.6578951692458 l -1.432372879516491 7.838155839933064 a28.967959527824622,28.967959527824622 0 0,0 -0.48974113200734143,-0.09386005354292255 l 1.5670816260955274 -7.812338588041674" fill="#ff4a06" stroke="none" /><path d="M 95.86986931433489 120.58985236759428 l -1.5670816260955274 7.812338588041674 a28.967959527824622,28.967959527824622 0 0,0 -0.4880529250434429,-0.10227623569256208 l 1.7013260125683571 -7.78420637162257" fill="#ff4a06" stroke="none" /><path d="M 95.51606077576429 120.51570834832081 l -1.3276013984741746 6.074275705322812 a27.21766441821248,27.21766441821248 0 0,0 -0.4568418232384158,-0.10397571161977978 l 1.431963371105453 -6.050523260125345" fill="#ff3104" stroke="none" /><path d="M 95.16358092515715 120.4354850818985 l -2.10026731662161 8.874330522777226 a30.119477234401348,30.119477234401348 0 0,0 -0.5034925499232497,-0.1237462188582557 l 2.25271315128807 -8.836863045604941" fill="#ff5a08" stroke="none" /><path d="M 94.81253420990036 120.34920634021253 l -2.5514516955239945 10.0087439840843 a31.328836424957842,31.328836424957842 0 0,0 -0.5214156069580144,-0.13771060087031722 l 2.723357745293498 -9.963342033910399" fill="#ff6c09" stroke="none" /><path d="M 90.42595943632237 118.69057910512821 l -4.078788838230059 7.962669985259511 a29.94654300168634,29.94654300168634 0 0,0 -0.4567690553010305,-0.2389599814947431 l 4.215248796057585 -7.891280584820052" fill="#ff5808" stroke="none" /><path d="M 90.10565033884886 118.52300852407294 l -14.260460871238358 26.69671553172349 a51.266736930860034,51.266736930860034 0 0,0 -0.7748044196088799,-0.42248514665038955 l 14.717888102715879 -26.447289733313337" fill="#95ff23" stroke="none" /><line stroke="#e1ed5e" stroke-width="0.3" x1="58.666819895761336" x2="56.23545636021788" y1="174.27360380694188" y2="178.64263932499728" /><path d="M 58.180547188652646 175.14741091055294 a86.0,86.0 0 0,1 -31.652253787137756,-30.449443065178592" fill="none" id="id44" stroke="none" /><text fill="#e1ed5e" style="font-size:6.75px; font-family:Arial;" text-anchor="middle"><textPath startOffset="22.20632615414155" xlink:href="#id44">August</textPath></text><path d="M 89.7882731507175 118.34994917583269 l -4.161608749707594 7.478197387565322 a29.558178752107928,29.558178752107928 0 0,0 -0.4424595208708809,-0.25124006343464794 l 4.289717037499682 -7.40545415833604" fill="#ff5207" stroke="none" /><path d="M 89.4739219176387 118.17145234162733 l -2.9584255431032287 5.107209764369682 a26.902192242833053,26.902192242833053 0 0,0 -0.39870602694003215,-0.2355625484781028 l 3.0458994410716427 -5.05552864359783" fill="#ff2c04" stroke="none" /><path d="M 89.1626897886671 117.98757091392108 l -14.098097857972155 23.399767103324738 a48.31859190556493,48.31859190556493 0 0,0 -0.7087205398522086,-0.43535404072123135 l 14.498797597756672 -23.153624595775128" fill="#b7ff1f" stroke="none" /><path d="M 88.8546689885994 117.79835938074946 l -4.3854590826196835 7.0032892448142885 a29.263069139966273,29.263069139966273 0 0,0 -0.4246185569003242,-0.27101165314546904 l 4.505359441566931 -6.926763162845015" fill="#ff4e07" stroke="none" /><path d="M 88.54995079064634 117.60387380957326 l -12.635924176651827 19.427096827793537 a44.17495784148398,44.17495784148398 0 0,0 -0.6338586895111736,-0.420086976150092 l 12.96845756490296 -19.206711830552127" fill="#e9ff1a" stroke="none" /><path d="M 87.95078237400918 117.19931262002967 l -21.477950541753508 30.658088954118107 a58.43288364249578,58.43288364249578 0 0,0 -0.8188190862367761,-0.5842056770348117 l 22.00249695583917 -30.283839015239074" fill="#48ff2c" stroke="none" /><path d="M 87.65650970185807 116.9893568818739 l -5.203832334798455 7.16246074277989 a29.85328836424958,29.85328836424958 0 0,0 -0.41313401338473915,-0.30562666646269254 l 5.326351318601758 -7.071824127577431" fill="#ff5708" stroke="none" /><path d="M 87.36589467227662 116.77436683061367 l -5.326351318601758 7.071824127577431 a29.85328836424958,29.85328836424958 0 0,0 -0.4078119424620416,-0.31269280748655953 l 5.447291989557287 -6.979091978263504" fill="#ff5708" stroke="none" /><path d="M 87.07902340077011 116.55440617244103 l -5.447291989557287 6.979091978263504 a29.85328836424958,29.85328836424958 0 0,0 -0.4023690280594724,-0.31966629088309423 l 5.566618510334117 -6.8842917733752795" fill="#ff5708" stroke="none" /><path d="M 86.51685102203217 116.09983520530335 l -13.296704084849225 15.877206792683634 a41.70961214165261,41.70961214165261 0 0,0 -0.5464644885118765,-0.465708892403723 l 13.568034049938158 -15.64597351005696" fill="#fff617" stroke="none" /><path d="M 85.97065885151581 115.62618273729859 l -24.78201492923641 27.602742693626084 a58.09527824620574,58.09527824620574 0 0,0 -0.7383645684647977,-0.6744785268376428 l 25.253479047168064 -27.172071400201865" fill="#4cff2c" stroke="none" /><path d="M 85.70375840098266 115.38237550388516 l -6.02708330481338 6.484981241098297 a29.85328836424958,29.85328836424958 0 0,0 -0.37339947994694994,-0.3530725147102535 l 6.137818619151147 -6.380274089642113" fill="#ff5708" stroke="none" /><path d="M 85.44109423537348 115.13401014063109 l -8.592946066811605 8.932383725498957 a33.39460370994941,33.39460370994941 0 0,0 -0.4108332123265194,-0.4020867671905848 l 8.745429231513917 -8.783146855385802" fill="#ff880c" stroke="none" /><path d="M 85.18274418774928 114.88116024355367 l -9.370102748050629 9.41051448791336 a34.27993254637437,34.27993254637437 0 0,0 -0.4145576306007484,-0.4199446911074479 l 9.530701003706909 -9.247829302825249" fill="#ff950d" stroke="none" /><path d="M 84.9287848128048 114.62390073753433 l -30.330714667552503 29.430497480628908 a63.262352445193926,63.262352445193926 0 0,0 -0.7515972609252988,-0.7880467232339239 l 30.83281847985676 -28.904043640812482" fill="#32ff4d" stroke="none" /><path d="M 84.67929136418377 114.36230785411682 l -20.085070094528678 18.828630373843513 a48.53048060708263,48.53048060708263 0 0,0 -0.5660816926856431,-0.6143698749181248 l 20.40619819521005 -18.480109244124044" fill="#b5ff20" stroke="none" /><path d="M 84.19399662182784 113.82643327865904 l -14.02882753459775 12.271833887673214 a39.63882799325464,39.63882799325464 0 0,0 -0.4448184156402834,-0.5174243102546713 l 14.237988459808813 -12.028532478257011" fill="#ffdc14" stroke="none" /><path d="M 83.95833913139862 113.55231037782056 l -6.76292616720126 5.713452941745601 a29.85328836424958,29.85328836424958 0 0,0 -0.32824969998271303,-0.39539790936441715 l 6.86027186707751 -5.596193775267422" fill="#ff5708" stroke="none" /><path d="M 83.28015986056508 112.70617746262583 l -19.358454596515507 14.711382253312857 a45.31408094435076,45.31408094435076 0 0,0 -0.4666028316325139,-0.6250907441167195 l 19.60881869484311 -14.37597862968683" fill="#dbff1b" stroke="none" /><path d="M 82.6465618267979 111.8261652097733 l -23.442992763182836 15.976125460662121 a49.369182124789205,49.369182124789205 0 0,0 -0.47252629978546234,-0.7063627049689997 l 23.71452216837903 -15.570225841487302" fill="#abff21" stroke="none" /><path d="M 82.05923443525364 110.91462005526583 l -2.5458944726364363 1.5488453248745695 a23.98001686340641,23.98001686340641 0 0,0 -0.21150274877056036,-0.3544907725548396 l 2.572178097105229 -1.5047924584336188" fill="#ff0000" stroke="none" /><line stroke="#e1ed5e" stroke-width="0.3" x1="26.63291911575756" x2="22.317208475507996" y1="142.92168965132927" y2="145.44649492493687" /><path d="M 25.769776987707644 143.4266507060508 a86.0,86.0 0 0,1 -11.730757126820373,-40.83630448921669" fill="none" id="id45" stroke="none" /><text fill="#e1ed5e" style="font-size:6.75px; font-family:Arial;" text-anchor="middle"><textPath startOffset="21.46611528233685" xlink:href="#id45">September</textPath></text><path d="M 80.87730276802145 108.67885076344099 l -13.75216457063662 6.24143040780063 a36.10223440134907,36.10223440134907 0 0,0 -0.25195734822089483,-0.5680973054407821 l 13.857563003588794 -6.0037847658671515" fill="#ffad10" stroke="none" /><path d="M 80.32549172779594 107.34259656027581 l -11.438088915417117 4.268735521340786 a33.20868465430017,33.20868465430017 0 0,0 -0.19526032755877037,-0.5372725604679826 l 11.509873503981112 -4.071215163866687" fill="#ff860c" stroke="none" /><path d="M 80.0844068197444 106.66101706037122 l -29.15664111756392 9.751800117094067 a51.74422428330523,51.74422428330523 0 0,0 -0.27524908655230274,-0.8471295823045522 l 29.320182455132475 -9.248471634811713" fill="#90ff24" stroke="none" /><path d="M 79.97269907076064 106.31721596034903 l -37.85683354824219 11.941189376651321 a60.69548903878583,60.69548903878583 0 0,0 -0.30571227475957924,-0.9990854023081475 l 38.0567725955079 -11.287777001791126" fill="#31ff2f" stroke="none" /><path d="M 79.86692584326677 105.97154293290107 l -18.384303339381223 5.452851155662997 a40.17592748735244,40.17592748735244 0 0,0 -0.19094539919846368,-0.6647059842928583 l 18.475441375465792 -5.135587695865543" fill="#ffe315" stroke="none" /><path d="M 79.76711848015287 105.62410040840567 l -14.97079694581943 4.161407515511297 a36.53840640809444,36.53840640809444 0 0,0 -0.1632256282166361,-0.6074232840182265 l 15.04021065037784 -3.9030932983175317" fill="#ffb310" stroke="none" /><path d="M 79.67330655649465 105.27499134158121 l -14.627449660694516 3.7959774679551805 a36.11197301854975,36.11197301854975 0 0,0 -0.15096298331003763,-0.6030220762875205 l 14.690623958299613 -3.5436275522702685" fill="#ffad10" stroke="none" /><path d="M 79.58551787078972 104.9243191809786 l -17.29636793215595 4.172177174541609 a38.792453625632376,38.792453625632376 0 0,0 -0.15099396216782734,-0.6504780371398619 l 17.365622460254333 -3.873830480053173" fill="#ffd113" stroke="none" /><path d="M 79.4281124754447 104.21870165774334 l -18.013121694315842 3.6939724788129533 a39.38798482293423,39.38798482293423 0 0,0 -0.1304868925754746,-0.66534985401865 l 18.074038519866985 -3.3833588977263487" fill="#ffd814" stroke="none" /><path d="M 79.35854240842038 103.8639653848113 l -37.120685349241654 6.948784629843821 a58.76547217537943,58.76547217537943 0 0,0 -0.17756563224501143,-0.9958823643584096 l 37.23479742382586 -6.308783514752198" fill="#45ff2d" stroke="none" /><path d="M 79.29508885075956 103.50808413554451 l -22.65989004204182 3.8393210285563635 a43.98284148397976,43.98284148397976 0 0,0 -0.1200485386698649,-0.7475423648925397 l 22.722620335072975 -3.44869943397061" fill="#ebff1a" stroke="none" /><path d="M 79.23777060512086 103.15116336523772 l -25.951327902297997 3.938732792595127 a47.24852445193929,47.24852445193929 0 0,0 -0.11511979007851904,-0.8051475436843446 l 26.015281743393114 -3.491439776930382" fill="#c4ff1e" stroke="none" /><path d="M 79.18660465613746 102.79330883721812 l -23.420919507585626 3.1432575202394775 a44.63090219224283,44.63090219224283 0 0,0 -0.09563443998106975,-0.7623005822139369 l 23.471555456813544 -2.7396391837381318" fill="#e4ff1b" stroke="none" /><path d="M 79.1416061653843 102.43462659150553 l -17.137239959820224 2.0002872916297214 a38.253583473861724,38.253583473861724 0 0,0 -0.07071028903774804,-0.6546894572187342 l 17.169132550359024 -1.705001512526205" fill="#ffca12" stroke="none" /><path d="M 79.04373962182676 101.35467743843564 l -14.763326152588572 0.9543470301604434 a35.79413996627319,35.79413996627319 0 0,0 -0.034453818360039364,-0.6151960715845762 l 14.777566321836144 -0.7000792422404296" fill="#ffa90f" stroke="none" /><path d="M 79.0235259727143 100.99374915477108 l -14.782872343934102 0.7003306121783983 a35.799451939291735,35.799451939291735 0 0,0 -0.023862665345048825,-0.6157893611857653 l 14.79273714213035 -0.4457640039786362" fill="#ffa90f" stroke="none" /><path d="M 79.0095281055655 100.63252640178507 l -29.554206858448314 0.8905857960602909 a50.56762225969646,50.56762225969646 0 0,0 -0.018729133147816227,-0.8702692226634324 l 29.565158054281138 -0.3817267576067296" fill="#9dff22" stroke="none" /><line stroke="#e1ed5e" stroke-width="0.3" x1="15.007084014347285" x2="10.007500721073583" y1="101.09737516637583" y2="101.16192664675087" /><path d="M 14.007167355692545 101.11028546245083 a86.0,86.0 0 0,1 10.666146001902534,-42.60595125391555" fill="none" id="id46" stroke="none" /><text fill="#e1ed5e" style="font-size:6.75px; font-family:Arial;" text-anchor="middle"><textPath startOffset="22.20632615414155" xlink:href="#id46">October</textPath></text><path d="M 79.00175016825051 100.2711162175752 l -14.786120047348284 0.19090909823297278 a35.78735244519393,35.78735244519393 0 0,0 -0.0026511657714523413,-0.6160375575772442 l 14.78721551040924 0.06363793754794679" fill="#ffa90f" stroke="none" /><path d="M 79.00019446554 99.90962569577889 l -14.851548810107275 -0.06391480093074899 a35.85168634064081,35.85168634064081 0 0,0 0.007967598331888821,-0.6170992714062044 l 14.84824820465767 0.3195503303974253" fill="#ffaa0f" stroke="none" /><path d="M 79.03285615573316 98.82574320788736 l -25.78846726646666 -1.444273148061762 a46.82887858347386,46.82887858347386 0 0,0 0.05200103678536683,-0.8044330228659264 l 25.75978563867688 1.8879652351807004" fill="#c9ff1d" stroke="none" /><path d="M 79.16333360222342 97.38593545837743 l -14.672925143234743 -1.8407922172668154 a35.78794266441821,35.78794266441821 0 0,0 0.08194416518067014,-0.6105792110429842 l 14.639064978996238 2.093089770374459" fill="#ffa90f" stroke="none" /><path d="M 79.21141760316559 97.0276538004421 l -17.552271045061907 -2.5096192293681554 a38.73077571669477,38.73077571669477 0 0,0 0.10004363453118463,-0.6591625532804533 l 17.50647151709142 2.811380895040701" fill="#ffd013" stroke="none" /><path d="M 79.26566170972629 96.67025291283419 l -19.01026465812715 -3.0528764644176363 a40.25383642495784,40.25383642495784 0 0,0 0.11575496420822116,-0.6831923512697599 l 18.954897832398704 3.379654604003224" fill="#ffe415" stroke="none" /><path d="M 79.32604984820605 96.31383870115002 l -29.07339608825424 -5.183780878825417 a50.531913996627324,50.531913996627324 0 0,0 0.1600520799492761,-0.8550046109894073 l 28.9798582843951 5.683463567277398" fill="#9eff22" stroke="none" /><path d="M 79.3925641242962 95.95851677861259 l -11.601673637611656 -2.2752937157844633 a32.822681281618884,32.822681281618884 0 0,0 0.1135050583156615,-0.5534909748481457 l 11.560789283381 2.474660346796011" fill="#ff800b" stroke="none" /><path d="M 79.46518482838121 95.60439243477599 l -28.876290260865748 -6.181153268995301 a50.53043844856661,50.53043844856661 0 0,0 0.18938233967382115,-0.8489638946126853 l 28.76561353418989 6.677295333157946" fill="#9eff22" stroke="none" /><path d="M 79.54389044137918 95.25157060432595 l -17.4742205134891 -4.056250388910039 a38.938827993254634,38.938827993254634 0 0,0 0.1571778766720949,-0.6516037723192463 l 17.40180983655619 4.3564393928886815" fill="#ffd313" stroke="none" /><path d="M 79.62865764111835 94.90015583598534 l -20.090792674906048 -5.029610222464142 a41.710792580101185,41.710792580101185 0 0,0 0.1803568079461883,-0.6949883531889206 l 20.001239535089553 5.374695001201927" fill="#fff617" stroke="none" /><path d="M 79.81627453868168 94.20196356495316 l -21.801883889604166 -6.262873392072454 a43.68360033726813,43.68360033726813 0 0,0 0.21382935750477206,-0.7209262932383859 l 21.690848634987688 6.637229072057379" fill="#efff19" stroke="none" /><path d="M 79.91906864156998 93.8553929516997 l -28.238880271314414 -8.640875248965195 a50.53132377740303,50.53132377740303 0 0,0 0.26166687422504525,-0.8295554982148886 l 28.085957913321163 9.125680913606498" fill="#9eff22" stroke="none" /><path d="M 80.02781315780177 93.51064311812611 l -14.049013273933035 -4.564801125338387 a35.77200674536257,35.77200674536257 0 0,0 0.1953197666970326,-0.5839812416549719 l 13.96835621346423 4.8059554699156815" fill="#ffa90f" stroke="none" /><path d="M 80.2630227832202 92.82701384747504 l -14.999104186748436 -5.451106592977021 a36.958937605396294,36.958937605396294 0 0,0 0.22244952986555883,-0.5960541450916153 l 14.90305006838125 5.708483875097977" fill="#ffb911" stroke="none" /><path d="M 80.38941819471856 92.48833698450439 l -22.077061669773688 -8.456426702801487 a44.64123102866779,44.64123102866779 0 0,0 0.28104088967673674,-0.7152184096320667 l 21.92822723021526 8.835194117329317" fill="#e3ff1b" stroke="none" /><path d="M 80.65960295795068 91.81776055985345 l -24.010793089977593 -10.158119183534374 a47.071163575042156,47.071163575042156 0 0,0 0.3221220716308748,-0.7435021534831234 l 23.83238030850404 10.569920481604097" fill="#c6ff1e" stroke="none" /><path d="M 80.803312248108 91.48605970444005 l -18.28999765163752 -8.111813351583312 a41.0081365935919,41.0081365935919 0 0,0 0.29173907584442965,-0.6428083821432639 l 18.147656258829738 8.425443742568646" fill="#ffed16" stroke="none" /><path d="M 80.95270993114464 91.15688171328213 l -17.7397294732067 -8.236054868637254 a40.558389544688026,40.558389544688026 0 0,0 0.2994402842799168,-0.630697605486839 l 17.595330995085032 8.540194889764624" fill="#ffe815" stroke="none" /><path d="M 81.10775173730289 90.83032412892265 l -42.51419583399384 -20.634992209316607 a68.25737774030354,68.25737774030354 0 0,0 0.5221363940969701,-1.052595109304844 l 42.15269942694346 21.36374690712041" fill="#39ff88" stroke="none" /><path d="M 81.26839172434947 90.50648371742162 l -17.15721607361756 -8.69558597220596 a40.234949409780775,40.234949409780775 0 0,0 0.3184128118659811,-0.6150722037626211 l 17.004993828591463 8.989630898228917" fill="#ffe315" stroke="none" /><path d="M 81.43458229118936 90.18545643968196 l -25.60441391150472 -13.535684443642676 a49.96205733558179,49.96205733558179 0 0,0 0.4084800281381777,-0.7568514547753284 l 25.367625784148075 13.974416881750477" fill="#a4ff21" stroke="none" /><line stroke="#e1ed5e" stroke-width="0.3" x1="26.266209847984243" x2="21.928928074336255" y1="57.711370442889674" y2="55.22380399835377" /><path d="M 25.398753493254645 57.213857153982495 a86.0,86.0 0 0,1 29.58750427330803,-30.492523968695096" fill="none" id="id47" stroke="none" /><text fill="#e1ed5e" style="font-size:6.75px; font-family:Arial;" text-anchor="middle"><textPath startOffset="21.46611528233685" xlink:href="#id47">November</textPath></text><path d="M 81.78341655067845 89.55222093294921 l -16.690854987292923 -9.57272618285148 a40.24114671163575,40.24114671163575 0 0,0 0.34979200097282864,-0.5979079164056115 l 16.52360331184977 9.858613511610981" fill="#ffe315" stroke="none" /><path d="M 81.96595687620814 89.24020034530311 l -18.751755463963008 -11.188014278391408 a42.83575042158516,42.83575042158516 0 0,0 0.38324575108430353,-0.6299552470973402 l 18.556393914592487 11.509137298695823" fill="#faff18" stroke="none" /><path d="M 82.15384107792192 88.93136811851018 l -12.584100089826224 -7.804972042571616 a35.808010118043846,35.808010118043846 0 0,0 0.32938663753102,-0.5210105582019747 l 12.447885856049242 8.020430248487806" fill="#ffa90f" stroke="none" /><path d="M 82.34701348167596 88.62581576622439 l -26.219001477257844 -16.893444795780542 a52.19013490725126,52.19013490725126 0 0,0 0.4930808746058432,-0.7509960003590442 l 25.92432396729408 17.342258860117255" fill="#8bff24" stroke="none" /><path d="M 82.54541684631803 88.32363383020206 l -25.093048218167773 -16.78617110085018 a51.190008431703205,51.190008431703205 0 0,0 0.49623968185265077,-0.7281705003582126 l 24.800384070646384 17.21561962447881" fill="#96ff23" stroke="none" /><path d="M 83.17141714833178 87.43820079747576 l -15.756340093806163 -11.761416999260533 a40.661973018549745,40.661973018549745 0 0,0 0.423511991291188,-0.5572921370215974 l 15.551552162290864 12.030893912163156" fill="#ffe915" stroke="none" /><path d="M 83.39014120810768 87.1503855733568 l -12.623819463770554 -9.765959767230811 a36.960413153457,36.960413153457 0 0,0 0.3936212181586465,-0.4998589742009337 l 12.453844165017935 9.981811135384794" fill="#ffb911" stroke="none" /><path d="M 83.84228863543731 86.58626213691792 l -23.12509997082472 -19.197893938527184 a51.05543844856661,51.05543844856661 0 0,0 0.5671758054196189,-0.6713572571587241 l 22.791213551917977 19.593110145315023" fill="#98ff23" stroke="none" /><path d="M 84.31358615837235 86.03803664274999 l -11.036040227195715 -9.822818065168141 a35.774367622259696,35.774367622259696 0 0,0 0.41337513364194156,-0.45645914721803454 l 10.865321452937728 10.011329999655732" fill="#ffa90f" stroke="none" /><path d="M 85.83668400450813 84.49514656593479 l -22.776546738956053 -24.933922185599403 a54.77086846543002,54.77086846543002 0 0,0 0.701560086525094,-0.6298675726175619 l 22.343975664834986 25.322288766986244" fill="#6fff28" stroke="none" /><path d="M 86.65592168130627 83.78471172551755 l -17.98637740325784 -21.856458546026683 a49.30573355817876,49.30573355817876 0 0,0 0.6599844825946813,-0.5336615527472949 l 17.60748952209866 22.16282619603811" fill="#acff21" stroke="none" /><path d="M 86.93701828274178 83.55741782278169 l -10.800273557520669 -13.594475545453378 a38.36247892074199,38.36247892074199 0 0,0 0.5205741712282971,-0.4063163978543636 l 10.564666831132945 13.778370332530963" fill="#ffcb12" stroke="none" /><path d="M 87.51073957382395 83.11751280151077 l -37.467781278528136 -50.64746159546771 a84.0,84.0 0 0,0 1.1698187345848732,-0.8499230607333286 l 36.59041722758948 51.284903891017706" fill="#4dd2ff" stroke="none" /><path d="M 89.00827224532344 82.1063720568725 l -8.3871393145507 -13.653572372905241 a37.02386172006746,37.02386172006746 0 0,0 0.545904383030722,-0.328901282610182 l 8.150872865302329 13.795920264974043" fill="#ffb911" stroke="none" /><line stroke="#e1ed5e" stroke-width="0.3" x1="56.762969772571076" x2="54.21961505331055" y1="26.818313649435495" y2="22.513508569990535" /><path d="M 56.25429882871897 25.957352633546506 a86.0,86.0 0 0,1 42.265352541879196,-11.944610805530505" fill="none" id="id48" stroke="none" /><text fill="#e1ed5e" style="font-size:6.75px; font-family:Arial;" text-anchor="middle"><textPath startOffset="22.20632615414155" xlink:href="#id48">December</textPath></text><path d="M 89.63071344664047 81.73862282372117 l -14.607346279580833 -25.725035042986153 a50.58296795952782,50.58296795952782 0 0,0 0.7608543372216848,-0.42341461490435806 l 14.162367853287103 25.972665055450697" fill="#9dff22" stroke="none" /><path d="M 92.91201910852362 80.23233633223022 l -5.309511262228057 -14.807691284576563 a36.73081787521079,36.73081787521079 0 0,0 0.5969947212515906,-0.20827973594604982 l 5.053834536913181 14.896891873694823" fill="#ffb610" stroke="none" /><path d="M 93.59665428221793 80.00007090966166 l -3.248465154748917 -10.146113549201996 a31.653456998313658,31.653456998313658 0 0,0 0.520344588575706,-0.1616735965781386 l 3.0733351934624826 10.20052728066266" fill="#ff700a" stroke="none" /><path d="M 94.63758080256005 79.69619591428918 l -16.045283625302226 -60.75248562874936 a83.83562394603709,83.83562394603709 0 0,0 1.3984225657068479,-0.3564890491759533 l 14.997152170910377 61.01967767409418" fill="#4dd4ff" stroke="none" /><path d="M 94.98787191387505 79.60689891045804 l -2.8605615227907895 -11.638912514749405 a32.98528667790894,32.98528667790894 0 0,0 0.552544882478031,-0.13076952167338995 l 2.6597929533502245 11.686427948563665" fill="#ff830c" stroke="none" /><path d="M 95.692805502759 79.44645832069477 l -3.2800896149520415 -15.652290291501254 a36.9922849915683,36.9922849915683 0 0,0 0.6243480186465006,-0.12523833897928002 l 3.0101751868384046 15.706432586557744" fill="#ffb911" stroke="none" /><path d="M 96.04723909329186 79.375362276772 l -2.265560797372094 -11.82119834428861 a33.03634064080944,33.03634064080944 0 0,0 0.5594230434656479,-0.10223098545124347 l 2.061742632803553 11.85844481109059" fill="#ff830c" stroke="none" /><path d="M 96.75951476605007 79.25152402106235 l -4.659039977103012 -29.83132835695742 a51.19295952782463,51.19295952782463 0 0,0 0.8718185862290876,-0.12848339710669696 l 4.144852410445275 29.907106238225087" fill="#96ff23" stroke="none" /><path d="M 97.83486435360386 79.11191278185805 l -1.8289250099054555 -17.64450425354851 a38.73903878583474,38.73903878583474 0 0,0 0.6638669837951753,-0.06304216935767636 l 1.524932899020044 17.673371967421367" fill="#ffd013" stroke="none" /><path d="M 98.19473922651362 79.07773832637324 l -1.2648495172074756 -14.659107961265924 a35.71357504215852,35.71357504215852 0 0,0 0.6129296580065914,-0.047575138005574516 l 1.0123296698385502 14.678708361459961" fill="#ffa80f" stroke="none" /><path d="M 98.55514903715128 79.0497635885617 l -1.0604710643426858 -15.376755164882109 a36.413279932546374,36.413279932546374 0 0,0 0.6256806345661574,-0.037742764536725294 l 0.7956283809369055 15.39273119879914" fill="#ffb110" stroke="none" /><path d="M 98.91598698831166 79.02799685794201 l -2.048717564867076 -39.63578918731162 a60.68870151770657,60.68870151770657 0 0,0 1.0437276630241747,-0.044945108709287154 l 1.3661490694535774 39.665182022545096" fill="#31ff2f" stroke="none" /><path d="M 99.27714615592234 79.0124445844662 l -0.6638350015524903 -19.273984631887775 a40.285413153457,40.285413153457 0 0,0 0.6932416811347255,-0.017904387361530147 l 0.33196668522288575 19.282555811391664" fill="#ffe415" stroke="none" /></svg>