<?xml version="1.0" encoding="utf-8" ?>
<svg baseProfile="full" height="200mm" version="1.1" viewBox="0,0,200,200" width="200mm" xmlns="http://www.w3.org/2000/svg" xmlns:ev="http://www.w3.org/2001/xml-events" xmlns:xlink="http://www.w3.org/1999/xlink"><defs /><rect fill="#1a1a1a" height="200" width="200" x="0" y="0" /><text alignment-baseline="middle" fill="#e1ed5e" style="dominant-baseline: central; font-size:9.0px; font-family:Arial;" text-anchor="middle" x="100.0" y="100.0">2021</text><line stroke="#e1ed5e" stroke-width="0.3" x1="100.0" x2="100.0" y1="15.0" y2="10.0" /><path d="M 100.0 14.0 a86.0,86.0 0 0,1 42.46469731375804,11.215312516191453" fill="none" id="id13" stroke="none" /><text fill="#e1ed5e" style="font-size:6.75px; font-family:Arial;" text-anchor="middle"><textPath startOffset="22.20632615414155" xlink:href="#id13">January</textPath></text><line stroke="#e1ed5e" stroke-width="0.3" x1="143.23703022742887" x2="145.7803849466894" y1="26.818313649435467" y2="22.513508569990506" /><path d="M 143.74570117128098 25.957352633546478 a86.0,86.0 0 0,1 28.547481713284135,27.462654790039114" fill="none" id="id14" stroke="none" /><text fill="#e1ed5e" style="font-size:6.75px; font-family:Arial;" text-anchor="middle"><textPath startOffset="19.985693538727396" xlink:href="#id14">February</textPath></text><line stroke="#e1ed5e" stroke-width="0.3" x1="172.23445277983987" x2="176.4835382374775" y1="55.19839476539836" y2="52.563006222186495" /><path d="M 173.08426987136738 54.67131705675599 a86.0,86.0 0 0,1 12.851231095245387,41.99856678651699" fill="none" id="id15" stroke="none" /><text fill="#e1ed5e" style="font-size:6.75px; font-family:Arial;" text-anchor="middle"><textPath startOffset="22.20632615414155" xlink:href="#id15">March</textPath></text><path d="M 119.47837535516314 92.15188598940014 l 39.860116067482956 -16.06020675078675 a63.97393505127531,63.97393505127531 0 0,0 0.4027508025346555,1.0249568623206684 l -40.13066041989931 15.371700883570298" fill="#6cff28" stroke="none" /><path d="M 120.91429891909075 98.10471618934814 l 62.74289675727228 -5.685851431955593 a84.0,84.0 0 0,0 0.118102064722021,1.4411443311689238 l -62.831473305813795 4.6049931835789" fill="#4dd2ff" stroke="none" /><line stroke="#e1ed5e" stroke-width="0.3" x1="184.98032266829074" x2="189.97916517819016" y1="98.17113171792111" y2="98.06355123074" /><path d="M 185.9800911702706 98.14961562048488 a86.0,86.0 0 0,1 -9.607161424134198,41.387399972396054" fill="none" id="id16" stroke="none" /><text fill="#e1ed5e" style="font-size:6.75px; font-family:Arial;" text-anchor="middle"><textPath startOffset="21.466115282336823" xlink:href="#id16">April</textPath></text><line stroke="#e1ed5e" stroke-width="0.3" x1="174.80103733775053" x2="179.2010983576182" y1="140.37084112569926" y2="142.7455964860345" /><path d="M 175.68104954172406 140.8457921977663 a86.0,86.0 0 0,1 -30.038265399797805,32.042727171017184" fill="none" id="id17" stroke="none" /><text fill="#e1ed5e" style="font-size:6.75px; font-family:Arial;" text-anchor="middle"><textPath startOffset="22.206326154141568" xlink:href="#id17">May</textPath></text><path d="M 115.07121518719521 114.62390073753431 l 17.139395683071477 16.63069752885714 a44.88177097028661,44.88177097028661 0 0,0 -0.5427688810483141,0.5498220109089942 l -16.850586176967628 -16.9232600337468" fill="#ff3304" stroke="none" /><path d="M 113.75828350139079 115.86535959552629 l 30.34700009623429 34.99463207918034 a67.3202405995267,67.3202405995267 0 0,0 -0.8820058244794902,0.7516644983291407 l -29.74012879517775 -35.511820967732426" fill="#39ff2e" stroke="none" /><path d="M 113.20401910651253 116.32954008644616 l 28.731240759605434 35.532207575033596 a66.69487904286089,66.69487904286089 0 0,0 -0.8989278946287782,0.7141626860128418 l -28.115355372259305 -36.02150417505156" fill="#43ff2d" stroke="none" /><path d="M 112.92097659922987 116.55440617244103 l 28.59059113397829 36.630378107044784 a67.46726268735209,67.46726268735209 0 0,0 -0.9216390205801981,0.7066735002769329 l -27.955823384904598 -37.11709094914909" fill="#37ff2e" stroke="none" /><path d="M 111.7513745106137 117.40417183066458 l 26.69088487484974 39.53007763090271 a68.69727846437024,68.69727846437024 0 0,0 -0.9857251490009971,0.6532848788083567 l -26.006485027108777 -39.98366053080239" fill="#31ff3c" stroke="none" /><line stroke="#e1ed5e" stroke-width="0.3" x1="143.8653032363475" x2="146.44561519142675" y1="172.8068346515853" y2="177.08958963109032" /><path d="M 144.38136562736335 173.6633856474863 a86.0,86.0 0 0,1 -40.68145358897372,12.25698825130547" fill="none" id="id18" stroke="none" /><text fill="#e1ed5e" style="font-size:6.75px; font-family:Arial;" text-anchor="middle"><textPath startOffset="21.466115282336833" xlink:href="#id18">June</textPath></text><path d="M 110.5260780823613 118.17145234162733 l 11.015638971348315 19.016594501218524 a42.97669602945043,42.97669602945043 0 0,0 -0.6433227328814571,0.36529543742206966 l -10.68666747154566 -19.20339310443522" fill="#ff0b01" stroke="none" /><path d="M 110.21172684928248 118.3499491758327 l 16.92265462421524 30.409142044015674 a55.80074940836182,55.80074940836182 0 0,0 -0.8433278544213321,0.459849586853689 l -16.39670395792526 -30.695932282629133" fill="#f5ff19" stroke="none" /><path d="M 108.2653958097858 119.30500536409082 l 16.37050423041259 38.23563677456562 a62.59275571916907,62.59275571916907 0 0,0 -0.9941176410022062,0.41554125456425156 l -15.709915129912922 -38.51176307214984" fill="#82ff25" stroke="none" /><path d="M 107.93186726928326 119.44442032107085 l 15.64812665558936 38.360292929627704 a62.42916776229293,62.42916776229293 0 0,0 -0.9985067472190838,0.3973264415492078 l -14.98549883232841 -38.62396621558298" fill="#84ff25" stroke="none" /><path d="M 106.91757812671514 119.82793768551818 l 14.013416220934376 40.16682406763926 a63.541151722324486,63.541151722324486 0 0,0 -1.0358123542180724,0.3514037890516167 l -13.319934133779077 -40.402090843589" fill="#73ff27" stroke="none" /><path d="M 106.57524785965236 119.94407469862006 l 13.182481542445295 39.98516895598966 a63.10215619247962,63.10215619247962 0 0,0 -1.03451073599087,0.33121766889198084 l -12.492249461363484 -40.20615947154134" fill="#7aff26" stroke="none" /><path d="M 106.2309692047433 120.05430185196036 l 12.369366818619403 39.810663116322566 a62.688009466210886,62.688009466210886 0 0,0 -1.0332328037515406,0.31130456803240875 l -11.682259040427615 -40.0176830534607" fill="#80ff25" stroke="none" /><path d="M 105.53697534728816 120.25689768951611 l 11.130914712578585 40.72219693625082 a63.21604654220352,63.21604654220352 0 0,0 -1.0521244016272975,0.2778756170796497 l -10.42829986813979 -40.90776390263405" fill="#78ff26" stroke="none" /><path d="M 105.18746579009965 120.34920634021253 l 10.337761334924469 40.55260256399834 a62.84952668945569,62.84952668945569 0 0,0 -1.0506247571322544,0.2582180037297632 l -9.638183293049005 -40.724541826042135" fill="#7eff26" stroke="none" /><path d="M 104.83641907484287 120.43548508189849 l 9.717825876420562 41.06105832702922 a63.195339205890086,63.195339205890086 0 0,0 -1.06071827249331,0.24141602541727267 l -9.00958745453439 -41.22225108602418" fill="#78ff26" stroke="none" /><path d="M 104.48393922423573 120.51570834832081 l 8.930001365227024 40.858114795329556 a62.822607152248224,62.822607152248224 0 0,0 -1.058436896463488,0.2218057426431059 l -8.225373007334158 -41.0057765186992" fill="#7eff26" stroke="none" /><path d="M 104.13013068566511 120.58985236759428 l 8.291348668431755 41.3346835740059 a63.158066000525906,63.158066000525906 0 0,0 -1.0677694681525944,0.2046405598841973 l -7.578611585707456 -41.47128133223857" fill="#79ff26" stroke="none" /><path d="M 102.34483914955558 120.86867818915974 l 4.685131049905819 41.696886617171685 a62.959275571916905,62.959275571916905 0 0,0 -1.078004916046975,0.11173961724444216 l -3.9666935372532413 -41.771355602871886" fill="#7cff26" stroke="none" /><path d="M 101.98527174616119 120.90594882070398 l 4.327088483810179 45.56650270176579 a66.77149618722062,66.77149618722062 0 0,0 -1.1451492268917367,0.09880829383286933 l -3.5420949391769008 -45.63423524787733" fill="#41ff2d" stroke="none" /><path d="M 101.62511606390274 120.93702456842531 l 3.258297882658519 41.97796350412095 a63.10422692611096,63.10422692611096 0 0,0 -1.0837016277053602,0.07473840912725682 l -2.535233494174229 -42.02783025776449" fill="#7aff26" stroke="none" /><path d="M 101.26447882468166 120.96189622390904 l 2.517528130667971 41.734319615134154 a62.81018275046016,62.81018275046016 0 0,0 -1.0797726380021888,0.05581191178214285 l -1.7987674242523026 -41.771471333678505" fill="#7eff26" stroke="none" /><path d="M 100.90346689309514 120.98055641714683 l 2.0067869347088987 46.602157558439 a67.64534577964764,67.64534577964764 0 0,0 -1.1637565111484591,0.04008212728917818 l -1.2043100718857869 -46.62979648415428" fill="#35ff2f" stroke="none" /><line stroke="#e1ed5e" stroke-width="0.3" x1="102.19456741930631" x2="102.32365962044197" y1="184.97166512339345" y2="189.96999836594603" /><path d="M 102.22038585953345 185.97133177190398 a86.0,86.0 0 0,1 -42.740103519485714,-10.115201625700543" fill="none" id="id19" stroke="none" /><text fill="#e1ed5e" style="font-size:6.75px; font-family:Arial;" text-anchor="middle"><textPath startOffset="22.20632615414155" xlink:href="#id19">July</textPath></text><path d="M 100.54218724476979 120.99299961872073 l 0.7267240880379785 28.138099245720905 a49.14748225085459,49.14748225085459 0 0,0 -0.8458991059877847,0.014562920237049524 l -0.24226529215752582 -28.146439643237116" fill="#ff8b0c" stroke="none" /><path d="M 99.09653310690486 120.98055641714683 l -1.8493691724061876 42.94655903203566 a63.986359453063365,63.986359453063365 0 0,0 -1.0999923438732961,-0.05685703961797009 l 2.5883495846929727 -42.90836218565549" fill="#6cff28" stroke="none" /><path d="M 98.37488393609728 120.93702456842531 l -4.781603822389549 61.60332725124012 a82.78862082566395,82.78862082566395 0 0,0 -1.4198472484144673,-0.12251039499884407 l 5.841295388545558 -61.51189260396261" fill="#4be3ff" stroke="none" /><path d="M 97.65516085044442 120.86867818915974 l -4.685824698089676 41.70305997056711 a62.96548777281093,62.96548777281093 0 0,0 -1.0760279455169006,-0.13029199903419175 l 5.402980066657966 -41.61622244280757" fill="#7cff26" stroke="none" /><path d="M 95.86986931433489 120.58985236759428 l -4.847174804836909 24.164517112717633 a45.645871680252434,45.645871680252434 0 0,0 -0.7690428167129442,-0.1611603995054507 l 5.26240908297924 -24.07750073248564" fill="#ff4306" stroke="none" /><path d="M 95.51606077576429 120.51570834832081 l -6.367771434470425 29.134949214355412 a50.82270575861162,50.82270575861162 0 0,0 -0.853046653964093,-0.19415064116075875 l 6.8683382378273805 -29.021021839616967" fill="#ffac0f" stroke="none" /><path d="M 94.81253420990036 120.34920634021253 l -8.474304405526633 33.242699984055456 a55.305844070470684,55.305844070470684 0 0,0 -0.9204724319527173,-0.24310513532245995 l 9.045267280290838 -33.091903499429414" fill="#feff18" stroke="none" /><path d="M 94.46302465271185 120.25689768951611 l -12.47566592350128 45.64193848988725 a68.316263476203,68.316263476203 0 0,0 -1.1316713702344803,-0.3198216331880485 l 13.259468461840374 -45.42042806336068" fill="#30ff35" stroke="none" /><path d="M 94.11515582081647 120.15858648285463 l -11.825008679010201 40.50667321991964 a63.19740993952143,63.19740993952143 0 0,0 -1.0416288157441485,-0.31383421757224483 l 12.520512469194596 -40.297123633241675" fill="#78ff26" stroke="none" /><path d="M 92.06813273071674 119.44442032107085 l -8.117754113978203 19.90010897768811 a42.492144359716015,42.492144359716015 0 0,0 -0.6748734710056796,-0.2820971656142332 l 8.459099044481343 -19.757426769053904" fill="#ff0000" stroke="none" /><path d="M 91.07499286063937 119.00905698771935 l -18.00783881990507 38.354258882728764 a63.3713515645543,63.3713515645543 0 0,0 -0.9834247945995851,-0.47210366403415654 l 18.665376282504898 -38.038600942195046" fill="#75ff27" stroke="none" /><line stroke="#e1ed5e" stroke-width="0.3" x1="58.666819895761336" x2="56.23545636021788" y1="174.27360380694188" y2="178.64263932499728" /><path d="M 58.180547188652646 175.14741091055294 a86.0,86.0 0 0,1 -31.652253787137756,-30.449443065178592" fill="none" id="id20" stroke="none" /><text fill="#e1ed5e" style="font-size:6.75px; font-family:Arial;" text-anchor="middle"><textPath startOffset="22.20632615414155" xlink:href="#id20">August</textPath></text><path d="M 82.44556493220864 111.52570212397912 l -26.17240253336236 17.183994489340414 a52.30949250591638,52.30949250591638 0 0,0 -0.48771163008920493,-0.7569392805532791 l 26.46431902682861 -16.730933608865687" fill="#ffc812" stroke="none" /><line stroke="#e1ed5e" stroke-width="0.3" x1="26.63291911575756" x2="22.317208475507996" y1="142.92168965132927" y2="145.44649492493687" /><path d="M 25.769776987707644 143.4266507060508 a86.0,86.0 0 0,1 -11.730757126820373,-40.83630448921669" fill="none" id="id21" stroke="none" /><text fill="#e1ed5e" style="font-size:6.75px; font-family:Arial;" text-anchor="middle"><textPath startOffset="21.46611528233685" xlink:href="#id21">September</textPath></text><line stroke="#e1ed5e" stroke-width="0.3" x1="15.007084014347285" x2="10.007500721073583" y1="101.09737516637583" y2="101.16192664675087" /><path d="M 14.007167355692545 101.11028546245083 a86.0,86.0 0 0,1 10.666146001902526,-42.60595125391555" fill="none" id="id22" stroke="none" /><text fill="#e1ed5e" style="font-size:6.75px; font-family:Arial;" text-anchor="middle"><textPath startOffset="22.20632615414155" xlink:href="#id22">October</textPath></text><line stroke="#e1ed5e" stroke-width="0.3" x1="26.266209847984243" x2="21.928928074336255" y1="57.71137044288968" y2="55.22380399835378" /><path d="M 25.398753493254645 57.2138571539825 a86.0,86.0 0 0,1 29.58750427330803,-30.4925239686951" fill="none" id="id23" stroke="none" /><text fill="#e1ed5e" style="font-size:6.75px; font-family:Arial;" text-anchor="middle"><textPath startOffset="21.46611528233685" xlink:href="#id23">November</textPath></text><line stroke="#e1ed5e" stroke-width="0.3" x1="56.76296977257108" x2="54.21961505331056" y1="26.818313649435495" y2="22.513508569990535" /><path d="M 56.25429882871898 25.957352633546506 a86.0,86.0 0 0,1 42.26535254187918,-11.944610805530505" fill="none" id="id24" stroke="none" /><text fill="#e1ed5e" style="font-size:6.75px; font-family:Arial;" text-anchor="middle"><textPath startOffset="22.20632615414155" xlink:href="#id24">December</textPath></text><path d="M 97.83486435360386 79.11191278185805 l -4.3318369312428775 -41.791278890622536 a63.015185379963185,63.015185379963185 0 0,0 1.0798848490475919,-0.10254807845881893 l 3.6118269551050486 41.85965251359654" fill="#7bff26" stroke="none" /><path d="M 99.27714615592234 79.0124445844662 l -1.4606998251397112 -42.410397034959324 a63.43554430712595,63.43554430712595 0 0,0 1.0916150521195447,-0.028193196218141 l 0.7304581378252875 42.42925702331983" fill="#74ff27" stroke="none" /></svg>