<?xml version="1.0" encoding="utf-8" ?>
<svg baseProfile="full" height="200mm" version="1.1" viewBox="0,0,200,200" width="200mm" xmlns="http://www.w3.org/2000/svg" xmlns:ev="http://www.w3.org/2001/xml-events" xmlns:xlink="http://www.w3.org/1999/xlink"><defs /><rect fill="#1a1a1a" height="200" width="200" x="0" y="0" /><text alignment-baseline="middle" fill="#e1ed5e" style="dominant-baseline: central; font-size:9.0px; font-family:Arial;" text-anchor="middle" x="100.0" y="100.0">2024</text><line stroke="#e1ed5e" stroke-width="0.3" x1="100.0" x2="100.0" y1="15.0" y2="10.0" /><path d="M 100.0 14.0 a86.0,86.0 0 0,1 42.35913384403234,11.155469271406648" fill="none" id="id49" stroke="none" /><text fill="#e1ed5e" style="font-size:6.75px; font-family:Arial;" text-anchor="middle"><textPath startOffset="22.145653131862478" xlink:href="#id49">January</textPath></text><path d="M 100.0 79.0 l 0.0 -13.720338311611144 a34.720338311611144,34.720338311611144 0 0,0 0.5960207766521166,0.005116121532458037 l -0.23552785180326186 13.71831658827312" fill="#ff4706" stroke="none" /><path d="M 100.72087961077811 79.0123766808444 l 0.7733970454816333 -22.516611129001003 a43.52988947430971,43.52988947430971 0 0,0 0.7465878491685316,0.03206169461309658 l -1.1598106552510012 22.500016865962074" fill="#ffcf13" stroke="none" /><path d="M 101.08105385017728 79.02784411241856 l 1.1645000898108557 -22.59099064363074 a43.62098403517807,43.62098403517807 0 0,0 0.7474884509808819,0.044967049033442966 l -1.5521328929242 22.567671616772603" fill="#ffd013" stroke="none" /><path d="M 101.80034050326958 79.07731436759882 l 3.5714753084807342 -41.50595678290765 a62.659331299766265,62.659331299766265 0 0,0 1.0708791124518684,0.10141336533800721 l -4.283453984317616 41.43853166206446" fill="#37ff2e" stroke="none" /><path d="M 102.51750503828377 79.15144685158666 l 3.818393828022452 -31.621778488820723 a52.851483579606224,52.851483579606224 0 0,0 0.8997894059849464,0.11649575301623329 l -4.36066105589819 31.551571139604093" fill="#aeff20" stroke="none" /><path d="M 102.87502721639298 79.19773525538626 l 2.972064937280625 -21.504381353670148 a42.70879055579765,42.70879055579765 0 0,0 0.7253882552910835,0.10660709341132095 l -3.3407782981793908 21.450193186959943" fill="#ffc312" stroke="none" /><path d="M 103.23170211078529 79.25015418208739 l 3.460736499574066 -22.220410892121134 a43.488293784415475,43.488293784415475 0 0,0 0.7366554501406622,0.12121637399037102 l -3.841669452767799 22.157728519635096" fill="#ffce13" stroke="none" /><path d="M 103.58742460773223 79.30868818359171 l 2.5695214760568295 -14.820317050135486 a36.041417422651826,36.041417422651826 0 0,0 0.6086970911144051,0.1109248867679938 l -2.823553300722288 14.774023989436127" fill="#ff5c08" stroke="none" /><path d="M 103.94208987418118 79.37332000966035 l 1.7777899270165392 -9.302148120668173 a30.470506675117857,30.470506675117857 0 0,0 0.5129252951098381,0.10259942433266483 l -1.937211707657334 9.270259299672649" fill="#ff0100" stroke="none" /><path d="M 104.29559338865022 79.4440306129975 l 4.323331047500195 -20.688704125745193 a42.135601949055186,42.135601949055186 0 0,0 0.7067496478492048,0.15403279629938116 l -4.677843111968534 20.611439871312093" fill="#ffba11" stroke="none" /><path d="M 104.9986988182912 79.60360301121754 l 5.362566388651697 -21.881100845966145 a43.52864160361288,43.52864160361288 0 0,0 0.7242227128281533,0.18409458155002859 l -5.737394394705245 21.78582103258085" fill="#ffcf13" stroke="none" /><path d="M 105.3480935250658 79.69241777938227 l 3.8313561505086566 -14.548283360838692 a36.044329120944425,36.044329120944425 0 0,0 0.5969946694807499,0.16271355188435438 l -4.080532220924099 14.480369314810195" fill="#ff5c08" stroke="none" /><path d="M 105.69591212413111 79.78721728523813 l 6.104552018628652 -21.66290153964139 a43.50659588796894,43.50659588796894 0 0,0 0.7171129791419099,0.2087411369116715 l -6.475525010152166 21.554916708427204" fill="#ffce13" stroke="none" /><path d="M 106.38641147887787 79.99465700312896 l 6.848511093272775 -21.452863457346606 a43.51949055183615,43.51949055183615 0 0,0 0.7097350468170374,0.2333040070180544 l -7.215768877737554 21.332138528926528" fill="#ffcf13" stroke="none" /><path d="M 106.72888874123014 80.10723608172694 l 13.647571436576493 -40.34661993771516 a63.59232262409381,63.59232262409381 0 0,0 1.0310866093216637,0.3586654461048361 l -14.338163817943174 40.106396059041735" fill="#30ff33" stroke="none" /><path d="M 107.40779381753099 80.34994680014964 l 7.955535653304139 -21.103003494883474 a43.552767103751535,43.552767103751535 0 0,0 0.697316587878132,0.2697370362577092 l -8.316624503675797 20.963326570487727" fill="#ffcf13" stroke="none" /><path d="M 108.07796709384702 80.6158196554323 l 8.684382640447675 -20.839356898580927 a43.57647664699125,43.57647664699125 0 0,0 0.6880205335141508,0.2936750535273497 l -9.040838249132255 20.687207195394176" fill="#ffcf13" stroke="none" /><path d="M 109.71004243097381 81.37971332152246 l 10.424168872882575 -19.989718291938445 a43.54444796577269,43.54444796577269 0 0,0 0.6598252549099556,0.3513197834342675 l -10.76578294357909 19.807828040781605" fill="#ffcf13" stroke="none" /><path d="M 110.34350942703115 81.72400993836675 l 11.102380379725432 -19.61684232143379 a43.54070435368221,43.54070435368221 0 0,0 0.6473207549468178,0.37373081212057707 l -11.437493602532648 19.42336461203704" fill="#ffcf13" stroke="none" /><line stroke="#e1ed5e" stroke-width="0.3" x1="143.13028292997686" x2="145.6673583964461" y1="26.7553504044142" y2="22.446841604673864" /><path d="M 143.63769802327073 25.89364864446614 a86.0,86.0 0 0,1 29.32050498858742,28.57503671076993" fill="none" id="id50" stroke="none" /><text fill="#e1ed5e" style="font-size:6.75px; font-family:Arial;" text-anchor="middle"><textPath startOffset="20.669276256404974" xlink:href="#id50">February</textPath></text><path d="M 114.65682725009322 84.96080404539774 l 6.573595440792709 -6.745088024403974 a30.41851206275007,30.41851206275007 0 0,0 0.37082785074705804,0.36765840098222013 l -6.68841521166973 6.631249613193095" fill="#ff0000" stroke="none" /><path d="M 114.91283532996326 85.21462403516908 l 9.365494532579623 -9.28544805175552 a34.18832943786396,34.18832943786396 0 0,0 0.4096302349128962,0.42031670747470884 l -9.523511568643332 9.123308652213069" fill="#ff3f05" stroke="none" /><path d="M 115.16444852881244 85.47280134310134 l 9.478756530993428 -9.08043433854437 a34.12635185992156,34.12635185992156 0 0,0 0.4016251799068261,0.42651202317026127 l -9.633237544636513 8.916380855429614" fill="#ff3e05" stroke="none" /><path d="M 115.6541949942343 86.00192230759917 l 16.813236726366927 -15.03449995627981 a43.554846888246246,43.554846888246246 0 0,0 0.4935986509704873,0.561624656149804 l -17.068846441296007 14.743663022318707" fill="#ffcf13" stroke="none" /><path d="M 116.7966241395341 87.39550010848427 l 34.152847411554376 -25.628933404580597 a63.699639504020915,63.699639504020915 0 0,0 0.6488202020546869,0.8802492136149522 l -34.587769633192885 25.03887788169677" fill="#30ff34" stroke="none" /><line stroke="#e1ed5e" stroke-width="0.3" x1="172.87174338648825" x2="177.1583165268699" y1="56.24261187166439" y2="53.66864786411523" /><path d="M 173.72905801456457 55.72781907015455 a86.0,86.0 0 0,1 12.242430191666344,42.057860355516425" fill="none" id="id51" stroke="none" /><text fill="#e1ed5e" style="font-size:6.75px; font-family:Arial;" text-anchor="middle"><textPath startOffset="22.145653131862474" xlink:href="#id51">March</textPath></text><path d="M 118.53625476483649 90.13048839642627 l 11.637387216778068 -6.196253214492588 a34.18416986887454,34.18416986887454 0 0,0 0.27134406123481963,0.5203380154733219 l -11.742039346987832 5.995568955914767" fill="#ff3e05" stroke="none" /><path d="M 118.70294669586156 90.45014215332178 l 20.096609997961764 -10.261472258974772 a43.56482985382087,43.56482985382087 0 0,0 0.33437062175022664,0.6689652295001737 l -20.26980053292373 9.914975173310848" fill="#ffcf13" stroke="none" /><path d="M 119.71291397450082 92.76114493625339 l 21.16777903548784 -7.773101666121921 a43.54985540545894,43.54985540545894 0 0,0 0.25167633555320745,0.7039835030866136 l -21.29809554108499 7.408583206654391" fill="#ffcf13" stroke="none" /><path d="M 120.16314734710363 94.1308016681162 l 41.04078723875366 -11.946375030359132 a63.744146892207745,63.744146892207745 0 0,0 0.29680946688282944,1.0532720890075455 l -41.23981519771107 11.240095017448574" fill="#30ff35" stroke="none" /><path d="M 120.35273937422433 94.82641323984039 l 20.300734791185956 -5.160367398513598 a41.946341560036444,41.946341560036444 0 0,0 0.17140568204091522,0.6993936750593408 l -20.386327999743163 4.811117898846162" fill="#ffb711" stroke="none" /><path d="M 120.43855184770803 95.1765574152323 l 20.410618161587287 -4.816850310902693 a41.97129897397298,41.97129897397298 0 0,0 0.159469227830424,0.702650841868051 l -20.490298250975375 4.465765135095616" fill="#ffb811" stroke="none" /><path d="M 120.51834098615036 95.52812308129327 l 36.12432631925634 -7.873128786579406 a57.97232896248465,57.97232896248465 0 0,0 0.2035720117398323,0.9741657700729291 l -36.254156041820536 7.251846565221073" fill="#6eff28" stroke="none" /><path d="M 120.7213421655516 96.59031103205396 l 42.00087918403573 -6.911228686524079 a63.565701382561514,63.565701382561514 0 0,0 0.16793001256614884,1.078231145537397 l -42.11333068874014 6.189209359055241" fill="#30ff32" stroke="none" /><path d="M 120.86939407059847 97.66154086499901 l 20.82557685847068 -2.3335493249881067 a41.95590856871212,41.95590856871212 0 0,0 0.0740573881857202,0.7164380512500463 l -20.862566639138066 1.975706751455129" fill="#ffb811" stroke="none" /><path d="M 120.9064616781168 98.02013634271609 l 27.583062748438813 -2.61214472027937 a48.70647308164639,48.70647308164639 0 0,0 0.07168288733922357,0.8330638089281555 l -27.623839258475776 2.1382598639755526" fill="#e6ff1a" stroke="none" /><path d="M 120.98066250479742 99.09900007780936 l 47.30269598717599 -2.0313812966634277 a68.34629402210514,68.34629402210514 0 0,0 0.04027651338709516,1.172606741734439 l -47.330597187559924 1.2190682903648689" fill="#37ff73" stroke="none" /><line stroke="#e1ed5e" stroke-width="0.3" x1="184.99686870605535" x2="189.99668451229388" y1="99.2704041080226" y2="99.22748670261217" /><path d="M 185.99683186730306 99.26182062694052 a86.0,86.0 0 0,1 -10.086455211305974,41.156179273409016" fill="none" id="id52" stroke="none" /><text fill="#e1ed5e" style="font-size:6.75px; font-family:Arial;" text-anchor="middle"><textPath startOffset="21.40746469413373" xlink:href="#id52">April</textPath></text><path d="M 120.99922638620191 99.81974689727618 l 20.89357722599719 -0.17934623174787734 a41.89434694766866,41.89434694766866 0 0,0 0.0,0.7191986689434059 l -20.89357722599719 -0.17934623174787478" fill="#ffb710" stroke="none" /><path d="M 120.99922638620191 100.18025310272382 l 20.916454012655695 0.17954260144739173 a41.91722457711049,41.91722457711049 0 0,0 -0.012352743404258475,0.7194853748969775 l -20.91028983765277 -0.5385748923134404" fill="#ffb711" stroke="none" /><path d="M 120.99303781780057 100.54070618675476 l 27.717246797550466 0.7138979576617611 a48.72643901279562,48.72643901279562 0 0,0 -0.028714520681545223,0.8359919393528181 l -27.700907589872074 -1.18959616157869" fill="#e6ff1a" stroke="none" /><path d="M 120.98066250479742 100.90099992219065 l 21.346783086081867 0.916722715270903 a42.36645802796815,42.36645802796815 0 0,0 -0.037440672445424546,0.7263390430852088 l -21.32790082417987 -1.2830335517328424" fill="#ffbe11" stroke="none" /><path d="M 120.93736805541906 101.62068470465957 l 21.05639163882645 1.6298978827730528 a42.11937962999644,42.11937962999644 0 0,0 -0.06198844945627431,0.7203997457471044 l -21.025309566672433 -1.9911186758958146" fill="#ffba11" stroke="none" /><path d="M 120.86939407059847 102.33845913500097 l 21.668851506967712 2.428040008254792 a42.804460642554375,42.804460642554375 0 0,0 -0.08809140417864463,0.7295231961834908 l -21.623978016529403 -2.7996568813616918" fill="#ffc412" stroke="none" /><path d="M 120.82617615685814 102.69636545807757 l 20.7589363930906 2.687659924470897 a41.932199025472414,41.932199025472414 0 0,0 -0.09855161689549212,0.7130704064227238 l -20.709740259639897 -3.043618639093706" fill="#ffb711" stroke="none" /><path d="M 120.51834098615036 104.47187691870673 l 41.180146979790166 8.97502136806162 a63.14683278532663,63.14683278532663 0 0,0 -0.2399253039668316,1.057155158467375 l -41.02001081426567 -9.680610860468013" fill="#32ff2f" stroke="none" /><path d="M 120.43855184770803 104.8234425847677 l 20.38511349165095 4.810831278243337 a41.945093689339615,41.945093689339615 0 0,0 -0.17140058285656862,0.6993728686471345 l -20.299525382278087 -5.160059971498572" fill="#ffb711" stroke="none" /><path d="M 120.35273937422433 105.17358676015961 l 20.330566877580065 5.167950598217511 a41.97712237055818,41.97712237055818 0 0,0 -0.18352101900782467,0.69685920136691 l -20.23885637776751 -5.516190303957225" fill="#ffb811" stroke="none" /><path d="M 120.16314734710363 105.8691983318838 l 20.802156889459262 6.055204696638663 a42.665531038307655,42.665531038307655 0 0,0 -0.21073456610917282,0.7014668328743081 l -20.69514600334646 -6.411409133103694" fill="#ffc212" stroke="none" /><path d="M 120.05942366710727 106.21446072829308 l 16.317403065419352 5.055173180476567 a38.0825179257616,38.0825179257616 0 0,0 -0.1988184607956505,0.622795996700453 l -16.228219888846446 -5.334538210868404" fill="#ff7d0b" stroke="none" /><path d="M 119.94978838288452 106.5578916946017 l 40.425132732754676 13.288544074419486 a63.55322267559324,63.55322267559324 0 0,0 -0.3495868440518461,1.0334913869279003 l -40.19106046713046 -13.980537135821548" fill="#30ff32" stroke="none" /><path d="M 119.71291397450082 107.23885506374661 l 19.684800639989003 7.228531457903607 a41.970051103276155,41.970051103276155 0 0,0 -0.2541572713846005,0.6741823580479611 l -19.557812684789962 -7.5653820961457265" fill="#ffb811" stroke="none" /><path d="M 119.58574465831526 107.57618678355244 l 19.53841548095294 7.557878841002168 a41.94925325832904,41.94925325832904 0 0,0 -0.26556139582589927,0.6693881950246019 l -19.405795410160916 -7.892168053240334" fill="#ffb711" stroke="none" /><path d="M 119.0197475246899 108.90220220490707 l 16.03677480154894 7.50602035135452 a38.70645327417502,38.70645327417502 0 0,0 -0.2868346181079577,0.5993740330553788 l -15.905560925481069 -7.7802068864750025" fill="#ff860c" stroke="none" /><path d="M 118.5362547648365 109.86951160357373 l 11.479509992421226 6.112192484992593 a34.00530840232936,34.00530840232936 0 0,0 -0.27877009424883753,0.5129055748877754 l -11.37289454855705 -6.3083528933549715" fill="#ff3c05" stroke="none" /><line stroke="#e1ed5e" stroke-width="0.3" x1="174.33088141563837" x2="178.70328620479359" y1="141.23008692659167" y2="143.65538615756765" /><path d="M 175.20536237346943 141.71514677278685 a86.0,86.0 0 0,1 -30.301960400862466,31.631185727798858" fill="none" id="id53" stroke="none" /><text fill="#e1ed5e" style="font-size:6.75px; font-family:Arial;" text-anchor="middle"><textPath startOffset="22.145653131862474" xlink:href="#id53">May</textPath></text><path d="M 118.18653347947321 110.5 l 18.220034798920008 10.51934199580081 a42.03868399160163,42.03868399160163 0 0,0 -0.3661895473148053,0.6218699080222719 l -18.03677154147544 -10.830563072116632" fill="#ffb911" stroke="none" /><path d="M 117.81537515405839 111.11811171558189 l 17.979110329581953 11.22029457490982 a42.193004001109216,42.193004001109216 0 0,0 -0.3887428481606035,0.6111683257793097 l -17.78384978979546 -11.527276575367802" fill="#ffbb11" stroke="none" /><path d="M 117.62189284568427 111.42229804090321 l 24.874701771732557 16.123481160816226 a50.64316840312166,50.64316840312166 0 0,0 -0.47912189987249154,0.725451622872499 l -24.59425543293934 -16.548112662027783" fill="#ccff1d" stroke="none" /><path d="M 117.21940702142032 112.02048342749411 l 17.188028313541484 11.99857865240142 a41.961731965297304,41.961731965297304 0 0,0 -0.4173891546230156,0.5871101170531481 l -16.979524060388506 -12.291865996164072" fill="#ffb811" stroke="none" /><path d="M 116.79662413953412 112.60449989151573 l 16.867156253735693 12.657428504933337 a42.08818286257576,42.08818286257576 0 0,0 -0.43861502839167416,0.5741611518962697 l -16.647389247989715 -12.945110570070485" fill="#ffba11" stroke="none" /><path d="M 116.57777611688842 112.89097897827486 l 16.535745547166876 12.858295753039757 a41.94675751693539,41.94675751693539 0 0,0 -0.4468998943941362,0.5646434174992616 l -16.312579222131177 -13.140259114453702" fill="#ffb711" stroke="none" /><path d="M 116.35404254752997 113.17365903436017 l 16.758309970168277 13.499308253448264 a42.519114209879966,42.519114209879966 0 0,0 -0.4627561331344826,0.5644872393293202 l -16.524107017795167 -13.784997774476077" fill="#ffc011" stroke="none" /><path d="M 116.1254893667686 113.45245675266167 l 22.621232290588537 18.871436528815078 a50.45931545378917,50.45931545378917 0 0,0 -0.5605920293846898,0.6603760010265565 l -22.29394569769673 -19.256979312291193" fill="#ceff1d" stroke="none" /><path d="M 115.6541949942343 113.99807769240083 l 22.00597933953577 19.67788242101532 a50.52087707483263,50.52087707483263 0 0,0 -0.5836419492304362,0.641524741225129 l -21.664939689463456 -20.05274473779812" fill="#cdff1d" stroke="none" /><path d="M 115.16444852881244 114.52719865689866 l 21.601364346513403 20.69361840132956 a50.91395634433309,50.91395634433309 0 0,0 -0.6100296867555146,0.6259441992933649 l -21.24294785860708 -21.061385292690662" fill="#c8ff1d" stroke="none" /><path d="M 114.91283532996324 114.78537596483092 l 21.338652779712103 21.156272227932217 a51.048726379590384,51.048726379590384 0 0,0 -0.6223279247737974,0.6170089146432132 l -20.97233293480834 -21.51946115280409" fill="#c6ff1e" stroke="none" /><path d="M 114.65682725009322 115.03919595460226 l 20.607988003562706 21.1456111563095 a50.52670047141782,50.52670047141782 0 0,0 -0.6263566824358173,0.6000355330121394 l -20.241958835261578 -21.49625881962722" fill="#cdff1d" stroke="none" /><path d="M 114.39649973595853 115.28858382429668 l 23.151143367730953 24.585711978433118 a54.77029275442697,54.77029275442697 0 0,0 -0.6900280418685574,0.6386796540330226 l -22.725685554548427 -24.97950937859852" fill="#96ff23" stroke="none" /><path d="M 113.86319453409587 115.77377054828091 l 22.34487961053594 25.424371203815138 a54.848076694529176,54.848076694529176 0 0,0 -0.7125562294194403,0.6154890998138559 l -21.905143901353643 -25.80420443609371" fill="#95ff23" stroke="none" /><path d="M 113.31354834802062 116.24036423190432 l 13.413229869146313 16.36195947968905 a42.15723170780018,42.15723170780018 0 0,0 -0.5636004917104772,0.4539966609364684 l -13.130378607080583 -16.589804434418923" fill="#ffbb11" stroke="none" /><path d="M 113.03279911837588 116.46651593811092 l 13.032282824784845 16.46586361802464 a41.99916808620212,41.99916808620212 0 0,0 -0.5691688367107864,0.44258913001324157 l -12.747704043438828 -16.687153799658674" fill="#ffb811" stroke="none" /><path d="M 112.7482090630111 116.68781488649013 l 20.928263584982442 27.395768839028417 a55.4749237412352,55.4749237412352 0 0,0 -0.7617156405327781,0.5716056172182413 l -20.4548949555389 -27.750993483510673" fill="#8dff24" stroke="none" /><path d="M 112.45986205192187 116.90419585922612 l 17.448890918926597 23.672771688055015 a50.40856871211821,50.40856871211821 0 0,0 -0.7009647287527226,0.5074444067585253 l -17.039945179799908 -23.968816866186614" fill="#cfff1d" stroke="none" /><path d="M 111.8722381534696 117.32195027204791 l 18.981095250078283 27.693985226768206 a54.57437705502516,54.57437705502516 0 0,0 -0.7773047024738932,0.5230052938311134 l -18.502894259507386 -28.01574019465644" fill="#98ff23" stroke="none" /><path d="M 111.27062007382361 117.71928675628689 l 16.103373378861313 25.31717765079426 a51.004634948302495,51.004634948302495 0 0,0 -0.7428117602465071,0.46356947651407165 l -15.66639748982509 -25.58988292414988" fill="#c7ff1e" stroke="none" /><path d="M 110.96478420261333 117.91015095944535 l 17.879943435097744 29.205543871316763 a55.24406766232223,55.24406766232223 0 0,0 -0.8130538909023043,0.4882155005511022 l -17.375956787638003 -29.50817337240379" fill="#90ff24" stroke="none" /><line stroke="#e1ed5e" stroke-width="0.3" x1="143.1302829299769" x2="145.66735839644613" y1="173.24464959558577" y2="177.55315839532614" /><path d="M 143.63769802327073 174.10635135553383 a86.0,86.0 0 0,1 -40.68552437913181,11.842963189579606" fill="none" id="id54" stroke="none" /><text fill="#e1ed5e" style="font-size:6.75px; font-family:Arial;" text-anchor="middle"><textPath startOffset="21.407464694133747" xlink:href="#id54">June</textPath></text><path d="M 110.65571695917076 118.09573695890943 l 14.905044486385929 25.312024091851697 a50.374460246404944,50.374460246404944 0 0,0 -0.7489183769711689,0.4323882265453637 l -14.468333641554363 -25.564159215673232" fill="#cfff1d" stroke="none" /><path d="M 110.34350942703117 118.27599006163325 l 20.611623467833514 36.41876370004658 a62.846927861189236,62.846927861189236 0 0,0 -0.9434694887987896,0.5233266213842712 l -19.983409790878632 -36.767223236864" fill="#35ff2f" stroke="none" /><path d="M 110.02825361518725 118.45085714620011 l 15.609481481913308 28.71968779418036 a53.687556946480214,53.687556946480214 0 0,0 -0.8135229082603002,0.43315512678857676 l -15.114169757866454 -28.983413388691506" fill="#a4ff21" stroke="none" /><path d="M 109.71004243097381 118.62028667847754 l 15.463443557625762 29.653191953206722 a54.442934674959396,54.442934674959396 0 0,0 -0.832387823531198,0.4250231536930863 l -14.952128512380982 -29.914273058572643" fill="#9aff23" stroke="none" /><path d="M 109.06512990194946 118.94263497670748 l 14.876501951162991 31.08616746137923 a55.46244503426693,55.46244503426693 0 0,0 -0.8623387742842565,0.4036180884023247 l -14.340674463007229 -31.336961781352088" fill="#8dff24" stroke="none" /><path d="M 108.73861861582097 119.09545874513695 l 12.179127315790728 26.613591167533006 a50.26797528027572,50.26797528027572 0 0,0 -0.7877389014439714,0.3523455909815692 l -11.72047501149113 -26.818740509424423" fill="#d1ff1d" stroke="none" /><path d="M 108.4095320186766 119.2426549942271 l 21.763407794243758 49.79893610646005 a75.34684863130373,75.34684863130373 0 0,0 -1.1896367715515772,0.507785197600244 l -20.90533594752175 -50.16519595371969" fill="#41ffcb" stroke="none" /><path d="M 108.07796709384702 119.3841803445677 l 20.881655340424945 50.10837111730968 a75.28528701026028,75.28528701026028 0 0,0 -1.1971993207177938,0.48689054133709014 l -20.01840155851671 -50.45944891522606" fill="#40ffca" stroke="none" /><path d="M 107.74402155503746 119.51999308798841 l 11.242682325327241 28.33890372348988 a51.48756090797449,51.48756090797449 0 0,0 -0.8243593387530888,0.31887990148526724 l -10.754550724080623 -28.52772351311319" fill="#c0ff1e" stroke="none" /><path d="M 107.407793817531 119.65005319985036 l 12.012757593021087 31.86526671694627 a55.05439131640455,55.05439131640455 0 0,0 -0.8871906319309584,0.32578868891577084 l -11.463977809436 -32.06678625487076" fill="#92ff23" stroke="none" /><path d="M 106.72888874123015 119.89276391827305 l 10.734154271529773 31.73361976955902 a54.499920770114485,54.499920770114485 0 0,0 -0.8888087458935332,0.2921690887601164 l -10.187822787988505 -31.913209779721157" fill="#99ff23" stroke="none" /><path d="M 106.38641147887787 120.00534299687104 l 8.976218597823069 28.117876910727166 a50.51588559204532,50.51588559204532 0 0,0 -0.8283627805907694,0.2566289069013603 l -8.492215184360674 -28.267822405435172" fill="#cdff1d" stroke="none" /><path d="M 106.0420521117495 120.11202640906438 l 12.014332081100124 39.99180404824238 a62.75749712791665,62.75749712791665 0 0,0 -1.034422822800877,0.30110540787758105 l -11.32604924591764 -40.192153150422484" fill="#36ff2e" stroke="none" /><path d="M 105.69591212413111 120.21278271476187 l 16.95539661638957 60.16872103727742 a83.51208255754071,83.51208255754071 0 0,0 -1.3831931219138045,0.376995436164213 l -15.920022093541071 -60.450916967585776" fill="#4cd7ff" stroke="none" /><path d="M 105.3480935250658 120.30758222061773 l 10.915572655852229 41.448207320031536 a63.86144673770946,63.86144673770946 0 0,0 -1.062516736053519,0.27008759936542465 l -10.202450626573311 -41.62948015123223" fill="#30ff36" stroke="none" /><path d="M 104.9986988182912 120.39639698878246 l 9.946703705691363 40.58594544018314 a62.787030067741554,62.787030067741554 0 0,0 -1.04904523871133,0.24757181993378163 l -9.248526313240154 -40.75071340376314" fill="#36ff2f" stroke="none" /><path d="M 104.29559338865022 120.5559693870025 l 8.54906977996688 40.910393695239314 a62.794101335023576,62.794101335023576 0 0,0 -1.0570445480883788,0.21143851387680632 l -7.845528746347543 -41.05112160577898" fill="#36ff2f" stroke="none" /><path d="M 103.94208987418118 120.62667999033965 l 6.2554499483079775 32.73115743109141 a54.323555044962966,54.323555044962966 0 0,0 -0.9174608630702668,0.16719193148076383 l -5.692654351686654 -32.833717536503535" fill="#9bff22" stroke="none" /><path d="M 103.58742460773223 120.69131181640829 l 7.178828452837855 41.40557481654511 a63.02329358634076,63.02329358634076 0 0,0 -1.0675620647786872,0.17566693150431703 l -6.466988885006096 -41.522707746545095" fill="#33ff2f" stroke="none" /><path d="M 103.2317021107853 120.74984581791261 l 9.695106332355914 62.24953745373786 a84.0,84.0 0 0,0 -1.426699577569258,0.20967570680447034 l -8.625081649178972 -62.406794233841204" fill="#4dd2ff" stroke="none" /><line stroke="#e1ed5e" stroke-width="0.3" x1="101.45913802915013" x2="101.54496967792366" y1="184.9874750549273" y2="189.98673829345242" /><path d="M 101.47630435890484 185.9873277026323 a86.0,86.0 0 0,1 -42.54439059252881,-10.42667462771756" fill="none" id="id55" stroke="none" /><text fill="#e1ed5e" style="font-size:6.75px; font-family:Arial;" text-anchor="middle"><textPath startOffset="22.145653131862474" xlink:href="#id55">July</textPath></text><line stroke="#e1ed5e" stroke-width="0.3" x1="58.13341422392154" x2="55.67067388415222" y1="173.97424548756322" y2="178.32567169271397" /><path d="M 57.64086615596768 174.84453072859336 a86.0,86.0 0 0,1 -31.369924170532247,-30.572349798747897" fill="none" id="id56" stroke="none" /><text fill="#e1ed5e" style="font-size:6.75px; font-family:Arial;" text-anchor="middle"><textPath startOffset="22.145653131862474" xlink:href="#id56">August</textPath></text><line stroke="#e1ed5e" stroke-width="0.3" x1="26.387840678322732" x2="22.057713659400548" y1="142.50000000000003" y2="145.00000000000006" /><path d="M 25.521815274538298 143.00000000000003 a86.0,86.0 0 0,1 -11.493303480769221,-40.785679425670985" fill="none" id="id57" stroke="none" /><text fill="#e1ed5e" style="font-size:6.75px; font-family:Arial;" text-anchor="middle"><textPath startOffset="21.40746469413373" xlink:href="#id57">September</textPath></text><line stroke="#e1ed5e" stroke-width="0.3" x1="15.003131293944662" x2="10.003315487706104" y1="100.72959589197737" y2="100.7725132973878" /><path d="M 14.003168132696942 100.73817937305945 a86.0,86.0 0 0,1 10.791469493833604,-42.45332614584628" fill="none" id="id58" stroke="none" /><text fill="#e1ed5e" style="font-size:6.75px; font-family:Arial;" text-anchor="middle"><textPath startOffset="22.145653131862435" xlink:href="#id58">October</textPath></text><line stroke="#e1ed5e" stroke-width="0.3" x1="26.387840678322718" x2="22.05771365940052" y1="57.49999999999999" y2="54.99999999999999" /><path d="M 25.521815274538284 56.99999999999999 a86.0,86.0 0 0,1 29.574782752854787,-30.34633250058573" fill="none" id="id59" stroke="none" /><text fill="#e1ed5e" style="font-size:6.75px; font-family:Arial;" text-anchor="middle"><textPath startOffset="21.40746469413373" xlink:href="#id59">November</textPath></text><line stroke="#e1ed5e" stroke-width="0.3" x1="56.869717070023135" x2="54.33264160355391" y1="26.7553504044142" y2="22.446841604673864" /><path d="M 56.362301976729285 25.89364864446614 a86.0,86.0 0 0,1 42.16139366436587,-11.88097634709845" fill="none" id="id60" stroke="none" /><text fill="#e1ed5e" style="font-size:6.75px; font-family:Arial;" text-anchor="middle"><textPath startOffset="22.145653131862474" xlink:href="#id60">December</textPath></text></svg>