<?xml version="1.0" encoding="utf-8" ?>
<svg baseProfile="full" height="200mm" version="1.1" viewBox="0,0,200,200" width="200mm" xmlns="http://www.w3.org/2000/svg" xmlns:ev="http://www.w3.org/2001/xml-events" xmlns:xlink="http://www.w3.org/1999/xlink"><defs /><rect fill="#1a1a1a" height="200" width="200" x="0" y="0" /><text alignment-baseline="middle" fill="#e1ed5e" style="dominant-baseline: central; font-size:9.0px; font-family:Arial;" text-anchor="middle" x="100.0" y="100.0">2022</text><line stroke="#e1ed5e" stroke-width="0.3" x1="100.0" x2="100.0" y1="15.0" y2="10.0" /><path d="M 100.0 14.0 a86.0,86.0 0 0,1 42.46469731375804,11.215312516191453" fill="none" id="id25" stroke="none" /><text fill="#e1ed5e" style="font-size:6.75px; font-family:Arial;" text-anchor="middle"><textPath startOffset="22.20632615414155" xlink:href="#id25">January</textPath></text><path d="M 100.72285384407766 79.0124445844662 l 1.039669529402615 -30.18607709006672 a51.20397594386903,51.20397594386903 0 0,0 0.8806088252497348,0.03792086842512398 l -1.5591191870416814 30.163708495117405" fill="#ffcd13" stroke="none" /><path d="M 102.52436894288641 79.15227682838746 l 3.661666372694282 -30.240194128457127 a51.46107584363515,51.46107584363515 0 0,0 0.8784779878611366,0.11405165531144373 l -4.181659089063264 30.172684149981546" fill="#ffd213" stroke="none" /><path d="M 102.88285421437855 79.19881850522331 l 4.181452689305661 -30.171194876331498 a51.45957233544939,51.45957233544939 0 0,0 0.876359015287243,0.12915253832360912 l -4.700180685021559 30.094747853846922" fill="#ffd213" stroke="none" /><line stroke="#e1ed5e" stroke-width="0.3" x1="143.23703022742887" x2="145.7803849466894" y1="26.81831364943548" y2="22.513508569990506" /><path d="M 143.74570117128098 25.957352633546492 a86.0,86.0 0 0,1 28.547481713284135,27.462654790039103" fill="none" id="id26" stroke="none" /><text fill="#e1ed5e" style="font-size:6.75px; font-family:Arial;" text-anchor="middle"><textPath startOffset="19.985693538727396" xlink:href="#id26">February</textPath></text><line stroke="#e1ed5e" stroke-width="0.3" x1="172.23445277983987" x2="176.4835382374775" y1="55.19839476539836" y2="52.563006222186495" /><path d="M 173.08426987136738 54.67131705675599 a86.0,86.0 0 0,1 12.851231095245387,41.99856678651699" fill="none" id="id27" stroke="none" /><text fill="#e1ed5e" style="font-size:6.75px; font-family:Arial;" text-anchor="middle"><textPath startOffset="22.20632615414155" xlink:href="#id27">March</textPath></text><path d="M 118.56541770881063 90.18545643968196 l 31.01029987684732 -16.393487274752044 a56.07684597393919,56.07684597393919 0 0,0 0.44378299138103816,0.8572474860590306 l -31.287892301388474 15.857267066432668" fill="#dcff1b" stroke="none" /><path d="M 118.73160827565052 90.50648371742162 l 30.736699685191702 -15.577912725913858 a55.45890410958904,55.45890410958904 0 0,0 0.4242341732277412,0.8552302061069808 l -31.000293871372854 15.046522931307928" fill="#e6ff1a" stroke="none" /><line stroke="#e1ed5e" stroke-width="0.3" x1="184.98032266829074" x2="189.97916517819016" y1="98.17113171792111" y2="98.06355123074" /><path d="M 185.9800911702706 98.14961562048488 a86.0,86.0 0 0,1 -9.607161424134198,41.387399972396054" fill="none" id="id28" stroke="none" /><text fill="#e1ed5e" style="font-size:6.75px; font-family:Arial;" text-anchor="middle"><textPath startOffset="21.466115282336823" xlink:href="#id28">April</textPath></text><path d="M 120.9904718944345 100.63252640178507 l 19.679506667291758 0.5930218055015628 a40.6884396926161,40.6884396926161 0 0,0 -0.027121493967098613,0.699885247641494 l -19.66638304047346 -0.9316843001570629" fill="#ff0000" stroke="none" /><path d="M 120.95626037817324 101.35467743843564 l 25.866492930149395 1.6720900462004524 a46.92048112261945,46.92048112261945 0 0,0 -0.0590381228754565,0.8055282806285947 l -25.8338782486096 -2.1170914633258175" fill="#ff7d0b" stroke="none" /><line stroke="#e1ed5e" stroke-width="0.3" x1="174.80103733775053" x2="179.2010983576182" y1="140.37084112569926" y2="142.7455964860345" /><path d="M 175.68104954172406 140.8457921977663 a86.0,86.0 0 0,1 -30.038265399797805,32.042727171017184" fill="none" id="id29" stroke="none" /><text fill="#e1ed5e" style="font-size:6.75px; font-family:Arial;" text-anchor="middle"><textPath startOffset="22.206326154141568" xlink:href="#id29">May</textPath></text><line stroke="#e1ed5e" stroke-width="0.3" x1="143.8653032363475" x2="146.44561519142675" y1="172.8068346515853" y2="177.08958963109032" /><path d="M 144.38136562736335 173.6633856474863 a86.0,86.0 0 0,1 -40.68145358897372,12.25698825130547" fill="none" id="id30" stroke="none" /><text fill="#e1ed5e" style="font-size:6.75px; font-family:Arial;" text-anchor="middle"><textPath startOffset="21.466115282336833" xlink:href="#id30">June</textPath></text><line stroke="#e1ed5e" stroke-width="0.3" x1="102.19456741930631" x2="102.32365962044197" y1="184.97166512339345" y2="189.96999836594603" /><path d="M 102.22038585953345 185.97133177190398 a86.0,86.0 0 0,1 -42.740103519485714,-10.115201625700543" fill="none" id="id31" stroke="none" /><text fill="#e1ed5e" style="font-size:6.75px; font-family:Arial;" text-anchor="middle"><textPath startOffset="22.20632615414155" xlink:href="#id31">July</textPath></text><line stroke="#e1ed5e" stroke-width="0.3" x1="58.666819895761336" x2="56.23545636021788" y1="174.27360380694188" y2="178.64263932499728" /><path d="M 58.180547188652646 175.14741091055294 a86.0,86.0 0 0,1 -31.652253787137756,-30.449443065178592" fill="none" id="id32" stroke="none" /><text fill="#e1ed5e" style="font-size:6.75px; font-family:Arial;" text-anchor="middle"><textPath startOffset="22.20632615414155" xlink:href="#id32">August</textPath></text><path d="M 84.9287848128048 114.62390073753433 l -21.705830130229 21.061599964410327 a51.24457066488473,51.24457066488473 0 0,0 -0.6088183170612762,-0.6383435714151917 l 22.065154998669232 -20.684849276412635" fill="#ffce13" stroke="none" /><line stroke="#e1ed5e" stroke-width="0.3" x1="26.63291911575756" x2="22.317208475507996" y1="142.92168965132927" y2="145.44649492493687" /><path d="M 25.769776987707644 143.4266507060508 a86.0,86.0 0 0,1 -11.730757126820373,-40.83630448921669" fill="none" id="id33" stroke="none" /><text fill="#e1ed5e" style="font-size:6.75px; font-family:Arial;" text-anchor="middle"><textPath startOffset="21.46611528233685" xlink:href="#id33">September</textPath></text><line stroke="#e1ed5e" stroke-width="0.3" x1="15.007084014347285" x2="10.007500721073583" y1="101.09737516637583" y2="101.16192664675087" /><path d="M 14.007167355692545 101.11028546245083 a86.0,86.0 0 0,1 10.666146001902534,-42.60595125391555" fill="none" id="id34" stroke="none" /><text fill="#e1ed5e" style="font-size:6.75px; font-family:Arial;" text-anchor="middle"><textPath startOffset="22.20632615414155" xlink:href="#id34">October</textPath></text><path d="M 79.00019446554 99.90962569577889 l -24.75352954412792 -0.106528748844675 a45.75375877046442,45.75375877046442 0 0,0 0.010168212691405578,-0.7875392787128842 l 24.7480283243188 0.5326042856180312" fill="#ff6709" stroke="none" /><path d="M 79.01574976396665 99.18683210126434 l -34.557757906250714 -1.3391595632703097 a55.58369528900768,55.58369528900768 0 0,0 0.04527792702112344,-0.9557454772243641 l 34.52958637099609 1.933816147117683" fill="#e4ff1a" stroke="none" /><path d="M 79.03285615573316 98.82574320788736 l -22.831078998194926 -1.278645760434434 a43.8668559973271,43.8668559973271 0 0,0 0.04871186458819911,-0.7535509847978171 l 22.805686542602313 1.671455809485263" fill="#ff4106" stroke="none" /><line stroke="#e1ed5e" stroke-width="0.3" x1="26.266209847984243" x2="21.928928074336255" y1="57.711370442889674" y2="55.22380399835377" /><path d="M 25.398753493254645 57.213857153982495 a86.0,86.0 0 0,1 29.58750427330803,-30.492523968695096" fill="none" id="id35" stroke="none" /><text fill="#e1ed5e" style="font-size:6.75px; font-family:Arial;" text-anchor="middle"><textPath startOffset="21.46611528233685" xlink:href="#id35">November</textPath></text><path d="M 83.39014120810768 87.1503855733568 l -18.21249492132817 -14.089435703119713 a44.02622786501838,44.02622786501838 0 0,0 0.4688707718500651,-0.595418265677214 l 17.967270068884133 14.400846362749975" fill="#ff4406" stroke="none" /><path d="M 83.6137871275137 86.86637796730984 l -25.875684534071716 -20.739475506158236 a54.1613765452723,54.1613765452723 0 0,0 0.5893312481815727,-0.7224504269594423 l 25.514854793813754 21.18181010272576" fill="#fcff18" stroke="none" /><path d="M 84.80347519578584 85.50635884689758 l -25.72151994389959 -24.531824531084013 a56.54443701971266,56.54443701971266 0 0,0 0.677821689840477,-0.698554833589263 l 25.295433990355995 24.9709435602234" fill="#d4ff1c" stroke="none" /><path d="M 85.31137513191541 84.99185889309783 l -44.06587460425377 -45.02442332070654 a84.0,84.0 0 0,0 1.0420670255502897,-1.0024676529507457 l 43.28432433509105 45.776274060419595" fill="#4dd2ff" stroke="none" /><path d="M 85.83668400450813 84.49514656593479 l -23.47381523409203 -25.697235369088048 a55.80471099231541,55.80471099231541 0 0,0 0.7148025760626268,-0.6417568104756236 l 23.028001670433433 26.09749118833295" fill="#e0ff1b" stroke="none" /><path d="M 86.37877921826538 84.01681056812374 l -29.280000912901553 -34.35725832914798 a66.14132976946209,66.14132976946209 0 0,0 0.872884335290878,-0.731015527996492 l 28.684259040651565 34.85617501453829" fill="#40ff2d" stroke="none" /><path d="M 88.70189139769569 82.29822771554957 l -18.001962217384552 -28.205308256678265 a54.46057467423989,54.46057467423989 0 0,0 0.7945560490946865,-0.49755092505038284 l 17.51378701591762 28.511003523051578" fill="#f7ff18" stroke="none" /><line stroke="#e1ed5e" stroke-width="0.3" x1="56.762969772571076" x2="54.21961505331055" y1="26.818313649435495" y2="22.513508569990535" /><path d="M 56.25429882871897 25.957352633546506 a86.0,86.0 0 0,1 42.265352541879196,-11.944610805530505" fill="none" id="id36" stroke="none" /><text fill="#e1ed5e" style="font-size:6.75px; font-family:Arial;" text-anchor="middle"><textPath startOffset="22.20632615414155" xlink:href="#id36">December</textPath></text></svg>