<?xml version="1.0" encoding="utf-8" ?>
<svg baseProfile="full" height="200mm" version="1.1" viewBox="0,0,200,200" width="200mm" xmlns="http://www.w3.org/2000/svg" xmlns:ev="http://www.w3.org/2001/xml-events" xmlns:xlink="http://www.w3.org/1999/xlink"><defs /><rect fill="#1a1a1a" height="200" width="200" x="0" y="0" /><text alignment-baseline="middle" fill="#e1ed5e" style="dominant-baseline: central; font-size:9.0px; font-family:Arial;" text-anchor="middle" x="100.0" y="100.0">2024</text><line stroke="#e1ed5e" stroke-width="0.3" x1="100.0" x2="100.0" y1="15.0" y2="10.0" /><path d="M 100.0 14.0 a86.0,86.0 0 0,1 42.35913384403234,11.155469271406648" fill="none" id="id49" stroke="none" /><text fill="#e1ed5e" style="font-size:6.75px; font-family:Arial;" text-anchor="middle"><textPath startOffset="22.145653131862478" xlink:href="#id49">January</textPath></text><path d="M 100.0 79.0 l 0.0 -8.26044353989196 a29.26044353989196,29.26044353989196 0 0,0 0.5022944225747824,0.004311593507533635 l -0.14180149772592762 8.25922634457886" fill="#ff2803" stroke="none" /><path d="M 100.72087961077811 79.0123766808444 l 0.46563010933292986 -13.556312586214537 a34.564306924199116,34.564306924199116 0 0,0 0.5928177598467935,0.025458145345648966 l -0.6982736297805597 13.546321872443057" fill="#ff780b" stroke="none" /><path d="M 101.08105385017728 79.02784411241856 l 0.7010969427729893 -13.601093390242061 a34.619151160525824,34.619151160525824 0 0,0 0.5932331937854876,0.03568743581016246 l -0.9344744886909392 13.587053976607207" fill="#ff790b" stroke="none" /><path d="M 101.80034050326958 79.07731436759882 l 2.1502363476603654 -24.98900572183803 a46.081346122504144,46.081346122504144 0 0,0 0.7875531068177656,0.07458209803152029 l -2.578889017863144 24.948411868301328" fill="#e8ff1a" stroke="none" /><path d="M 102.51750503828377 79.15144685158666 l 2.2988956914246486 -19.038154155194476 a40.17645001132899,40.17645001132899 0 0,0 0.6839986627021937,0.08855732101709332 l -2.625372176017634 18.99588523797699" fill="#ffc812" stroke="none" /><path d="M 102.87502721639298 79.19773525538626 l 1.7893563594217394 -12.9468912499023 a34.06995750635019,34.06995750635019 0 0,0 0.5786618331203913,0.08504336215407436 l -2.0113432981498125 12.914266814449343" fill="#ff710a" stroke="none" /><path d="M 103.23170211078529 79.25015418208739 l 2.083565128782746 -13.377982775558335 a34.53926389391295,34.53926389391295 0 0,0 0.5850663426215068,0.09627244403451467 l -2.312908974457323 13.340244333028151" fill="#ff780b" stroke="none" /><path d="M 103.58742460773223 79.30868818359171 l 1.5470017280510373 -8.92269486768702 a30.0558101817806,30.0558101817806 0 0,0 0.5076072345933414,0.09250294742955828 l -1.6999436961954324 8.894823746326097" fill="#ff3505" stroke="none" /><path d="M 103.94208987418118 79.37332000966035 l 1.070333178700191 -5.600435470710229 a26.701797135554347,26.701797135554347 0 0,0 0.4494847204789471,0.08990953264957083 l -1.1663143847100952 5.581236541397799" fill="#ff0000" stroke="none" /><path d="M 104.29559338865022 79.4440306129975 l 2.6028973346753923 -12.455806005863707 a33.724864549006824,33.724864549006824 0 0,0 0.5656745137423428,0.12328612743167115 l -2.8163342650368692 12.409288420298315" fill="#ff6c09" stroke="none" /><path d="M 104.9986988182912 79.60360301121754 l 3.2285775959979195 -13.17369834647764 a34.563555633290534,34.563555633290534 0 0,0 0.5750630183610149,0.14617877050092984 l -3.454245907584329 13.11633434414144" fill="#ff780b" stroke="none" /><path d="M 105.3480935250658 79.69241777938227 l 2.306699765246395 -8.758914727551332 a30.05756319390063,30.05756319390063 0 0,0 0.49783712006759323,0.13568772085776204 l -2.456718286248681 8.718026512549427" fill="#ff3505" stroke="none" /><path d="M 105.69591212413111 79.78721728523813 l 3.6752962019559736 -13.042329643359446 a34.55028282723887,34.55028282723887 0 0,0 0.5694873557158345,0.1657694694512292 l -3.8986435700534128 12.977316479605701" fill="#ff780b" stroke="none" /><path d="M 106.38641147887787 79.99465700312896 l 4.123202936652692 -12.915874472895101 a34.55804616662758,34.55804616662758 0 0,0 0.5635878592090259,0.1852625235993016 l -4.34431353350946 12.843191027893779" fill="#ff780b" stroke="none" /><path d="M 106.72888874123014 80.10723608172694 l 8.21663363891529 -24.291017353335153 a46.64306129182286,46.64306129182286 0 0,0 0.7562711020960055,0.2630703471048955 l -8.632410513056314 24.146388573661667" fill="#e1ff1b" stroke="none" /><path d="M 107.40779381753099 80.34994680014964 l 4.789696259756399 -12.70523837915172 a34.57808059085651,34.57808059085651 0 0,0 0.5536242763990575,0.21415376331517744 l -5.007092798648983 12.621144727698503" fill="#ff780b" stroke="none" /><path d="M 108.07796709384702 80.6158196554323 l 5.2285046367644545 -12.54650775795422 a34.59235511811963,34.59235511811963 0 0,0 0.5461719821151012,0.23312834177134636 l -5.4431116940499855 12.454904766523473" fill="#ff780b" stroke="none" /><path d="M 109.71004243097381 81.37971332152246 l 6.275957375764901 -12.034975784027367 a34.57307198479928,34.57307198479928 0 0,0 0.5238827703895,0.27893806741801674 l -6.48162896194096 11.925467248886777" fill="#ff780b" stroke="none" /><path d="M 110.34350942703115 81.72400993836675 l 6.684280241655125 -11.810482711642305 a34.570818112073525,34.570818112073525 0 0,0 0.5139652288960739,0.2967379632572559 l -6.8860379384115955 11.693997851108877" fill="#ff780b" stroke="none" /><line stroke="#e1ed5e" stroke-width="0.3" x1="143.13028292997686" x2="145.6673583964461" y1="26.7553504044142" y2="22.446841604673864" /><path d="M 143.63769802327073 25.89364864446614 a86.0,86.0 0 0,1 29.32050498858742,28.57503671076993" fill="none" id="id50" stroke="none" /><text fill="#e1ed5e" style="font-size:6.75px; font-family:Arial;" text-anchor="middle"><textPath startOffset="20.669276256404974" xlink:href="#id50">February</textPath></text><path d="M 114.65682725009322 84.96080404539774 l 3.9576876866663038 -4.060936219775157 a26.670493347696638,26.670493347696638 0 0,0 0.32513627576811543,0.3223573499385223 l -4.026815882564382 3.9923988596079756" fill="#ff0000" stroke="none" /><path d="M 114.91283532996326 85.21462403516908 l 5.638573703687069 -5.590381055634433 a28.94014318253189,28.94014318253189 0 0,0 0.34674866672906546,0.35579467895429395 l -5.733709171566946 5.492763684612397" fill="#ff2303" stroke="none" /><path d="M 115.16444852881244 85.47280134310134 l 5.70676402974636 -5.4669508482720435 a28.902829067405502,28.902829067405502 0 0,0 0.3401507425013011,0.3612283009764317 l -5.7997706059839205 5.368181087351116" fill="#ff2303" stroke="none" /><path d="M 115.6541949942343 86.00192230759917 l 10.122548697174437 -9.051645463746146 a34.579332742370816,34.579332742370816 0 0,0 0.3918808861132722,0.4458885118148477 l -10.2764406472463 8.876544674120002" fill="#ff780b" stroke="none" /><path d="M 116.7966241395341 87.39550010848427 l 20.56200520441553 -15.430112040096546 a46.70767230996116,46.70767230996116 0 0,0 0.47574651319243605,0.6454415149089333 l -20.823853737191794 15.074864215918737" fill="#e0ff1b" stroke="none" /><line stroke="#e1ed5e" stroke-width="0.3" x1="172.87174338648825" x2="177.1583165268699" y1="56.24261187166439" y2="53.66864786411523" /><path d="M 173.72905801456457 55.72781907015455 a86.0,86.0 0 0,1 12.242430191666344,42.057860355516425" fill="none" id="id51" stroke="none" /><text fill="#e1ed5e" style="font-size:6.75px; font-family:Arial;" text-anchor="middle"><textPath startOffset="22.145653131862474" xlink:href="#id51">March</textPath></text><path d="M 118.53625476483649 90.13048839642627 l 7.0063855477020915 -3.730505667915975 a28.93763887950327,28.93763887950327 0 0,0 0.22969861448238674,0.44047738016755045 l -7.069392231159423 3.609682044643926" fill="#ff2303" stroke="none" /><path d="M 118.70294669586156 90.45014215332178 l 12.099330822688556 -6.178004529210114 a34.5853430696395,34.5853430696395 0 0,0 0.2654508855983974,0.5310795896955498 l -12.20360162149869 5.969393083350813" fill="#ff780b" stroke="none" /><path d="M 119.71291397450082 92.76114493625339 l 12.744237030917876 -4.679860363829492 a34.57632757873648,34.57632757873648 0 0,0 0.19981796359335122,0.5589264071287375 l -12.82269516455517 4.460399000319838" fill="#ff780b" stroke="none" /><path d="M 120.16314734710363 94.1308016681162 l 24.708946537531354 -7.192414225030044 a46.73446835236736,46.73446835236736 0 0,0 0.2176079422660573,0.772213818994137 l -24.82877297187199 6.767192482132893" fill="#dfff1b" stroke="none" /><path d="M 120.35273937422433 94.82641323984039 l 12.222225848396022 -3.106842016019877 a33.610918761204765,33.610918761204765 0 0,0 0.1373445749980464,0.5604127349431597 l -12.27375794991036 2.896573456468622" fill="#ff6a09" stroke="none" /><path d="M 120.43855184770803 95.1765574152323 l 12.288382043422576 -2.900024702718163 a33.625944579376466,33.625944579376466 0 0,0 0.12776119749038597,0.5629394096656132 l -12.336354102470628 2.6886509591135237" fill="#ff6a09" stroke="none" /><path d="M 120.51834098615036 95.52812308129327 l 21.748950441281753 -4.740082521784431 a43.25949746985893,43.25949746985893 0 0,0 0.15190735104832903,0.7269316658463756 l -21.82711550315445 4.366034404652651" fill="#fff116" stroke="none" /><path d="M 120.7213421655516 96.59031103205396 l 25.28697786059254 -4.160962584136886 a46.627033752439715,46.627033752439715 0 0,0 0.12318086945733814,0.7909095459095525 l -25.354680222188144 3.726264856295892" fill="#e1ff1b" stroke="none" /><path d="M 120.86939407059847 97.66154086499901 l 12.538211370451021 -1.4049327362652837 a33.616678658170585,33.616678658170585 0 0,0 0.059337611931953325,0.5740375686994221 l -12.56048137486464 1.1894906452829301" fill="#ff6a09" stroke="none" /><path d="M 120.9064616781168 98.02013634271609 l 16.606611828073817 -1.5726634059478106 a37.68091204331252,37.68091204331252 0 0,0 0.05545621355732664,0.6444852629355616 l -16.631161664328886 1.2873570956365872" fill="#ffa50f" stroke="none" /><path d="M 120.98066250479742 99.09900007780936 l 28.478980664497726 -1.223009967245503 a49.5052292232288,49.5052292232288 0 0,0 0.029173462234773198,0.8493535219260283 l -28.49577881372935 0.7339501807553546" fill="#bdff1f" stroke="none" /><line stroke="#e1ed5e" stroke-width="0.3" x1="184.99686870605535" x2="189.99668451229388" y1="99.2704041080226" y2="99.22748670261217" /><path d="M 185.99683186730306 99.26182062694052 a86.0,86.0 0 0,1 -10.086455211305974,41.156179273409016" fill="none" id="id52" stroke="none" /><text fill="#e1ed5e" style="font-size:6.75px; font-family:Arial;" text-anchor="middle"><textPath startOffset="21.40746469413373" xlink:href="#id52">April</textPath></text><path d="M 120.99922638620191 99.81974689727618 l 12.579151556027155 -0.10797688714366356 a33.57961497334706,33.57961497334706 0 0,0 0.0,0.5764599797349793 l -12.579151556027155 -0.10797688714366203" fill="#ff6a09" stroke="none" /><path d="M 120.99922638620191 100.18025310272382 l 12.592924715279846 0.10809511315084668 a33.59338864000445,33.59338864000445 0 0,0 -0.009899761115770705,0.5766114542066275 l -12.589213522565407 -0.32425348332654524" fill="#ff6a09" stroke="none" /><path d="M 120.99303781780057 100.54070618675476 l 16.687398448379156 0.42980818975276974 a37.692932697849876,37.692932697849876 0 0,0 -0.022212468578224648,0.646691786725805 l -16.677561292804086 -0.7162062410426854" fill="#ffa50f" stroke="none" /><path d="M 120.98066250479742 100.90099992219065 l 12.852007905058244 0.5519205182297376 a33.86385336709505,33.86385336709505 0 0,0 -0.02992663301757018,0.5805686855765996 l -12.8406396825841 -0.7724609971830678" fill="#ff6e0a" stroke="none" /><path d="M 120.93736805541906 101.62068470465957 l 12.67717532440016 0.981293546168778 a33.71509776719522,33.71509776719522 0 0,0 -0.04961959677978534,0.5766549287451663 l -12.658462104922634 -1.1987695222896015" fill="#ff6c09" stroke="none" /><path d="M 120.86939407059847 102.33845913500097 l 13.045911870564561 1.4618216362649086 a34.12755647600838,34.12755647600838 0 0,0 -0.07023437104517082,0.5816413454246131 l -13.018895413259727 -1.6855566586129302" fill="#ff720a" stroke="none" /><path d="M 120.82617615685814 102.69636545807757 l 12.498089925247411 1.61812796130062 a33.60240413090747,33.60240413090747 0 0,0 -0.07897442384705429,0.571419589892039 l -12.468470984845148 -1.8324358593927441" fill="#ff6a09" stroke="none" /><path d="M 120.51834098615036 104.47187691870673 l 24.792849226110963 5.403486094614463 a46.37485043745801,46.37485043745801 0 0,0 -0.17620044579985522,0.7763716753582569 l -24.696437918753443 -5.828292103911736" fill="#e4ff1a" stroke="none" /><path d="M 120.43855184770803 104.8234425847677 l 12.27302674523475 2.896400894156147 a33.61016747029618,33.61016747029618 0 0,0 -0.13734150499179268,0.5604002082700253 l -12.221497713726661 -3.106656927034272" fill="#ff6a09" stroke="none" /><path d="M 120.35273937422433 105.17358676015961 l 12.240186503573685 3.1114075443314415 a33.62945060361653,33.62945060361653 0 0,0 -0.14702558667474813,0.5582801003644059 l -12.184971436094207 -3.3210681490686507" fill="#ff6a09" stroke="none" /><path d="M 120.16314734710363 105.8691983318838 l 12.524111183755105 3.64558623723898 a34.043912754852585,34.043912754852585 0 0,0 -0.16815047201946096,0.5597182333756542 l -12.459684391732013 -3.8600420742053574" fill="#ff700a" stroke="none" /><path d="M 120.05942366710727 106.21446072829308 l 9.82402792688343 3.0435089640875783 a31.28467167792278,31.28467167792278 0 0,0 -0.16332875577258713,0.5116250011903251 l -9.770334455333588 -3.211702998969287" fill="#ff4706" stroke="none" /><path d="M 119.94978838288452 106.5578916946017 l 24.338286633133748 8.00047823610977 a46.61952084335386,46.61952084335386 0 0,0 -0.2564397284151602,0.7581184907058247 l -24.197361483146224 -8.417098401289755" fill="#e1ff1b" stroke="none" /><path d="M 119.71291397450082 107.23885506374661 l 11.851397581286315 4.351997350809782 a33.625193288467884,33.625193288467884 0 0,0 -0.2036234684334153,0.5401354419429856 l -11.77494342903846 -4.554801072946927" fill="#ff6a09" stroke="none" /><path d="M 119.58574465831526 107.57618678355244 l 11.763265181499046 4.550283675921351 a33.6126717733248,33.6126717733248 0 0,0 -0.21278633921307366,0.5363605771416897 l -11.683420167319849 -4.751545270276605" fill="#ff6a09" stroke="none" /><path d="M 119.0197475246899 108.90220220490707 l 9.655073351802898 4.519061841876928 a31.660317132215276,31.660317132215276 0 0,0 -0.23461914501618347,0.4902637767643059 l -9.576074948826802 -4.684138120706337" fill="#ff4d07" stroke="none" /><path d="M 118.5362547648365 109.86951160357373 l 6.911334254620573 3.679896208135439 a28.82995384927276,28.82995384927276 0 0,0 -0.23634336312035545,0.4348451682336858 l -6.847145541884879 -3.797996209843728" fill="#ff2203" stroke="none" /><line stroke="#e1ed5e" stroke-width="0.3" x1="174.33088141563837" x2="178.70328620479359" y1="141.23008692659167" y2="143.65538615756765" /><path d="M 175.20536237346943 141.71514677278685 a86.0,86.0 0 0,1 -30.301960400862466,31.631185727798858" fill="none" id="id53" stroke="none" /><text fill="#e1ed5e" style="font-size:6.75px; font-family:Arial;" text-anchor="middle"><textPath startOffset="22.145653131862474" xlink:href="#id53">May</textPath></text><path d="M 118.18653347947321 110.5 l 10.96952315118766 6.333257144220025 a33.666514288440055,33.666514288440055 0 0,0 -0.29326145484036104,0.49802206339678223 l -10.859187986217535 -6.520630375910357" fill="#ff6b09" stroke="none" /><path d="M 117.81537515405839 111.11811171558189 l 10.824472575090624 6.755271461386792 a33.75942393080173,33.75942393080173 0 0,0 -0.31104053673865195,0.48900738621311823 l -10.706914346726082 -6.940092522278582" fill="#ff6c0a" stroke="none" /><path d="M 117.62189284568427 111.42229804090321 l 14.976020626485461 9.707275634939808 a38.846915533436416,38.846915533436416 0 0,0 -0.36752060665736275,0.5564730408057411 l -14.807175580907373 -9.962928554084609" fill="#ffb510" stroke="none" /><path d="M 117.21940702142032 112.02048342749411 l 10.348195082472525 7.223843848896772 a33.620184682410645,33.620184682410645 0 0,0 -0.33441661737094636,0.4703988524725976 l -10.222663366571618 -7.400419928078874" fill="#ff6a09" stroke="none" /><path d="M 116.79662413953412 112.60449989151573 l 10.155011396082555 7.620509870134768 a33.696315494480594,33.696315494480594 0 0,0 -0.3511605722101234,0.45968046142886076 l -10.022698846518129 -7.7937112448045065" fill="#ff6b09" stroke="none" /><path d="M 116.57777611688842 112.89097897827486 l 9.955482829953052 7.741443663771062 a33.61116919150763,33.61116919150763 0 0,0 -0.3580927073107799,0.45243843772135517 l -9.821123692000711 -7.911202045407101" fill="#ff6a09" stroke="none" /><path d="M 116.35404254752997 113.17365903436017 l 10.089479587790715 8.127370559138388 a33.95576128824528,33.95576128824528 0 0,0 -0.3695570117905874,0.4507994652549251 l -9.9484757567615 -8.299372306091806" fill="#ff6f0a" stroke="none" /><path d="M 116.1254893667686 113.45245675266167 l 13.61930062475586 11.361704968383266 a38.73622533957156,38.73622533957156 0 0,0 -0.43035104575883404,0.5069524498015936 l -13.422255015489911 -11.593824200634417" fill="#ffb410" stroke="none" /><path d="M 115.6541949942343 113.99807769240083 l 13.248882479845962 11.847232410141785 a38.7732890243951,38.7732890243951 0 0,0 -0.44792805063050267,0.4923513930880149 l -13.043556728373579 -12.072921378787472" fill="#ffb410" stroke="none" /><path d="M 115.16444852881244 114.52719865689866 l 13.005280665565145 12.458764686260805 a39.009945660599364,39.009945660599364 0 0,0 -0.46740081974269504,0.4795944168208284 l -12.789493044671643 -12.680181795149371" fill="#ffb811" stroke="none" /><path d="M 114.91283532996324 114.78537596483092 l 12.847112986638294 12.737309261938798 a39.09108507872654,39.09108507872654 0 0,0 -0.4765539824305221,0.47248089594442305 l -12.626567084077806 -12.955970168111882" fill="#ffb911" stroke="none" /><path d="M 114.65682725009322 115.03919595460226 l 12.407210194674182 12.730890675296536 a38.77679504863515,38.77679504863515 0 0,0 -0.4806984124343554,0.460498205274107 l -12.186839296374513 -12.942001010876222" fill="#ffb410" stroke="none" /><path d="M 114.39649973595853 115.28858382429668 l 13.938337986261288 14.802031923223327 a41.331684998429836,41.331684998429836 0 0,0 -0.5207206358101738,0.4819712465981911 l -13.682187579137148 -15.039120915953896" fill="#ffd714" stroke="none" /><path d="M 113.86319453409587 115.77377054828091 l 13.452920200394137 15.306953669548998 a41.37851546506497,41.37851546506497 0 0,0 -0.5375670531342739,0.4643376171067611 l -13.188173667497008 -15.535635419120476" fill="#ffd814" stroke="none" /><path d="M 113.31354834802062 116.24036423190432 l 8.075546353540656 9.85085348584967 a33.73788692475563,33.73788692475563 0 0,0 -0.45104217923651146,0.3633276519923193 l -7.905253403948892 -9.988029431635393" fill="#ff6c09" stroke="none" /><path d="M 113.03279911837588 116.46651593811092 l 7.846194024161607 9.91340983459188 a33.6427234096682,33.6427234096682 0 0,0 -0.45592307227519496,0.35452853862724265 l -7.674861007251181 -10.046639424839915" fill="#ff6b09" stroke="none" /><path d="M 112.7482090630111 116.68781488649013 l 12.600034766301901 16.493849975638955 a41.7559139314775,41.7559139314775 0 0,0 -0.5733425227352776,0.43024691780824637 l -12.315039254655858 -16.707715920711216" fill="#ffdd14" stroke="none" /><path d="M 112.45986205192187 116.90419585922612 l 10.505249578835004 14.252388645289077 a38.70567284262245,38.70567284262245 0 0,0 -0.538228165538017,0.38963568487697264 l -10.25904040292302 -14.430625101539128" fill="#ffb310" stroke="none" /><path d="M 111.8722381534696 117.32195027204791 l 11.427725911531946 16.673393626651585 a41.213732325782004,41.213732325782004 0 0,0 -0.5870085866675201,0.39496557447077096 l -11.139821036767422 -16.86710887517948" fill="#ffd614" stroke="none" /><path d="M 111.27062007382361 117.71928675628689 l 9.69516957794773 15.242416901398023 a39.0645394666232,39.0645394666232 0 0,0 -0.5689208314858701,0.35504867604995 l -9.432084617672144 -15.406601374289522" fill="#ffb811" stroke="none" /><path d="M 110.96478420261333 117.91015095944535 l 10.764768323321558 17.58344005239914 a41.61692511338928,41.61692511338928 0 0,0 -0.6124965869214674,0.367786601989999 l -10.461338979842653 -17.76564065492506" fill="#ffdb14" stroke="none" /><line stroke="#e1ed5e" stroke-width="0.3" x1="143.1302829299769" x2="145.66735839644613" y1="173.24464959558577" y2="177.55315839532614" /><path d="M 143.63769802327073 174.10635135553383 a86.0,86.0 0 0,1 -40.68552437913181,11.842963189579606" fill="none" id="id54" stroke="none" /><text fill="#e1ed5e" style="font-size:6.75px; font-family:Arial;" text-anchor="middle"><textPath startOffset="21.407464694133747" xlink:href="#id54">June</textPath></text><path d="M 110.65571695917076 118.09573695890943 l 8.973705723799384 15.239314158469409 a38.68513755778778,38.68513755778778 0 0,0 -0.5751329203522825,0.33205314638520717 l -8.710780335586703 -15.391114202130789" fill="#ffb310" stroke="none" /><path d="M 110.34350942703117 118.27599006163325 l 12.40939895610763 21.926218909799996 a46.19429018909475,46.19429018909475 0 0,0 -0.6934770693388584,0.38466004042868246 l -12.031177698612678 -22.13601186566182" fill="#e6ff1a" stroke="none" /><path d="M 110.02825361518725 118.45085714620011 l 9.397817862786555 17.290926369241465 a40.67981492008093,40.67981492008093 0 0,0 -0.6164177180620368,0.3282077150019901 l -9.099611328937964 -17.449704551966025" fill="#ffcf13" stroke="none" /><path d="M 109.71004243097381 118.62028667847754 l 9.30989451856119 17.85295029494641 a41.134596350077715,41.134596350077715 0 0,0 -0.6289142444671327,0.3211280944163245 l -9.002053052380475 -18.010136341035572" fill="#ffd513" stroke="none" /><path d="M 109.06512990194946 118.94263497670748 l 8.956521453605776 18.715685091309968 a41.74840102239165,41.74840102239165 0 0,0 -0.6491106719823438,0.30381657000697526 l -8.633922067751925 -18.866677892887477" fill="#ffdd14" stroke="none" /><path d="M 108.73861861582097 119.09545874513695 l 7.33254466998864 16.022933417547666 a38.6210274002552,38.6210274002552 0 0,0 -0.605222023112837,0.270708112825022 l -7.056409244020176 -16.14644528128254" fill="#ffb210" stroke="none" /><path d="M 108.4095320186766 119.2426549942271 l 13.102840268002444 29.98186274357219 a53.71997122039059,53.71997122039059 0 0,0 -0.8481742009302575,0.3620351308215485 l -12.586230991901756 -30.202372524053143" fill="#8aff24" stroke="none" /><path d="M 108.07796709384702 119.3841803445677 l 12.571973885883606 30.16816065972679 a53.68290753556707,53.68290753556707 0 0,0 -0.8536746419918422,0.3471820451050286 l -12.052244782701324 -30.37952996141111" fill="#8aff24" stroke="none" /><path d="M 107.74402155503746 119.51999308798841 l 6.768750192312239 17.06167215951349 a39.355289048245595,39.355289048245595 0 0,0 -0.6301114188383237,0.24374063314164612 l -6.474866510980386 -17.175352680793175" fill="#ffbc11" stroke="none" /><path d="M 107.407793817531 119.65005319985036 l 7.232380397761978 19.18474826354509 a41.502728895284356,41.502728895284356 0 0,0 -0.6688082711486645,0.24559566112562728 l -6.901982974959187 -19.306074773679438" fill="#ffda14" stroke="none" /><path d="M 106.72888874123015 119.89276391827305 l 6.462586657460462 19.105489126387283 a41.16890530156976,41.16890530156976 0 0,0 -0.671400665796252,0.22070273455896425 l -6.133663254016476 -19.213612782348267" fill="#ffd513" stroke="none" /><path d="M 106.38641147887787 120.00534299687104 l 5.404206896727655 16.92860113268002 a38.77028386076075,38.77028386076075 0 0,0 -0.6357576387466214,0.19695934161766393 l -5.112808625109409 -17.018877062104327" fill="#ffb410" stroke="none" /><path d="M 106.0420521117495 120.11202640906438 l 7.233328331375985 24.077397502608427 a46.140447673979494,46.140447673979494 0 0,0 -0.7605263803132563,0.22137814527895894 l -6.818941938681122 -24.198019342189905" fill="#e7ff1a" stroke="none" /><path d="M 105.69591212413111 120.21278271476187 l 10.208137238688426 36.225077815706996 a58.635918065565036,58.635918065565036 0 0,0 -0.9711744226891825,0.2646979075247685 l -9.584781415064548 -36.394976217375905" fill="#52ff2b" stroke="none" /><path d="M 105.3480935250658 120.30758222061773 l 6.571811101257586 24.95423717847467 a46.80508969777435,46.80508969777435 0 0,0 -0.7787357424053736,0.19795158049701053 l -6.1424700656268145 -25.06337399080695" fill="#dfff1b" stroke="none" /><path d="M 104.9986988182912 120.39639698878246 l 5.9884955095724095 24.435105258158888 a46.158228225482674,46.158228225482674 0 0,0 -0.7712113392694393,0.18200377616798205 l -5.568152016563091 -24.534305177973096" fill="#e7ff1a" stroke="none" /><path d="M 104.29559338865022 120.5559693870025 l 5.14703840620679 24.63044202257671 a46.16248554063132,46.16248554063132 0 0,0 -0.7770762321542608,0.15543700971999877 l -4.7234656885215704 -24.71516842895957" fill="#e7ff1a" stroke="none" /><path d="M 103.94208987418118 120.62667999033965 l 3.766145552758627 19.706064953663404 a41.062722853156416,41.062722853156416 0 0,0 -0.6935010258016102,0.12637898863570599 l -3.4273097934059598 -19.767812116230473" fill="#ffd413" stroke="none" /><path d="M 103.58742460773223 120.69131181640829 l 4.32207324414536 24.928569925961227 a46.30047263750809,46.30047263750809 0 0,0 -0.7842914160208231,0.12905485404833603 l -3.8935043250714645 -24.999090778505234" fill="#e5ff1a" stroke="none" /><path d="M 103.2317021107853 120.74984581791261 l 5.837019223053747 37.47785060706781 a58.929672810821764,58.929672810821764 0 0,0 -1.0008921345892143,0.14709667617101466 l -5.192801982856847 -37.5725283565377" fill="#4fff2b" stroke="none" /><path d="M 102.875027216393 120.80226474461374 l 2.8055078018540462 20.299256892067554 a41.49221082256417,41.49221082256417 0 0,0 -0.7063993137071564,0.09145753376634302 l -2.456630666256115 -20.34442602203429" fill="#ffda14" stroke="none" /><path d="M 102.51750503828377 120.84855314841334 l 2.455639944107382 20.336221421424142 a41.48394662256973,41.48394662256973 0 0,0 -0.7077242254655006,0.07930197563487985 l -2.1061798170410824 -20.375379157565995" fill="#ffda14" stroke="none" /><path d="M 101.80034050326958 120.92268563240118 l 1.7439043045281557 20.266811456149465 a41.341702210544305,41.341702210544305 0 0,0 -0.7075947420589902,0.05477230817727949 l -1.3957405676939296 -20.2937615313218" fill="#ffd814" stroke="none" /><path d="M 101.44090949804482 120.95050786540614 l 1.7242663523928634 25.070454339345513 a46.12967917095645,46.12967917095645 0 0,0 -0.7904774087612411,0.04755315798251051 l -1.2936445914991572 -25.096359475152717" fill="#e7ff1a" stroke="none" /><path d="M 101.08105385017728 120.97215588758144 l 1.0451028052843379 20.27471522105719 a41.30163336208644,41.30163336208644 0 0,0 -0.7083706848634708,0.03042048513949956 l -0.6969063598200375 -20.28966827462252" fill="#ffd714" stroke="none" /><path d="M 100.72087961077811 120.9876233191556 l 2.162638832334333 62.96286995746683 a84.0,84.0 0 0,0 -1.4415467437170246,0.03712913059981959 l -1.0814787745465644 -62.990716805416696" fill="#4dd2ff" stroke="none" /><line stroke="#e1ed5e" stroke-width="0.3" x1="101.45913802915013" x2="101.54496967792366" y1="184.9874750549273" y2="189.98673829345242" /><path d="M 101.47630435890484 185.9873277026323 a86.0,86.0 0 0,1 -42.54439059252881,-10.42667462771756" fill="none" id="id55" stroke="none" /><text fill="#e1ed5e" style="font-size:6.75px; font-family:Arial;" text-anchor="middle"><textPath startOffset="22.145653131862474" xlink:href="#id55">July</textPath></text><path d="M 100.36049292484886 120.99690560180557 l 0.5303466293302042 30.890032354867834 a51.89458474283193,51.89458474283193 0 0,0 -0.8908395541790526,0.007646786158531838 l -3.783495431629578e-15 -30.89458474283193" fill="#a0ff22" stroke="none" /><path d="M 100.0 121.0 l 2.5169939049157745e-15 20.55281495585669 a41.55281495585669,41.55281495585669 0 0,0 -0.7133093237685669,-0.006122902646337662 l 0.3528163989197123 -20.54978645140479" fill="#ffda14" stroke="none" /><path d="M 99.27912038922189 120.98762331915562 l -0.8624352674931266 25.108861813644033 a46.12366884368777,46.12366884368777 0 0,0 -0.7910741592416206,-0.03397212818045153 l 1.293335187335586 -25.090357117037755" fill="#e7ff1a" stroke="none" /><path d="M 98.91894614982273 120.97215588758144 l -1.059786611212986 20.559577133262948 a41.58687347704588,41.58687347704588 0 0,0 -0.7126319665651585,-0.042870169487277524 l 1.4125629299105908 -20.538354985950978" fill="#ffdb14" stroke="none" /><path d="M 98.55909050195518 120.95050786540614 l -2.2522892007643076 32.747790669580375 a53.82515194759249,53.82515194759249 0 0,0 -0.9212584986142298,-0.07131123423869333 l 2.8141166941537734 -32.70430166834663" fill="#89ff24" stroke="none" /><path d="M 98.19965949673042 120.92268563240118 l -3.2534044429928377 37.80949118912512 a58.94920637444498,58.94920637444498 0 0,0 -1.0074712336140546,-0.09540857328714378 l 3.9019752399919074 -37.74807086033279" fill="#4fff2b" stroke="none" /><path d="M 97.84075906011543 120.88869738790638 l -2.108136778543564 20.394310984890097 a41.50297932558722,41.50297932558722 0 0,0 -0.7080489270934368,-0.07933835912955288 l 2.4579216072378 -20.355116865253574" fill="#ffda14" stroke="none" /><path d="M 94.30408787586889 120.21278271476187 l -1.53911688918682 5.461782867392654 a26.674500232542425,26.674500232542425 0 0,0 -0.43967196096281247,-0.12798209998845972 l 1.6326488625312394 -5.434557073101678" fill="#ff0000" stroke="none" /><path d="M 90.6110303473126 118.78422872680471 l -5.635912219460493 11.27559978684535 a33.60565972484467,33.60565972484467 0 0,0 -0.5138029778097071,-0.2623514614607955 l 5.828642418983782 -11.177190373711719" fill="#ff6a09" stroke="none" /><path d="M 90.28995756902619 118.62028667847754 l -11.885632002029789 22.79226654321491 a46.705168006932546,46.705168006932546 0 0,0 -0.7077193723987424,-0.37682070335015344 l 12.275140190215094 -22.584875372142186" fill="#e0ff1b" stroke="none" /><path d="M 89.97174638481275 118.45085714620012 l -8.53952433228137 15.711762944726988 a38.882476636442775,38.882476636442775 0 0,0 -0.5837107970725305,-0.3237745395311177 l 8.807979317510004 -15.562855489762722" fill="#ffb610" stroke="none" /><line stroke="#e1ed5e" stroke-width="0.3" x1="58.13341422392154" x2="55.67067388415222" y1="173.97424548756322" y2="178.32567169271397" /><path d="M 57.64086615596768 174.84453072859336 a86.0,86.0 0 0,1 -31.369924170532247,-30.572349798747897" fill="none" id="id56" stroke="none" /><text fill="#e1ed5e" style="font-size:6.75px; font-family:Arial;" text-anchor="middle"><textPath startOffset="22.145653131862474" xlink:href="#id56">August</textPath></text><path d="M 89.03521579738668 117.91015095944536 l -13.125470013058054 21.439468848964186 a46.13819380125374,46.13819380125374 0 0,0 -0.6719387951083582,-0.4193395045260257 l 13.491572936956125 -21.210993547596615" fill="#e7ff1a" stroke="none" /><path d="M 88.4268655584334 117.5232005979908 l -8.303801133841928 12.573013277329443 a36.06764003227768,36.06764003227768 0 0,0 -0.5137126196778709,-0.3456487767850623 l 8.518410041616804 -12.428614826487259" fill="#ff8e0d" stroke="none" /><path d="M 87.2517909369889 116.68781488649013 l -15.825258129522604 20.715770889155685 a47.06879280668768,47.06879280668768 0 0,0 -0.6378719214670578,-0.4960130642666076 l 16.178539995624888 -20.441056773268286" fill="#dbff1b" stroke="none" /><path d="M 85.60350026404147 115.28858382429668 l -11.436932780257532 12.14562627796776 a37.68291548573541,37.68291548573541 0 0,0 -0.4671380816070927,-0.44750771508868237 l 11.643743347729938 -11.947506432573496" fill="#ffa50f" stroke="none" /><path d="M 84.83555147118756 114.52719865689866 l -15.83470139660458 15.169285742510274 a42.928178179172946,42.928178179172946 0 0,0 -0.5052118478720607,-0.5365174748642155 l 16.092769078212893 -14.895226807701567" fill="#ffed16" stroke="none" /><path d="M 84.58840730492382 114.26474011684316 l -12.429340124602673 11.504411660058574 a37.93635095223141,37.93635095223141 0 0,0 -0.4382593315562229,-0.4817237771150936 l 12.624997157000776 -11.289350307385806" fill="#ffa80f" stroke="none" /><path d="M 84.3458050057657 113.99807769240083 l -9.359026563590726 8.368899263784476 a33.55507280366662,33.55507280366662 0 0,0 -0.38027314644459936,-0.4326810348752797 l 9.501310773993918 -8.207005951097896" fill="#ff6909" stroke="none" /><path d="M 84.1078160697243 113.72728997021213 l -19.979967454188944 17.258220018241023 a47.40161467919083,47.40161467919083 0 0,0 -0.5266216382474426,-0.620358965684212 l 20.273283655943498 -16.912694270107256" fill="#d7ff1c" stroke="none" /><path d="M 83.8745106332314 113.45245675266167 l -9.660409558833082 8.059057238350565 a33.58061669455851,33.58061669455851 0 0,0 -0.3654741313080816,-0.44581901493334913 l 9.797330509379794 -7.892035941718721" fill="#ff6a09" stroke="none" /><path d="M 83.4222238831116 112.89097897827486 l -19.953074517342458 15.515631429777788 a46.27568003752479,46.27568003752479 0 0,0 -0.4822543367998867,-0.6312864074432282 l 20.21648083149664 -15.170824109093688" fill="#e5ff1a" stroke="none" /><path d="M 83.20337586046588 112.60449989151573 l -20.879687323516627 15.6685066247751 a47.10485477029976,47.10485477029976 0 0,0 -0.4797920620554329,-0.6509300789117479 l 21.14558140515589 -15.307770236594472" fill="#dbff1b" stroke="none" /><line stroke="#e1ed5e" stroke-width="0.3" x1="26.387840678322732" x2="22.057713659400548" y1="142.50000000000003" y2="145.00000000000006" /><path d="M 25.521815274538298 143.00000000000003 a86.0,86.0 0 0,1 -11.493303480769221,-40.785679425670985" fill="none" id="id57" stroke="none" /><text fill="#e1ed5e" style="font-size:6.75px; font-family:Arial;" text-anchor="middle"><textPath startOffset="21.40746469413373" xlink:href="#id57">September</textPath></text><line stroke="#e1ed5e" stroke-width="0.3" x1="15.003131293944662" x2="10.003315487706104" y1="100.72959589197737" y2="100.7725132973878" /><path d="M 14.003168132696942 100.73817937305945 a86.0,86.0 0 0,1 10.791469493833604,-42.45332614584628" fill="none" id="id58" stroke="none" /><text fill="#e1ed5e" style="font-size:6.75px; font-family:Arial;" text-anchor="middle"><textPath startOffset="22.145653131862435" xlink:href="#id58">October</textPath></text><line stroke="#e1ed5e" stroke-width="0.3" x1="26.387840678322718" x2="22.05771365940052" y1="57.49999999999999" y2="54.99999999999999" /><path d="M 25.521815274538284 56.99999999999999 a86.0,86.0 0 0,1 29.574782752854787,-30.34633250058573" fill="none" id="id59" stroke="none" /><text fill="#e1ed5e" style="font-size:6.75px; font-family:Arial;" text-anchor="middle"><textPath startOffset="21.40746469413373" xlink:href="#id59">November</textPath></text><line stroke="#e1ed5e" stroke-width="0.3" x1="56.869717070023135" x2="54.33264160355391" y1="26.7553504044142" y2="22.446841604673864" /><path d="M 56.362301976729285 25.89364864446614 a86.0,86.0 0 0,1 42.16139366436587,-11.88097634709845" fill="none" id="id60" stroke="none" /><text fill="#e1ed5e" style="font-size:6.75px; font-family:Arial;" text-anchor="middle"><textPath startOffset="22.145653131862474" xlink:href="#id60">December</textPath></text></svg>