<?xml version="1.0" encoding="utf-8" ?>
<svg baseProfile="full" height="200mm" version="1.1" viewBox="0,0,200,200" width="200mm" xmlns="http://www.w3.org/2000/svg" xmlns:ev="http://www.w3.org/2001/xml-events" xmlns:xlink="http://www.w3.org/1999/xlink"><defs /><rect fill="#1a1a1a" height="200" width="200" x="0" y="0" /><text alignment-baseline="middle" fill="#e1ed5e" style="dominant-baseline: central; font-size:9.0px; font-family:Arial;" text-anchor="middle" x="100.0" y="100.0">2024</text><line stroke="#e1ed5e" stroke-width="0.3" x1="100.0" x2="100.0" y1="15.0" y2="10.0" /><path d="M 100.0 14.0 a86.0,86.0 0 0,1 42.35913384403234,11.155469271406648" fill="none" id="id49" stroke="none" /><text fill="#e1ed5e" style="font-size:6.75px; font-family:Arial;" text-anchor="middle"><textPath startOffset="22.145653131862478" xlink:href="#id49">January</textPath></text><path d="M 100.0 79.0 l 0.0 -13.827427887014672 a34.82742788701467,34.82742788701467 0 0,0 0.5978591116167852,0.005131901427161441 l -0.23736618676793042 13.825390383781945" fill="#ff4806" stroke="none" /><path d="M 100.72087961077811 79.0123766808444 l 0.7794335410357466 -22.69235711066462 a43.70573909571813,43.70573909571813 0 0,0 0.7496038731513606,0.032191215660071736 l -1.1688631747879434 22.67563332657872" fill="#ffd113" stroke="none" /><path d="M 101.08105385017728 79.02784411241856 l 1.1735892111825705 -22.767317170063713 a43.79754466513624,43.79754466513624 0 0,0 0.750513990975239,0.045149058006424915 l -1.5642475542902718 22.743816134232596" fill="#ffd213" stroke="none" /><path d="M 101.80034050326958 79.07731436759882 l 3.599351281045181 -41.829917838943516 a62.98448947000698,62.98448947000698 0 0,0 1.0764362271789314,0.10193962988037047 l -4.316887071609125 41.76196645355797" fill="#34ff2f" stroke="none" /><path d="M 102.51750503828377 79.15144685158666 l 3.848197041651692 -31.868591851214756 a53.10008982932428,53.10008982932428 0 0,0 0.9040218939797446,0.11704373332452159 l -4.394696757522229 31.797836521689835" fill="#acff21" stroke="none" /><path d="M 102.87502721639298 79.19773525538626 l 2.995262409892198 -21.672226709679432 a42.878231360415214,42.878231360415214 0 0,0 0.7282661258193083,0.10703004127405555 l -3.366853641319188 21.617615595106493" fill="#ffc412" stroke="none" /><path d="M 103.23170211078529 79.25015418208739 l 3.487748136889836 -22.39384498052955 a43.663818744385665,43.663818744385665 0 0,0 0.7396286966662386,0.12170562057470163 l -3.8716543366091454 22.33067336145918" fill="#ffd013" stroke="none" /><path d="M 103.58742460773223 79.30868818359171 l 2.5895770284500457 -14.93599214678391 a36.15881824533386,36.15881824533386 0 0,0 0.6106798527362074,0.11128621198475093 l -2.845591614737307 14.889337760867793" fill="#ff5d08" stroke="none" /><path d="M 103.94208987418118 79.37332000966035 l 1.791665879935263 -9.374752969758527 a30.54442559137639,30.54442559137639 0 0,0 0.5141696092376064,0.10284832200726808 l -1.9523319747038261 9.3426152510884" fill="#ff0100" stroke="none" /><path d="M 104.29559338865022 79.4440306129975 l 4.3570753820559895 -20.850182982181288 a42.300568919053795,42.300568919053795 0 0,0 0.7095166748420607,0.15463585695380458 l -4.714354473517185 20.772315667093764" fill="#ffbc11" stroke="none" /><path d="M 104.9986988182912 79.60360301121754 l 5.404422131898784 -22.051886561721666 a43.704481485178164,43.704481485178164 0 0,0 0.727148309202381,0.18483825670790166 l -5.78217573432656 21.9558630731785" fill="#ffd113" stroke="none" /><path d="M 105.3480935250658 79.69241777938227 l 3.8612605372707853 -14.661835188248368 a36.16175266992714,36.16175266992714 0 0,0 0.5989395311142948,0.1632436325709926 l -4.112381469319772 14.593391061533234" fill="#ff5d08" stroke="none" /><path d="M 105.69591212413111 79.78721728523813 l 6.152199085986348 -21.831984172678613 a43.68226369897195,43.68226369897195 0 0,0 0.7200084864716971,0.2095839768957966 l -6.52606758483965 21.7231565014803" fill="#ffd013" stroke="none" /><path d="M 106.38641147887787 79.99465700312896 l 6.901964887812541 -21.620306707407938 a43.695259007885014,43.695259007885014 0 0,0 0.7126015563234896,0.2342462856289387 l -7.272089181783773 21.498639500376978" fill="#ffd013" stroke="none" /><path d="M 106.72888874123014 80.10723608172694 l 13.754093054137156 -40.66153217238223 a63.92476295039425,63.92476295039425 0 0,0 1.0364768003809386,0.36054043435838057 l -14.450075626563113 40.41943330545526" fill="#30ff37" stroke="none" /><path d="M 107.40779381753099 80.34994680014964 l 8.017629962924698 -21.26771602839978 a43.72879528895099,43.72879528895099 0 0,0 0.7001349478041788,0.27082723842237105 l -8.381537173222403 21.12694890183937" fill="#ffd113" stroke="none" /><path d="M 108.07796709384702 80.6158196554323 l 8.752165724835635 -21.00201162554659 a43.7526898892105,43.7526898892105 0 0,0 0.6908027302003603,0.2948626078530512 l -9.111403530206426 20.84867436803414" fill="#ffd113" stroke="none" /><path d="M 109.71004243097381 81.37971332152246 l 10.50553128488571 -20.145741444990602 a43.7204112186845,43.7204112186845 0 0,0 0.6624916108664849,0.35273946779802284 l -10.849811711538754 19.962431509470004" fill="#ffd113" stroke="none" /><path d="M 110.34350942703115 81.72400993836675 l 11.189036347955248 -19.769955114081373 a43.71663838706458,43.71663838706458 0 0,0 0.6499363706792786,0.37524093856780993 l -11.526765186494924 19.57496727823739" fill="#ffd113" stroke="none" /><line stroke="#e1ed5e" stroke-width="0.3" x1="143.13028292997686" x2="145.6673583964461" y1="26.7553504044142" y2="22.446841604673864" /><path d="M 143.63769802327073 25.89364864446614 a86.0,86.0 0 0,1 29.32050498858742,28.57503671076993" fill="none" id="id50" stroke="none" /><text fill="#e1ed5e" style="font-size:6.75px; font-family:Arial;" text-anchor="middle"><textPath startOffset="20.669276256404974" xlink:href="#id50">February</textPath></text><path d="M 114.65682725009322 84.96080404539774 l 6.62490347188064 -6.797734584291027 a30.4920251522108,30.4920251522108 0 0,0 0.3717240385983988,0.36854692915436216 l -6.7406194306090015 6.683007644908005" fill="#ff0000" stroke="none" /><path d="M 114.91283532996326 85.21462403516908 l 9.438593811195025 -9.357922553966045 a34.2912665934724,34.2912665934724 0 0,0 0.41086358477018553,0.4215822330804798 l -9.597844197116022 9.194517628817824" fill="#ff3f05" stroke="none" /><path d="M 115.16444852881244 85.47280134310134 l 9.552739838780996 -9.151308673834732 a34.22880526998702,34.22880526998702 0 0,0 0.40283093050737395,0.42779248852404644 l -9.70842660302463 8.98597472536619" fill="#ff3e05" stroke="none" /><path d="M 115.6541949942343 86.00192230759917 l 16.944466900236762 -15.151846786959624 a43.73089130651761,43.73089130651761 0 0,0 0.49559372829431736,0.5638946879130297 l -17.20207169248967 14.858739821235297" fill="#ffd113" stroke="none" /><path d="M 116.7966241395341 87.39550010848427 l 34.41941619761921 -25.82897159124975 a64.03291745683202,64.03291745683202 0 0,0 0.6522148440081885,0.8848546973847413 l -34.85773306121123 25.234310584596134" fill="#30ff38" stroke="none" /><line stroke="#e1ed5e" stroke-width="0.3" x1="172.87174338648825" x2="177.1583165268699" y1="56.24261187166439" y2="53.66864786411523" /><path d="M 173.72905801456457 55.72781907015455 a86.0,86.0 0 0,1 12.242430191666344,42.057860355516425" fill="none" id="id51" stroke="none" /><text fill="#e1ed5e" style="font-size:6.75px; font-family:Arial;" text-anchor="middle"><textPath startOffset="22.145653131862474" xlink:href="#id51">March</textPath></text><path d="M 118.53625476483649 90.13048839642627 l 11.72821900441676 -6.244616025289406 a34.28707455833916,34.28707455833916 0 0,0 0.2721608889204573,0.5219043902632995 l -11.83368796231216 6.042365391921608" fill="#ff3f05" stroke="none" /><path d="M 118.70294669586156 90.45014215332178 l 20.253467458969904 -10.341564796219188 a43.74095219083741,43.74095219083741 0 0,0 0.33572240334859227,0.6716696982194987 l -20.428009775530235 9.992363241835939" fill="#ffd113" stroke="none" /><path d="M 119.71291397450082 92.76114493625339 l 21.33299715312185 -7.833772047426514 a43.72586086435772,43.72586086435772 0 0,0 0.25269347805622144,0.7068286316952932 l -21.46433080122201 7.466408459350305" fill="#ffd113" stroke="none" /><path d="M 120.16314734710363 94.1308016681162 l 41.3611175673364 -12.03961852046534 a64.07777223275777,64.07777223275777 0 0,0 0.2983629139724062,1.0587847247006892 l -41.56169897338339 11.327825871861638" fill="#30ff39" stroke="none" /><path d="M 120.35273937422433 94.82641323984039 l 20.459185480942498 -5.200644944233108 a42.10983132049107,42.10983132049107 0 0,0 0.17207375159967095,0.70211962683836 l -20.54544675905846 4.848669492786653" fill="#ffb911" stroke="none" /><path d="M 120.43855184770803 95.1765574152323 l 20.56992650974939 -4.854446647294807 a42.134983531290544,42.134983531290544 0 0,0 0.16009114448778988,0.7053911214117294 l -20.650228515794847 4.5006211919440515" fill="#ffb911" stroke="none" /><path d="M 120.51834098615036 95.52812308129327 l 36.406282833695485 -7.934579896581453 a58.260904281864455,58.260904281864455 0 0,0 0.20458535481843498,0.9790149835383669 l -36.537125899338285 7.308448461757681" fill="#6bff28" stroke="none" /><path d="M 120.7213421655516 96.59031103205396 l 42.32870319363664 -6.965172002552244 a63.89793392554148,63.89793392554148 0 0,0 0.16880771569698877,1.083866629259132 l -42.4420324014719 6.23751719136167" fill="#30ff36" stroke="none" /><path d="M 120.86939407059847 97.66154086499901 l 20.988124029878247 -2.3517630745852793 a42.119473001297536,42.119473001297536 0 0,0 0.07434609971862666,0.7192310734329268 l -21.02540252207854 1.991127478869421" fill="#ffb911" stroke="none" /><path d="M 120.9064616781168 98.02013634271609 l 27.79835324718399 -2.632532954347226 a48.92272681904382,48.92272681904382 0 0,0 0.07200115493927255,0.8367625608757508 l -27.839448024821003 2.154949346095813" fill="#e3ff1b" stroke="none" /><path d="M 120.98066250479742 99.09900007780936 l 47.6719015791709 -2.0472365733775786 a68.71583990418205,68.71583990418205 0 0,0 0.04049428700422505,1.178946982985317 l -47.700020553171974 1.2285833258281416" fill="#37ff78" stroke="none" /><line stroke="#e1ed5e" stroke-width="0.3" x1="184.99686870605535" x2="189.99668451229388" y1="99.2704041080226" y2="99.22748670261217" /><path d="M 185.99683186730306 99.26182062694052 a86.0,86.0 0 0,1 -10.086455211305974,41.156179273409016" fill="none" id="id52" stroke="none" /><text fill="#e1ed5e" style="font-size:6.75px; font-family:Arial;" text-anchor="middle"><textPath startOffset="21.40746469413373" xlink:href="#id52">April</textPath></text><path d="M 120.99922638620191 99.81974689727618 l 21.056655151845376 -0.180746059607213 a42.05743088132548,42.05743088132548 0 0,0 0.0,0.7219983246620771 l -21.056655151845376 -0.18074605960721044" fill="#ffb811" stroke="none" /><path d="M 120.99922638620191 100.18025310272382 l 21.07971049571684 0.18094396200564958 a42.080487074558334,42.080487074558334 0 0,0 -0.012400855839155058,0.7222876830261046 l -21.073498208279016 -0.5427785610008252" fill="#ffb911" stroke="none" /><path d="M 120.99303781780057 100.54070618675476 l 27.933584625633955 0.7194700527100844 a48.9428485876834,48.9428485876834 0 0,0 -0.028842050978026928,0.8397048447871234 l -27.91711788765908 -1.1988811620613185" fill="#e3ff1b" stroke="none" /><path d="M 120.98066250479742 100.90099992219065 l 21.513398360793072 0.923877892068406 a42.533226868948994,42.533226868948994 0 0,0 -0.03758805171288998,0.7291981615013505 l -21.494368719623612 -1.2930478469464872" fill="#ffbf11" stroke="none" /><path d="M 120.93736805541906 101.62068470465957 l 21.220740358873982 1.6426195131186814 a42.28421998203414,42.28421998203414 0 0,0 -0.06223105031887976,0.7232191355087773 l -21.189415685857362 -2.006659696003116" fill="#ffbc11" stroke="none" /><path d="M 120.86939407059847 102.33845913500097 l 21.83798058051246 2.44699127371497 a42.97464816847989,42.97464816847989 0 0,0 -0.08844164940793653,0.73242372911861 l -21.79275684484486 -2.8215086797569886" fill="#ffc612" stroke="none" /><path d="M 120.82617615685814 102.69636545807757 l 20.920963424325215 2.7086375675583922 a42.095578401038026,42.095578401038026 0 0,0 -0.09893560108910872,0.7158487247662213 l -20.871383306680897 -3.067374600524699" fill="#ffb911" stroke="none" /><path d="M 120.51834098615036 104.47187691870673 l 41.50156503486747 9.045072937178539 a63.47579598762351,63.47579598762351 0 0,0 -0.24117519399018875,1.0626624045304731 l -41.34017897931962 -9.75616967564803" fill="#2fff31" stroke="none" /><path d="M 120.43855184770803 104.8234425847677 l 20.544222771523902 4.848380635061246 a42.10857370995109,42.10857370995109 0 0,0 -0.1720686126153228,0.7020986580285657 l -20.457966632392285 -5.200335117697912" fill="#ffb911" stroke="none" /><path d="M 120.35273937422433 105.17358676015961 l 20.489250411847635 5.208287332101194 a42.1408523804771,42.1408523804771 0 0,0 -0.1842368350658486,0.6995772715324801 l -20.396824095977056 -5.559245108006477" fill="#ffb911" stroke="none" /><path d="M 120.16314734710363 105.8691983318838 l 20.964521264023166 6.102466599750465 a42.83463419502945,42.83463419502945 0 0,0 -0.21156980428603891,0.7042470691186005 l -20.856675139733497 -6.461451272459789" fill="#ffc412" stroke="none" /><path d="M 120.05942366710727 106.21446072829308 l 16.444763173186175 5.094629667422697 a38.21584988521809,38.21584988521809 0 0,0 -0.19951455066569754,0.6249764883040704 l -16.354883906743225 -5.376175189418151" fill="#ff7e0b" stroke="none" /><path d="M 119.94978838288452 106.5578916946017 l 40.74065777314807 13.392263422320434 a63.885357820141735,63.885357820141735 0 0,0 -0.3514138179186804,1.0388925105332143 l -40.504758533657025 -14.089657607327808" fill="#30ff36" stroke="none" /><path d="M 119.71291397450082 107.23885506374661 l 19.838443858877827 7.284951376059915 a42.13372592075057,42.13372592075057 0 0,0 -0.2551484339853156,0.6768115346035588 l -19.71046474107807 -7.624431190857633" fill="#ffb911" stroke="none" /><path d="M 119.58574465831526 107.57618678355244 l 19.690916138764145 7.616869371530799 a42.11276574508433,42.11276574508433 0 0,0 -0.26659651804727225,0.6719973792143438 l -19.55726094575075 -7.953767767958707" fill="#ffb911" stroke="none" /><path d="M 119.0197475246899 108.90220220490707 l 16.16194455795987 7.564606117546348 a38.84465515520511,38.84465515520511 0 0,0 -0.28785876474020716,0.6015141056221441 l -16.029706535259752 -7.840932725233595" fill="#ff870c" stroke="none" /><path d="M 118.5362547648365 109.86951160357373 l 11.569109521456786 6.1598991874904865 a34.10681704760954,34.10681704760954 0 0,0 -0.27960224593165794,0.5144366402569677 l -11.46166192590979 -6.357590661222057" fill="#ff3c05" stroke="none" /><line stroke="#e1ed5e" stroke-width="0.3" x1="174.33088141563837" x2="178.70328620479359" y1="141.23008692659167" y2="143.65538615756765" /><path d="M 175.20536237346943 141.71514677278685 a86.0,86.0 0 0,1 -30.301960400862466,31.631185727798858" fill="none" id="id53" stroke="none" /><text fill="#e1ed5e" style="font-size:6.75px; font-family:Arial;" text-anchor="middle"><textPath startOffset="22.145653131862474" xlink:href="#id53">May</textPath></text><path d="M 118.18653347947321 110.5 l 18.36224527115033 10.601447250224568 a42.20289450044915,42.20289450044915 0 0,0 -0.36761994822629007,0.6242990414854817 l -18.17755161279427 -10.9150974600036" fill="#ffba11" stroke="none" /><path d="M 117.81537515405839 111.11811171558189 l 18.11944034532937 11.307870883499298 a42.35841900389261,42.35841900389261 0 0,0 -0.3902668899024245,0.6135643725340572 l -17.922655763801053 -11.617248930712027" fill="#ffbd11" stroke="none" /><path d="M 117.62189284568427 111.42229804090321 l 25.068853052154697 16.249327675116632 a50.87453837708354,50.87453837708354 0 0,0 -0.481310831272195,0.7287659440018276 l -24.786217781961778 -16.67727349745752" fill="#c9ff1d" stroke="none" /><path d="M 117.21940702142032 112.02048342749411 l 17.322183799530002 12.092229600661506 a42.12534185048408,42.12534185048408 0 0,0 -0.4190165658014329,0.5893992746818775 l -17.11205213519861 -12.387806102052888" fill="#ffb911" stroke="none" /><path d="M 116.79662413953412 112.60449989151573 l 16.99880727869249 12.756221888413304 a42.25277971853478,42.25277971853478 0 0,0 -0.4403303472707375,0.5764065593714394 l -16.777324954067446 -13.04614936102562" fill="#ffbb11" stroke="none" /><path d="M 116.57777611688842 112.89097897827486 l 16.66480985516053 12.95865693957411 a42.11025052400439,42.11025052400439 0 0,0 -0.4486417455387406,0.5668441895186817 l -16.439901678980227 -13.242821073007475" fill="#ffb911" stroke="none" /><path d="M 116.35404254752997 113.17365903436017 l 16.889111431358728 13.604672651633672 a42.68707455833915,42.68707455833915 0 0,0 -0.4645841270336319,0.5667170946586318 l -16.653080485086466 -13.892592027990798" fill="#ffc212" stroke="none" /><path d="M 116.1254893667686 113.45245675266167 l 22.797794858222428 19.018731302400596 a50.68925042419403,50.68925042419403 0 0,0 -0.5631465569387509,0.6633852280619723 l -22.467953737776565 -19.407283312912124" fill="#ccff1d" stroke="none" /><path d="M 115.6541949942343 113.99807769240083 l 22.17773975318501 19.831471642027733 a50.75129254416609,50.75129254416609 0 0,0 -0.5863038217362407,0.6444506054004374 l -21.834038230606886 -20.209259822985842" fill="#cbff1d" stroke="none" /><path d="M 115.16444852881244 114.52719865689866 l 21.76996667128607 20.855135614522887 a51.14743986425791,51.14743986425791 0 0,0 -0.6128271884377458,0.6288146824657811 l -21.408752681697518 -21.225772989056406" fill="#c5ff1e" stroke="none" /><path d="M 114.91283532996324 114.78537596483092 l 21.50520459599851 21.321400532975066 a51.28326180257511,51.28326180257511 0 0,0 -0.6251871135023606,0.6198436660081179 l -21.136025562366182 -21.687424209211844" fill="#c4ff1e" stroke="none" /><path d="M 114.65682725009322 115.03919595460226 l 20.768836856929173 21.310656249874068 a50.75716139335263,50.75716139335263 0 0,0 -0.6292136023840306,0.602772397696384 l -20.39995076867983 -21.664040777876032" fill="#cbff1d" stroke="none" /><path d="M 114.39649973595853 115.28858382429668 l 23.331841981500443 24.77760764433924 a55.03387563629104,55.03387563629104 0 0,0 -0.6933488125034385,0.6417533097564416 l -22.903063397683038 -25.174478700228065" fill="#93ff23" stroke="none" /><path d="M 113.86319453409587 115.77377054828091 l 22.51928519847325 25.622812747695598 a55.11226669328276,55.11226669328276 0 0,0 -0.7159884414623643,0.6184537628305427 l -22.07611727724803 -26.00561064299086" fill="#92ff23" stroke="none" /><path d="M 113.31354834802062 116.24036423190432 l 13.517922410893721 16.489667357851715 a42.32236750174668,42.32236750174668 0 0,0 -0.5658081939455846,0.45577502958202953 l -13.232863446592884 -16.719290681227147" fill="#ffbc11" stroke="none" /><path d="M 113.03279911837588 116.46651593811092 l 13.134002010022707 16.594382485669062 a42.1630701666833,42.1630701666833 0 0,0 -0.5713900225278598,0.4443163375393201 l -12.847202042859617 -16.817399874829174" fill="#ffba11" stroke="none" /><path d="M 112.7482090630111 116.68781488649013 l 21.09161224376532 27.60959747693759 a55.74400638786307,55.74400638786307 0 0,0 -0.7654103632418793,0.5743782060193704 l -20.61454889161267 -27.967594710220975" fill="#8aff24" stroke="none" /><path d="M 112.45986205192187 116.90419585922612 l 17.585082481942877 23.85754169963361 a50.63810759556843,50.63810759556843 0 0,0 -0.7041566198396283,0.5097550897538236 l -17.17294485172928 -24.15589756076051" fill="#ccff1d" stroke="none" /><path d="M 111.8722381534696 117.32195027204791 l 19.129245928644618 27.91014149433316 a54.836430781515126,54.836430781515126 0 0,0 -0.7810371425839485,0.5255166461106683 l -18.647312497963668 -28.23440781450095" fill="#95ff23" stroke="none" /><path d="M 111.27062007382361 117.71928675628689 l 16.229062948501692 25.51478253075155 a51.23882623016269,51.23882623016269 0 0,0 -0.746222431423534,0.46569798758068603 l -15.788676388288442 -25.789616315173784" fill="#c4ff1e" stroke="none" /><path d="M 110.96478420261333 117.91015095944535 l 18.019499436357812 29.433498111334423 a55.51134843796786,55.51134843796786 0 0,0 -0.8169875924524941,0.4905775753075654 l -17.511579087347883 -29.73848968717791" fill="#8dff24" stroke="none" /><line stroke="#e1ed5e" stroke-width="0.3" x1="143.1302829299769" x2="145.66735839644613" y1="173.24464959558577" y2="177.55315839532614" /><path d="M 143.63769802327073 174.10635135553383 a86.0,86.0 0 0,1 -40.68552437913181,11.842963189579606" fill="none" id="id54" stroke="none" /><text fill="#e1ed5e" style="font-size:6.75px; font-family:Arial;" text-anchor="middle"><textPath startOffset="21.407464694133747" xlink:href="#id54">June</textPath></text><path d="M 110.65571695917076 118.09573695890943 l 15.021380895092921 25.509588747404422 a50.60373290747579,50.60373290747579 0 0,0 -0.752326979433074,0.434356184094305 l -14.581261447799449 -25.7636918287749" fill="#cdff1d" stroke="none" /><path d="M 110.34350942703117 118.27599006163325 l 20.772500696617282 36.703018348349175 a63.173550254516414,63.173550254516414 0 0,0 -0.9483728034547304,0.5260464073688127 l -20.13938370500646 -37.05419767115113" fill="#32ff2f" stroke="none" /><path d="M 110.02825361518725 118.45085714620011 l 15.731316141249133 28.943849844834606 a53.9426888911069,53.9426888911069 0 0,0 -0.8173889005569829,0.4352135499336782 l -15.232138424905596 -29.209633862490854" fill="#a1ff22" stroke="none" /><path d="M 109.71004243097381 118.62028667847754 l 15.584138366110276 29.884640162682793 a54.70396247130452,54.70396247130452 0 0,0 -0.8363787244732224,0.42706093615037893 l -15.06883241992347 -30.147759050506007" fill="#97ff23" stroke="none" /><path d="M 109.06512990194946 118.94263497670748 l 14.992615580525298 31.32880028855558 a55.73143028246332,55.73143028246332 0 0,0 -0.8665209990146469,0.4055755807490537 l -14.452605867639145 -31.581552100875168" fill="#8aff24" stroke="none" /><path d="M 108.73861861582097 119.09545874513695 l 12.274187477093736 26.82131477560777 a50.49641680806468,50.49641680806468 0 0,0 -0.791318760730949,0.3539468165066625 l -11.81195531350716 -27.028065343024284" fill="#ceff1d" stroke="none" /><path d="M 108.4095320186766 119.2426549942271 l 21.933274895701977 50.1876252773878 a75.77103503343648,75.77103503343648 0 0,0 -1.1963341683390472,0.5106439180369847 l -21.068505652192496 -50.55674384508419" fill="#41ffd0" stroke="none" /><path d="M 108.07796709384702 119.3841803445677 l 21.04464021392741 50.49947548115573 a75.70899291346441,75.70899291346441 0 0,0 -1.2039371633912366,0.489630763295076 l -20.174648589345733 -50.853293501030095" fill="#41ffcf" stroke="none" /><path d="M 107.74402155503746 119.51999308798841 l 11.330433374118595 28.560093689671827 a51.72552150913265,51.72552150913265 0 0,0 -0.8281692889694263,0.3203536720759991 l -10.83849182265564 -28.750387249885865" fill="#beff1f" stroke="none" /><path d="M 107.407793817531 119.65005319985036 l 12.106519210325631 32.11398054639683 a55.3201916358918,55.3201916358918 0 0,0 -0.8914739515313529,0.32736158320319425 l -11.553456107140152 -32.31707297860875" fill="#8fff24" stroke="none" /><path d="M 106.72888874123015 119.89276391827305 l 10.81793617232163 31.981306072181987 a54.76139335263,54.76139335263 0 0,0 -0.8930729560954423,0.29357081935146073 l -10.267340478578454 -32.16229781293547" fill="#96ff23" stroke="none" /><path d="M 106.38641147887787 120.00534299687104 l 9.046279511522014 28.337341725021886 a50.746262102006185,50.746262102006185 0 0,0 -0.8321405095989297,0.2577992570047804 l -8.55849836905146 -28.48845756983331" fill="#cbff1d" stroke="none" /><path d="M 106.0420521117495 120.11202640906438 l 12.108105987552067 40.30394688451073 a63.08342149915161,63.08342149915161 0 0,0 -1.0397949874591532,0.3026691667148386 l -11.414450987711307 -40.505859745528085" fill="#33ff2f" stroke="none" /><path d="M 105.69591212413111 120.21278271476187 l 17.08773637239333 60.63834814428561 a84.0,84.0 0 0,0 -1.3912743962612195,0.3791980234234318 l -16.044280575197412 -60.92274666185318" fill="#4dd2ff" stroke="none" /><path d="M 105.3480935250658 120.30758222061773 l 11.0007705580069 41.77171763168206 a64.19598762351532,64.19598762351532 0 0,0 -1.0680827748487693,0.27150246466135186 l -10.282082489932733 -41.95440532817868" fill="#31ff3b" stroke="none" /><path d="M 104.9986988182912 120.39639698878246 l 10.024339420811142 40.90272565112458 a63.11318494859766,63.11318494859766 0 0,0 -1.0544946320729114,0.248857861929186 l -9.320712634998351 -41.06877965669999" fill="#32ff2f" stroke="none" /><path d="M 104.29559338865022 120.5559693870025 l 8.6157967244517 41.22970628002499 a63.12031140832419,63.12031140832419 0 0,0 -1.062535805582044,0.21253691916717482 l -7.906764433338697 -41.37153259585503" fill="#32ff2f" stroke="none" /><path d="M 103.94208987418118 120.62667999033965 l 6.304274799686127 32.98662968492026 a54.58365106298034,54.58365106298034 0 0,0 -0.9218535784765735,0.1679924305568421 l -5.737086487658496 -33.08999028940847" fill="#99ff23" stroke="none" /><path d="M 103.58742460773223 120.69131181640829 l 7.234860430581334 41.72875237425085 a63.35129254416608,63.35129254416608 0 0,0 -1.0731180937440974,0.17658117395625825 l -6.517464833784165 -41.846799546702776" fill="#30ff2f" stroke="none" /><line stroke="#e1ed5e" stroke-width="0.3" x1="101.45913802915013" x2="101.54496967792366" y1="184.9874750549273" y2="189.98673829345242" /><path d="M 101.47630435890484 185.9873277026323 a86.0,86.0 0 0,1 -42.54439059252881,-10.42667462771756" fill="none" id="id55" stroke="none" /><text fill="#e1ed5e" style="font-size:6.75px; font-family:Arial;" text-anchor="middle"><textPath startOffset="22.145653131862474" xlink:href="#id55">July</textPath></text><line stroke="#e1ed5e" stroke-width="0.3" x1="58.13341422392154" x2="55.67067388415222" y1="173.97424548756322" y2="178.32567169271397" /><path d="M 57.64086615596768 174.84453072859336 a86.0,86.0 0 0,1 -31.369924170532247,-30.572349798747897" fill="none" id="id56" stroke="none" /><text fill="#e1ed5e" style="font-size:6.75px; font-family:Arial;" text-anchor="middle"><textPath startOffset="22.145653131862474" xlink:href="#id56">August</textPath></text><line stroke="#e1ed5e" stroke-width="0.3" x1="26.387840678322732" x2="22.057713659400548" y1="142.50000000000003" y2="145.00000000000006" /><path d="M 25.521815274538298 143.00000000000003 a86.0,86.0 0 0,1 -11.493303480769221,-40.785679425670985" fill="none" id="id57" stroke="none" /><text fill="#e1ed5e" style="font-size:6.75px; font-family:Arial;" text-anchor="middle"><textPath startOffset="21.40746469413373" xlink:href="#id57">September</textPath></text><line stroke="#e1ed5e" stroke-width="0.3" x1="15.003131293944662" x2="10.003315487706104" y1="100.72959589197737" y2="100.7725132973878" /><path d="M 14.003168132696942 100.73817937305945 a86.0,86.0 0 0,1 10.791469493833604,-42.45332614584628" fill="none" id="id58" stroke="none" /><text fill="#e1ed5e" style="font-size:6.75px; font-family:Arial;" text-anchor="middle"><textPath startOffset="22.145653131862435" xlink:href="#id58">October</textPath></text><line stroke="#e1ed5e" stroke-width="0.3" x1="26.387840678322718" x2="22.05771365940052" y1="57.49999999999999" y2="54.99999999999999" /><path d="M 25.521815274538284 56.99999999999999 a86.0,86.0 0 0,1 29.574782752854787,-30.34633250058573" fill="none" id="id59" stroke="none" /><text fill="#e1ed5e" style="font-size:6.75px; font-family:Arial;" text-anchor="middle"><textPath startOffset="21.40746469413373" xlink:href="#id59">November</textPath></text><line stroke="#e1ed5e" stroke-width="0.3" x1="56.869717070023135" x2="54.33264160355391" y1="26.7553504044142" y2="22.446841604673864" /><path d="M 56.362301976729285 25.89364864446614 a86.0,86.0 0 0,1 42.16139366436587,-11.88097634709845" fill="none" id="id60" stroke="none" /><text fill="#e1ed5e" style="font-size:6.75px; font-family:Arial;" text-anchor="middle"><textPath startOffset="22.145653131862474" xlink:href="#id60">December</textPath></text></svg>